SplineFontDB: 3.0
FontName: ume-stroke-stroke
FullName: Ume P Gothic Balsa Regular
FamilyName: ume-stroke-stroke
Weight: Book
Copyright: Author: HORAI Wataru. License: This font is a free software. Unlimited permission is granted to use, copy, and distribute it, with or without modification, either commercially and noncommercially. THIS FONT IS PROVIDED "AS IS" WITHOUT WARRANTY.
Version: Look update time of this file.
ItalicAngle: 0
UnderlinePosition: -180
UnderlineWidth: 24
Ascent: 1760
Descent: 288
InvalidEm: 0
LayerCount: 2
Layer: 0 0 "Arri+AOgA-re" 1
Layer: 1 0 "Avant" 0
StyleMap: 0x0000
FSType: 0
OS2Version: 0
OS2_WeightWidthSlopeOnly: 0
OS2_UseTypoMetrics: 0
CreationTime: 1493348654
ModificationTime: 1493349320
OS2TypoAscent: 0
OS2TypoAOffset: 1
OS2TypoDescent: 0
OS2TypoDOffset: 1
OS2TypoLinegap: 184
OS2WinAscent: 0
OS2WinAOffset: 1
OS2WinDescent: 0
OS2WinDOffset: 1
HheadAscent: 0
HheadAOffset: 1
HheadDescent: 0
HheadDOffset: 1
DEI: 91125
Encoding: iso8859-16
UnicodeInterp: none
NameList: AGL For New Fonts
DisplaySize: -36
AntiAlias: 1
FitToEm: 0
WinInfo: 0 36 12
BeginPrivate: 6
StdHW 5 [135]
StemSnapH 30 [100 120 130 135 140 145 150 ]
StdVW 5 [136]
StemSnapV 10 [136 140 ]
BlueValues 28 [-0 -0 1176 1176 1552 1552 ]
OtherBlues 12 [-288 -288 ]
EndPrivate
BeginChars: 330 232

StartChar: .notdef
Encoding: 256 -1 0
Width: 748
LayerCount: 2
Fore
SplineSet
68 0 m 1
 68 1365 l 1
 612 1365 l 1
 612 0 l 1
 68 0 l 1
136 68 m 1
 544 68 l 1
 544 1297 l 1
 136 1297 l 1
 136 68 l 1
EndSplineSet
EndChar

StartChar: exclam
Encoding: 33 33 4
Width: 448
Flags: W
HStem: -1 263<151 251 151 251 251 288>
VStem: 141 165 151 138
LayerCount: 2
Fore
SplineSet
131 1550 m 1xc0
 208 1550 l 1
 231 1550 l 1
 308 1550 l 1
 308 1537 307 1471 305 1369 c 0xc0
 303 1268 301 1134 298 1001 c 0
 293 734 288 458 288 444 c 1
 251 444 l 1
 188 444 l 1
 151 444 l 1xa0
 151 459 146 731 141 996 c 0
 136 1261 131 1520 131 1550 c 1xc0
151 262 m 1xa0
 251 262 l 1
 288 262 l 1
 288 -1 l 1
 251 -1 l 1
 151 -1 l 1
 151 262 l 1xa0
EndSplineSet
EndChar

StartChar: quotedbl
Encoding: 34 34 5
Width: 1024
Flags: W
LayerCount: 2
Fore
SplineSet
136 864 m 1
 136 1008 l 1
 211 1008 248 1093 248 1264 c 1
 136 1264 l 1
 136 1552 l 1
 368 1552 l 1
 368 1256 l 2
 368 1005 291 875 136 864 c 1
512 864 m 1
 512 1008 l 1
 587 1008 624 1093 624 1264 c 1
 512 1264 l 1
 512 1552 l 1
 744 1552 l 1
 744 1256 l 2
 744 1005 667 875 512 864 c 1
EndSplineSet
EndChar

StartChar: numbersign
Encoding: 35 35 6
Width: 1024
Flags: W
LayerCount: 2
Fore
SplineSet
24 464 m 1
 24 576 l 1
 199 576 l 1
 276 1040 l 1
 88 1040 l 1
 88 1152 l 1
 294 1152 l 1
 360 1552 l 1
 504 1552 l 1
 438 1152 l 1
 702 1152 l 1
 768 1552 l 1
 912 1552 l 1
 846 1152 l 1
 1000 1152 l 1
 1000 1040 l 1
 828 1040 l 1
 751 576 l 1
 928 576 l 1
 928 464 l 1
 732 464 l 1
 656 0 l 1
 512 0 l 1
 588 464 l 1
 324 464 l 1
 248 0 l 1
 104 0 l 1
 180 464 l 1
 24 464 l 1
343 576 m 1
 607 576 l 1
 684 1040 l 1
 420 1040 l 1
 343 576 l 1
EndSplineSet
EndChar

StartChar: dollar
Encoding: 36 36 7
Width: 1024
Flags: W
LayerCount: 2
Fore
SplineSet
80 184 m 1
 80 376 l 1
 160 285 237 224 312 192 c 0
 357 172 400 158 440 151 c 1
 440 722 l 1
 395 733 345 749 292 772 c 0
 236 796 187 839 144 900 c 0
 101 961 80 1040 80 1136 c 0
 80 1259 109 1359 168 1436 c 0
 218 1503 309 1541 440 1550 c 1
 440 1760 l 1
 584 1760 l 1
 584 1548 l 1
 641 1542 695 1529 744 1508 c 0
 813 1479 877 1435 936 1376 c 1
 936 1160 l 1
 861 1251 795 1316 736 1356 c 0
 693 1385 643 1404 584 1412 c 1
 584 822 l 1
 645 811 705 787 764 752 c 0
 825 715 871 668 900 612 c 0
 929 556 944 488 944 408 c 0
 944 269 911 167 844 100 c 0
 788 44 701 11 584 2 c 1
 584 -288 l 1
 440 -288 l 1
 440 6 l 1
 391 13 339 27 284 48 c 0
 201 80 133 125 80 184 c 1
232 1136 m 0
 232 1045 253 979 296 936 c 0
 335 897 383 872 440 859 c 1
 440 1412 l 1
 367 1404 317 1381 288 1344 c 0
 251 1296 232 1227 232 1136 c 0
584 148 m 1
 645 156 693 175 728 204 c 0
 776 244 800 312 800 408 c 0
 800 499 772 567 716 612 c 0
 667 652 623 679 584 692 c 1
 584 148 l 1
EndSplineSet
EndChar

StartChar: percent
Encoding: 37 37 8
Width: 1024
Flags: W
LayerCount: 2
Fore
SplineSet
16 1128 m 0
 16 1288 36 1407 76 1484 c 0
 116 1561 176 1600 256 1600 c 0
 341 1600 401 1557 436 1472 c 0
 471 1387 488 1272 488 1128 c 0
 488 957 468 836 428 764 c 0
 388 692 331 656 256 656 c 0
 165 656 103 697 68 780 c 0
 33 863 16 979 16 1128 c 0
104 -88 m 1
 784 1624 l 1
 936 1624 l 1
 256 -88 l 1
 104 -88 l 1
168 1128 m 0
 168 899 197 784 256 784 c 0
 315 784 344 899 344 1128 c 0
 344 1352 315 1464 256 1464 c 1
 197 1469 168 1357 168 1128 c 0
520 352 m 0
 520 512 539 629 576 704 c 0
 613 779 672 816 752 816 c 0
 832 816 892 776 932 696 c 0
 972 616 992 501 992 352 c 0
 992 181 971 63 928 -4 c 0
 885 -71 827 -104 752 -104 c 0
 667 -104 607 -65 572 12 c 0
 537 89 520 203 520 352 c 0
672 352 m 0
 672 139 699 32 752 32 c 0
 816 32 848 139 848 352 c 0
 848 571 816 680 752 680 c 0
 699 680 672 571 672 352 c 0
EndSplineSet
EndChar

StartChar: ampersand
Encoding: 38 38 9
Width: 1216
Flags: W
LayerCount: 2
Fore
SplineSet
64 384 m 0
 64 464 87 536 132 600 c 0
 177 664 239 719 316 764 c 0
 327 771 338 777 350 784 c 1
 255 959 205 1103 200 1216 c 1
 205 1333 240 1420 304 1476 c 0
 368 1532 448 1557 544 1552 c 1
 645 1552 724 1524 780 1468 c 0
 836 1412 864 1336 864 1240 c 0
 864 1144 835 1056 776 976 c 0
 717 896 655 832 588 784 c 0
 568 769 546 754 523 738 c 1
 585 638 677 516 799 372 c 1
 835 424 862 480 880 540 c 0
 912 644 933 765 944 904 c 1
 1096 904 l 1
 1085 728 1055 576 1004 448 c 0
 976 377 942 313 901 254 c 1
 972 175 1050 91 1136 0 c 1
 920 0 l 1
 879 47 840 93 803 138 c 1
 799 134 795 131 792 128 c 0
 701 43 589 0 456 0 c 0
 339 0 244 32 172 96 c 0
 100 160 64 256 64 384 c 0
208 384 m 1
 208 293 233 231 284 196 c 0
 335 161 395 144 464 144 c 0
 543 144 623 183 704 260 c 1
 589 405 495 540 420 664 c 1
 399 648 376 632 352 616 c 0
 261 552 213 475 208 384 c 1
344 1216 m 0
 348 1113 385 994 456 857 c 1
 495 886 535 917 576 952 c 0
 672 1032 720 1128 720 1240 c 0
 720 1299 704 1344 672 1376 c 0
 640 1408 597 1424 544 1424 c 0
 480 1424 431 1405 396 1368 c 0
 361 1331 344 1280 344 1216 c 0
EndSplineSet
EndChar

StartChar: quotesingle
Encoding: 39 39 10
Width: 416
Flags: MW
HStem: 1082 468<179 179 179 179 179 179>
VStem: 151 138
LayerCount: 2
Fore
SplineSet
151 1550 m 1
 188 1550 l 1
 251 1550 l 1
 288 1550 l 1
 288 1292 l 1
 288 1289 l 1
 288 1249 l 1
 288 1249 l 1
 280 1237 l 1
 179 1082 l 1
 179 1082 l 1
 179 1082 l 1
 95 1136 l 1
 188 1279 l 1
 188 1289 l 1
 151 1289 l 1
 151 1550 l 1
EndSplineSet
EndChar

StartChar: parenleft
Encoding: 40 40 11
Width: 624
Flags: MW
VStem: 101 142<611.5 758 611.5 759 611.5 759>
LayerCount: 2
Fore
SplineSet
429 1731 m 2
 511 1673 l 1
 469 1613 248 1260 243 755 c 0
 243 468 304 237 368 73 c 0
 400 -8 432 -73 459 -119 c 0
 485 -165 508 -195 509 -195 c 2
 435 -262 l 2
 434 -262 434 -262 434 -262 c 1
 432 -264 l 1
 409 -239 331 -139 253 35 c 0
 175 210 101 456 101 758 c 1
 101 758 l 1
 101 759 l 1
 106 1295 381 1665 427 1729 c 1
 427 1729 l 1
 428 1729 428 1730 429 1731 c 2
EndSplineSet
EndChar

StartChar: parenright
Encoding: 41 41 12
Width: 624
Flags: MW
VStem: 392 142
LayerCount: 2
Fore
SplineSet
206 1731 m 2
 207 1730 207 1729 208 1729 c 2
 209 1729 l 1
 254 1665 529 1295 535 759 c 1
 535 758 l 1
 535 758 l 1
 535 456 460 210 382 35 c 0
 304 -139 226 -239 203 -264 c 1
 201 -262 l 1
 201 -262 201 -262 201 -262 c 1
 127 -195 l 1
 127 -195 150 -165 177 -119 c 0
 203 -73 236 -8 268 73 c 0
 332 237 392 468 392 755 c 0
 387 1260 167 1613 125 1673 c 1
 206 1731 l 2
EndSplineSet
EndChar

StartChar: asterisk
Encoding: 42 42 13
Width: 1024
Flags: W
LayerCount: 2
Fore
SplineSet
80 512 m 1
 392 776 l 1
 80 1048 l 1
 192 1208 l 1
 448 920 l 1
 424 1552 l 1
 600 1552 l 1
 576 920 l 1
 840 1208 l 1
 944 1048 l 1
 640 776 l 1
 952 512 l 1
 840 344 l 1
 576 648 l 1
 600 0 l 1
 424 0 l 1
 448 648 l 1
 192 344 l 1
 80 512 l 1
EndSplineSet
EndChar

StartChar: plus
Encoding: 43 43 14
Width: 1024
Flags: W
LayerCount: 2
Fore
SplineSet
56 680 m 1
 56 816 l 1
 440 816 l 1
 440 1472 l 1
 584 1472 l 1
 584 816 l 1
 960 816 l 1
 960 680 l 1
 584 680 l 1
 584 0 l 1
 440 0 l 1
 440 680 l 1
 56 680 l 1
EndSplineSet
EndChar

StartChar: comma
Encoding: 44 44 15
Width: 416
Flags: W
LayerCount: 2
Fore
SplineSet
88 112 m 1
 88 400 l 1
 336 400 l 1
 336 112 l 2
 336 -149 253 -283 88 -288 c 1
 88 -144 l 1
 168 -144 208 -59 208 112 c 1
 88 112 l 1
EndSplineSet
EndChar

StartChar: hyphen
Encoding: 45 45 16
Width: 1024
Flags: W
LayerCount: 2
Fore
SplineSet
152 544 m 1
 152 656 l 1
 864 656 l 1
 864 544 l 1
 152 544 l 1
EndSplineSet
EndChar

StartChar: period
Encoding: 46 46 17
Width: 416
Flags: MW
HStem: -1 263<151 188 151 188 188 251 251 288>
VStem: 151 138
LayerCount: 2
Fore
SplineSet
151 262 m 1
 188 262 l 1
 251 262 l 1
 288 262 l 1
 288 -1 l 1
 251 -1 l 1
 188 -1 l 1
 151 -1 l 1
 151 262 l 1
EndSplineSet
EndChar

StartChar: slash
Encoding: 47 47 18
Width: 1024
Flags: W
LayerCount: 2
Fore
SplineSet
112 -136 m 1
 768 1664 l 1
 912 1616 l 1
 248 -192 l 1
 112 -136 l 1
EndSplineSet
EndChar

StartChar: zero
Encoding: 48 48 19
Width: 1024
Flags: MW
HStem: -11 125 1429 123<495 547 547 565.5>
VStem: 114 131 791 130
LayerCount: 2
Fore
SplineSet
489 1552 m 2
 547 1552 l 2
 609 1552 666 1525 713 1482 c 0
 759 1439 797 1380 828 1309 c 0
 889 1167 922 978 922 772 c 0
 922 548 890 358 824 219 c 0
 759 80 653 -10 519 -11 c 0
 384 -13 278 77 212 216 c 0
 146 355 114 546 114 772 c 0
 114 978 146 1167 207 1309 c 0
 238 1380 276 1439 322 1482 c 0
 369 1525 426 1552 489 1552 c 2
518 1429 m 0
 472 1429 435 1415 402 1386 c 0
 368 1358 339 1315 315 1257 c 0
 268 1141 244 970 244 770 c 0
 244 591 265 420 311 299 c 0
 334 239 364 192 398 161 c 0
 431 130 469 114 517 114 c 0
 566 114 603 130 637 161 c 0
 671 192 701 239 724 300 c 0
 770 420 791 592 791 771 c 0
 791 981 768 1152 721 1264 c 0
 674 1377 613 1429 518 1429 c 0
EndSplineSet
EndChar

StartChar: one
Encoding: 49 49 20
Width: 1024
Flags: MW
HStem: 0 145<200 444 580 820 200 444>
VStem: 444 136<145 1283 1283 1283 1460 1550 1460 1460 145 1550>
LayerCount: 2
Fore
SplineSet
494 1550 m 1
 494 1550 544 1550 544 1550 c 1
 544 1550 544 1550 544 1550 c 1
 580 1550 l 1
 580 145 l 1
 820 145 l 1
 820 100 l 1
 820 0 l 1
 200 0 l 1
 200 45 l 1
 200 145 l 1
 444 145 l 1
 444 1283 l 1
 377 1231 291 1199 199 1199 c 1
 199 1299 l 1
 199 1299 l 1
 199 1336 l 1
 248 1336 317 1346 367 1369 c 0
 418 1392 444 1417 444 1460 c 1
 444 1460 444 1460 444 1460 c 1
 444 1460 444 1550 444 1550 c 1
 480 1550 l 1
 480 1550 l 1
 494 1550 l 1
EndSplineSet
EndChar

StartChar: two
Encoding: 50 50 21
Width: 1024
Flags: MW
HStem: 0 140<306 871 306 871> 1430 120<472.5 545>
VStem: 149 144<1145 1177 1145 1265.5> 738 137<1088.5 1191 1191 1192 1088.5 1237>
LayerCount: 2
Fore
SplineSet
451 1550 m 2
 563 1550 l 2
 640 1550 718 1521 777 1460 c 0
 836 1399 872 1308 875 1192 c 2
 875 1191 l 1
 875 1191 l 1
 875 986 749 829 604 646 c 0
 600 640 595 635 591 629 c 0
 517 535 446 455 394 373 c 0
 347 300 315 228 306 140 c 1
 871 140 l 1
 871 40 l 1
 871 40 l 1
 871 0 l 1
 143 0 l 1
 143 50 l 2
 143 172 207 291 285 403 c 0
 357 508 445 607 512 691 c 0
 517 697 521 703 526 709 c 0
 626 839 738 973 738 1180 c 0
 738 1294 707 1351 668 1385 c 0
 629 1418 574 1430 516 1430 c 0
 429 1430 380 1394 345 1339 c 0
 309 1284 293 1209 293 1145 c 1
 249 1145 l 1
 193 1145 l 1
 149 1145 l 1
 149 1386 294 1550 451 1550 c 2
EndSplineSet
EndChar

StartChar: three
Encoding: 51 51 22
Width: 1024
Flags: MW
HStem: -20 140<473 521.5 473 541.5> 1415 135<157 706 156 872>
VStem: 749 142<420.5 554.5>
LayerCount: 2
Fore
SplineSet
157 1550 m 1
 872 1550 l 1
 872 1410 l 1
 475 941 l 1
 572 932 663 904 736 847 c 0
 832 774 891 651 891 482 c 0
 891 343 858 220 787 128 c 0
 717 36 608 -20 475 -20 c 0
 369 -20 280 10 217 39 c 0
 185 54 159 69 142 79 c 0
 134 84 128 88 123 90 c 1
 126 90 130 89 137 89 c 1
 137 135 l 1
 131 140 126 143 122 146 c 1
 125 145 129 144 137 144 c 1
 137 189 l 1
 137 244 l 1
 160 244 161 239 165 237 c 0
 168 235 171 233 174 231 c 0
 180 227 187 222 195 217 c 0
 211 206 233 192 260 178 c 0
 314 150 387 122 473 120 c 0
 570 120 633 154 678 213 c 0
 723 273 749 364 749 477 c 0
 749 632 707 715 645 764 c 0
 583 814 493 832 390 832 c 2
 340 832 l 1
 340 846 l 1
 340 937 l 1
 340 948 l 1
 706 1415 l 1
 156 1415 l 1
 156 1515 l 1
 157 1515 l 1
 157 1550 l 1
EndSplineSet
EndChar

StartChar: four
Encoding: 52 52 23
Width: 1024
Flags: MW
HStem: 0 21G<620 650 620 620 650 720 720 750> 343 100<229 620 229 620 750 951>
VStem: 620 130<0 343 0 343 443 1403 1403 1403>
LayerCount: 2
Fore
SplineSet
563 1550 m 1
 572 1550 l 1
 720 1550 l 1
 750 1550 l 1
 750 443 l 1
 951 443 l 1
 951 443 l 1
 951 343 l 1
 951 343 l 1
 750 343 l 1
 750 0 l 1
 720 0 l 1
 650 0 l 1
 620 0 l 1
 620 343 l 1
 129 343 l 1
 87 343 l 1
 87 471 l 1
 563 1550 l 1
620 1403 m 1
 229 448 l 1
 229 443 l 1
 620 443 l 1
 620 1403 l 1
EndSplineSet
EndChar

StartChar: five
Encoding: 53 53 24
Width: 1024
Flags: W
HStem: -20 145<449 497 449 526> 38 7 92 4 934 124<403.5 423 423 424 424 425> 1400 150<277 880 277 277>
VStem: 744 136<494 679>
LayerCount: 2
Fore
SplineSet
145 1550 m 1x9c
 880 1550 l 1
 880 1500 l 1
 880 1450 l 1
 880 1400 l 1
 277 1400 l 1
 247 1019 l 1
 254 1023 262 1026 270 1029 c 0
 309 1044 366 1058 441 1058 c 0
 682 1057 880 829 880 554 c 0
 880 407 849 267 779 160 c 0
 709 53 597 -20 455 -20 c 0x9c
 353 -20 271 -3 213 14 c 0
 184 23 162 32 146 38 c 0
 138 41 132 44 128 45 c 1
 130 45 132 45 137 45 c 1
 137 92 l 1
 133 94 130 95 127 96 c 1x7c
 129 96 132 95 137 95 c 1
 137 145 l 1
 137 195 l 1
 150 195 153 193 156 192 c 0
 160 191 163 190 165 189 c 0
 171 186 176 184 183 181 c 0
 197 175 216 167 240 159 c 0
 289 143 358 127 449 125 c 0
 545 125 613 171 665 249 c 0
 716 327 744 438 744 550 c 0
 744 808 544 937 425 934 c 2
 424 934 l 1
 423 934 l 2
 342 934 271 893 271 893 c 1
 237 872 l 1
 161 951 l 1
 144 963 l 1
 144 968 l 1
 143 969 l 1
 144 990 l 1
 145 1550 l 1x9c
EndSplineSet
EndChar

StartChar: six
Encoding: 54 54 25
Width: 1024
Flags: MW
HStem: -20 135 906 101<486.5 554>
VStem: 130 133<423 548.5 423 633> 762 134<423 560.5 413 571.5>
LayerCount: 2
Fore
SplineSet
576 1575 m 1
 576 1575 576 1575 575 1573 c 0
 575 1572 574 1571 573 1569 c 0
 572 1566 569 1564 569 1550 c 1
 614 1550 l 1
 669 1550 l 1
 669 1536 666 1533 665 1531 c 0
 664 1528 663 1526 663 1525 c 0
 661 1523 661 1522 660 1521 c 0
 659 1518 657 1516 656 1514 c 0
 652 1509 648 1503 642 1496 c 0
 631 1480 616 1458 597 1431 c 0
 560 1375 510 1296 460 1201 c 0
 425 1133 390 1058 359 977 c 1
 398 998 437 1007 473 1007 c 2
 557 1007 l 2
 670 1007 763 948 818 854 c 0
 872 760 896 634 896 487 c 0
 896 339 869 214 806 123 c 0
 742 32 639 -21 512 -20 c 0
 387 -19 284 33 220 124 c 0
 157 215 130 339 130 487 c 0
 130 779 229 1049 327 1248 c 0
 376 1347 425 1429 462 1486 c 0
 480 1515 496 1538 506 1553 c 0
 510 1559 513 1563 515 1567 c 1
 515 1564 514 1559 514 1550 c 1
 558 1550 l 2
 559 1551 560 1553 561 1554 c 0
 567 1562 571 1568 574 1572 c 0
 575 1574 576 1575 576 1575 c 1
520 1574 m 1
 520 1574 519 1572 518 1571 c 1
 519 1571 519 1571 519 1572 c 0
 520 1573 520 1574 520 1574 c 1
514 906 m 0
 459 906 417 892 384 872 c 0
 354 851 323 819 296 773 c 1
 275 685 263 594 263 503 c 0
 263 343 291 245 332 190 c 0
 374 136 429 115 514 115 c 0
 598 115 652 135 693 190 c 0
 734 244 762 343 762 503 c 0
 762 640 735 744 692 810 c 0
 649 875 594 906 514 906 c 0
EndSplineSet
EndChar

StartChar: seven
Encoding: 55 55 26
Width: 1024
Flags: MW
HStem: 0 21G<305 356 305 305 356 456 356 356> 1400 150<144 754 144 880>
VStem: 305 151<0 145.5>
LayerCount: 2
Fore
SplineSet
144 1550 m 1
 880 1550 l 1
 880 1500 l 1
 880 1426 l 1
 880 1425 l 1
 874 1414 l 1
 874 1414 451 628 456 0 c 1
 356 0 l 1
 356 0 356 0 356 0 c 1
 305 0 l 1
 305 291 426 653 546 946 c 0
 604 1088 662 1212 706 1304 c 0
 725 1343 741 1375 754 1400 c 1
 144 1400 l 1
 144 1450 l 1
 144 1500 l 1
 144 1550 l 1
EndSplineSet
EndChar

StartChar: eight
Encoding: 56 56 27
Width: 1024
Flags: W
HStem: -20 135<466.5 563> 1418 132<482 546>
VStem: 126 133 158 129<1150 1151 1151 1199 1106.5 1220> 742 129<1106.5 1151 1151 1152 1096.5 1199> 770 133<372 372 372 373 373 373>
LayerCount: 2
Fore
SplineSet
465 1550 m 2xd0
 564 1550 l 2
 623 1550 693 1520 756 1455 c 0
 818 1391 868 1290 871 1152 c 2
 871 1152 871 1151 871 1151 c 2xd8
 871 1042 839 953 779 885 c 0
 741 842 694 808 639 780 c 1
 698 748 751 710 794 663 c 0
 862 589 903 493 903 379 c 0
 903 238 857 134 783 69 c 0
 708 4 611 -20 515 -20 c 0
 418 -20 321 4 247 69 c 0
 172 134 126 238 126 379 c 0xe4
 126 493 167 589 235 663 c 0
 278 710 331 748 390 780 c 1
 336 808 289 842 252 884 c 0
 192 952 160 1041 158 1150 c 2
 158 1150 158 1151 158 1151 c 2
 158 1289 209 1391 272 1456 c 0
 335 1520 406 1550 465 1550 c 2xd0
514 1418 m 0
 450 1418 396 1396 355 1353 c 0
 315 1310 287 1245 287 1153 c 0
 287 1060 307 997 345 948 c 0
 380 902 435 865 514 834 c 1
 594 865 649 902 684 948 c 0
 722 998 742 1060 742 1153 c 0
 742 1245 714 1310 674 1353 c 0
 633 1396 578 1418 514 1418 c 0
514 726 m 1
 355 660 258 512 260 373 c 2
 260 372 l 1
 260 372 l 1
 260 230 359 115 515 115 c 0
 671 115 770 230 770 372 c 1
 770 372 l 1xe4
 770 373 l 2
 771 512 674 660 514 726 c 1
EndSplineSet
EndChar

StartChar: nine
Encoding: 57 57 28
Width: 1024
Flags: MW
HStem: 548 121<471 515> 1440 135<470 471 471 512 512 540 540 554.5>
VStem: 130 134<994 1132 983.5 1142> 764 133
LayerCount: 2
Fore
SplineSet
470 1575 m 0
 363 1575 271 1520 214 1430 c 0
 157 1339 130 1216 130 1068 c 0
 130 920 158 793 217 700 c 0
 276 606 371 548 482 548 c 0
 548 548 614 562 673 593 c 1
 641 506 604 426 566 354 c 0
 516 259 467 180 429 124 c 0
 411 97 395 75 384 59 c 0
 378 52 374 46 371 41 c 0
 369 38 368 37 366 34 c 0
 366 33 365 32 364 30 c 0
 363 29 362 27 361 24 c 0
 360 22 357 19 357 5 c 1
 412 5 l 1
 457 5 l 1
 457 -9 454 -11 453 -14 c 0
 452 -16 452 -17 451 -18 c 0
 451 -20 450 -20 450 -20 c 1
 450 -20 451 -19 453 -17 c 0
 455 -13 460 -7 465 1 c 0
 466 2 467 4 468 5 c 2
 512 5 l 1
 512 -4 512 -9 511 -12 c 1
 513 -8 516 -4 520 2 c 0
 531 17 546 40 565 69 c 0
 601 126 650 208 699 307 c 0
 797 506 896 776 896 1068 c 0
 896 1215 870 1337 813 1427 c 0
 756 1517 664 1573 555 1575 c 1
 555 1575 l 1
 549 1575 548 1575 540 1575 c 0
 533 1575 522 1575 512 1575 c 0
 492 1575 472 1575 470 1575 c 0
512 1440 m 0
 597 1440 653 1419 694 1365 c 0
 735 1310 764 1212 764 1052 c 0
 764 960 751 867 729 778 c 0
 722 766 713 754 705 744 c 0
 674 711 615 669 512 669 c 0
 430 669 375 696 333 756 c 0
 291 816 264 915 264 1052 c 0
 264 1212 292 1311 333 1365 c 0
 374 1420 428 1440 512 1440 c 0
508 -16 m 2
 507 -17 506 -19 506 -19 c 1
 506 -19 507 -18 507 -17 c 0
 508 -16 508 -16 508 -16 c 2
EndSplineSet
EndChar

StartChar: colon
Encoding: 58 58 29
Width: 416
Flags: MW
HStem: 43 263<151 188 151 188 188 251 251 288> 720 263<151 251 151 251 251 288>
VStem: 151 138
LayerCount: 2
Fore
SplineSet
151 983 m 5
 251 983 l 5
 288 983 l 5
 288 720 l 5
 251 720 l 5
 151 720 l 5
 151 983 l 5
151 306 m 1
 188 306 l 1
 251 306 l 1
 288 306 l 1
 288 43 l 1
 251 43 l 1
 188 43 l 1
 151 43 l 1
 151 306 l 1
EndSplineSet
EndChar

StartChar: semicolon
Encoding: 59 59 30
Width: 416
Flags: MW
HStem: 720 263<151 251 151 251 251 288>
VStem: 151 138
LayerCount: 2
Fore
SplineSet
151 983 m 1
 251 983 l 1
 288 983 l 1
 288 720 l 1
 251 720 l 1
 151 720 l 1
 151 983 l 1
151 306 m 1
 188 306 l 1
 251 306 l 1
 288 306 l 1
 288 46 l 1
 288 43 l 1
 288 3 l 1
 288 3 l 1
 280 -9 l 1
 179 -164 l 1
 179 -164 l 1
 179 -164 l 1
 95 -110 l 1
 188 33 l 1
 188 43 l 1
 151 43 l 1
 151 306 l 1
EndSplineSet
EndChar

StartChar: less
Encoding: 60 60 31
Width: 1024
Flags: W
LayerCount: 2
Fore
SplineSet
96 688 m 1
 96 808 l 1
 824 1320 l 1
 928 1200 l 1
 272 752 l 1
 928 288 l 1
 824 160 l 1
 96 688 l 1
EndSplineSet
EndChar

StartChar: equal
Encoding: 61 61 32
Width: 1024
Flags: W
LayerCount: 2
Fore
SplineSet
72 384 m 1
 72 496 l 1
 952 496 l 1
 952 384 l 1
 72 384 l 1
72 768 m 1
 72 880 l 1
 952 880 l 1
 952 768 l 1
 72 768 l 1
EndSplineSet
EndChar

StartChar: greater
Encoding: 62 62 33
Width: 1024
Flags: W
LayerCount: 2
Fore
SplineSet
88 280 m 1
 744 728 l 1
 88 1192 l 1
 192 1320 l 1
 920 792 l 1
 920 672 l 1
 192 160 l 1
 88 280 l 1
EndSplineSet
EndChar

StartChar: question
Encoding: 63 63 34
Width: 928
Flags: MW
HStem: 0 264<378 478 378 478 478 515> 1428 122<418.5 491>
VStem: 378 138 684 137<1114.5 1191 1191 1192 1097 1237>
LayerCount: 2
Fore
SplineSet
397 1550 m 2
 509 1550 l 2
 586 1550 664 1521 723 1460 c 0
 782 1399 818 1308 821 1192 c 2
 821 1191 l 1
 821 1191 l 1
 821 1003 731 901 655 815 c 0
 579 730 514 660 514 490 c 1
 477 490 l 1
 477 490 477 490 477 490 c 1
 377 490 l 1
 377 676 465 790 542 884 c 0
 619 977 684 1049 684 1180 c 0
 684 1294 653 1351 614 1383 c 0
 576 1416 520 1428 462 1428 c 0
 375 1428 310 1391 264 1352 c 0
 241 1332 223 1312 211 1297 c 0
 204 1289 200 1282 196 1277 c 0
 194 1275 193 1273 191 1271 c 0
 190 1269 192 1269 183 1261 c 1
 151 1293 l 1
 151 1293 151 1293 151 1293 c 1
 113 1332 l 2
 111 1331 111 1330 111 1330 c 1
 111 1330 112 1332 112 1332 c 1
 80 1364 l 1
 75 1359 82 1365 86 1371 c 0
 91 1377 98 1384 106 1393 c 0
 122 1411 145 1433 172 1456 c 0
 228 1502 305 1550 397 1550 c 2
378 264 m 1
 478 264 l 1
 515 264 l 1
 515 0 l 1
 478 0 l 1
 378 0 l 1
 378 264 l 1
EndSplineSet
EndChar

StartChar: at
Encoding: 64 64 35
Width: 1368
Flags: W
LayerCount: 2
Fore
SplineSet
48 744 m 0
 48 989 105 1185 220 1332 c 0
 335 1479 499 1552 712 1552 c 0
 883 1552 1025 1493 1140 1376 c 0
 1255 1259 1312 1088 1312 864 c 0
 1312 587 1251 395 1128 288 c 1
 808 288 l 1
 808 360 l 1
 755 317 699 296 640 296 c 0
 544 296 469 337 416 420 c 0
 363 503 336 621 336 776 c 0
 336 925 363 1047 416 1140 c 0
 469 1233 544 1280 640 1280 c 0
 704 1280 760 1256 808 1208 c 1
 808 1280 l 1
 952 1280 l 1
 952 416 l 1
 1072 416 l 1
 1136 533 1168 683 1168 864 c 0
 1168 1051 1125 1189 1040 1280 c 0
 955 1371 845 1416 712 1416 c 0
 541 1416 412 1355 324 1232 c 0
 236 1109 192 947 192 744 c 0
 192 531 232 377 312 284 c 0
 392 191 523 141 704 136 c 1
 864 136 1019 155 1168 192 c 1
 1168 48 l 1
 1029 16 875 0 704 0 c 0
 491 0 328 60 216 180 c 0
 104 300 48 488 48 744 c 0
488 776 m 1
 488 659 500 572 524 516 c 0
 548 460 587 432 640 432 c 0
 699 432 752 459 800 512 c 1
 800 1064 l 1
 752 1112 699 1136 640 1136 c 0
 592 1136 556 1107 532 1048 c 0
 508 989 493 899 488 776 c 1
EndSplineSet
EndChar

StartChar: A
Encoding: 65 65 36
Width: 1296
Flags: W
HStem: 543 100<426 872 426 901 396 872>
VStem: 181 0<0 0 4.29497e+09 4.29497e+09> 181 2 239 0<0 0 4.29497e+09 4.29497e+09 4.29497e+09 4.29497e+09> 1058 0<0 0 4.29497e+09 4.29497e+09 4.29497e+09 4.29497e+09> 1114 2<-7 0> 1116 0<0 0 4.29497e+09 4.29497e+09>
LayerCount: 2
Fore
SplineSet
559 1550 m 1xd8
 590 1550 l 1
 706 1550 l 1
 738 1550 l 1
 749 1515 l 1
 749 1515 865 1144 981 771 c 0
 1039 585 1097 398 1141 257 c 0
 1163 186 1181 126 1194 84 c 0
 1200 63 1205 46 1208 34 c 0
 1210 27 1212 23 1213 19 c 0
 1213 17 1214 15 1214 13 c 0
 1215 11 1216 14 1216 0 c 1
 1158 0 l 1
 1116 0 l 1
 1116 -5 1116 -6 1116 -7 c 1xda
 1116 -5 1115 -3 1114 0 c 2
 1058 0 l 2
 1058 -2 1058 -3 1058 -4 c 2
 1058 -4 1058 -3 1058 -3 c 2
 1057 0 1056 4 1054 11 c 0
 1051 23 1047 40 1041 62 c 0
 1029 105 1012 165 991 236 c 0
 965 324 934 431 901 543 c 1
 396 543 l 1
 363 430 331 322 305 232 c 0
 285 162 268 102 256 59 c 0
 250 38 245 21 242 9 c 0
 241 3 239 -2 239 -4 c 2
 239 -4 239 -4 239 -5 c 1
 239 -3 239 -2 239 0 c 2
 182 0 l 2xbc
 182 -3 181 -5 181 -7 c 1
 181 -6 181 -5 181 0 c 1
 139 0 l 1
 81 0 l 1
 81 14 82 11 82 13 c 0
 83 15 83 17 84 19 c 0
 85 23 86 27 88 34 c 0
 92 46 97 63 103 84 c 0
 116 126 134 186 156 257 c 0
 199 398 257 585 316 771 c 0
 432 1144 548 1515 548 1515 c 1
 559 1550 l 1xd8
1058 -4 m 1
 1058 -9 1058 -6 1058 -4 c 1
239 -5 m 1
 238 -7 239 -13 239 -5 c 1
648 1394 m 1
 617 1288 544 1044 456 747 c 0
 446 712 436 678 426 643 c 1
 872 643 l 1
 861 679 851 714 840 749 c 0
 753 1046 680 1289 648 1394 c 1
EndSplineSet
EndChar

StartChar: B
Encoding: 66 66 37
Width: 1304
Flags: W
HStem: 0 140<302 727 727 769> 770 100<302 623 302 623> 1415 138<302 302 302 719>
VStem: 162 140<140 770 870 1415> 992 153<1180 1180 1180 1181 1181 1207> 1054 154<459 460 460 515 376 522.5 460 460>
LayerCount: 2
Fore
SplineSet
162 1553 m 1xf4
 721 1553 l 2
 859 1553 967 1514 1040 1443 c 0
 1112 1373 1145 1274 1145 1167 c 0xf8
 1145 1016 1071 908 969 848 c 0
 958 841 946 835 934 829 c 1
 969 818 1002 803 1033 784 c 0
 1141 717 1208 598 1208 432 c 0
 1208 320 1184 211 1112 130 c 0
 1041 48 927 0 769 0 c 2
 162 0 l 1
 162 1553 l 1xf4
302 1415 m 1
 302 870 l 1
 623 870 l 2
 636 870 649 870 662 871 c 0
 740 876 821 900 882 945 c 0
 950 995 994 1067 992 1180 c 1
 992 1180 l 1
 992 1181 l 2
 992 1233 972 1292 929 1337 c 0
 887 1382 821 1415 719 1415 c 2
 302 1415 l 1
302 770 m 1
 302 140 l 1
 727 140 l 1
 727 140 l 1
 858 140 936 173 985 225 c 0
 1033 277 1055 355 1054 459 c 2
 1054 460 l 1
 1054 460 l 1xf4
 1054 585 1010 654 937 702 c 0
 875 742 787 763 687 769 c 0
 666 770 645 770 623 770 c 2
 302 770 l 1
EndSplineSet
EndChar

StartChar: C
Encoding: 67 67 38
Width: 1360
Flags: MW
HStem: -16 146<634 769 634 797> 1413 138
VStem: 122 141<684.5 873 684.5 874.5> 1099 160<496.5 575>
LayerCount: 2
Fore
SplineSet
661 1552 m 2
 769 1552 l 2
 1051 1552 1255 1314 1255 1016 c 1
 1195 1016 l 1
 1155 1016 l 1
 1095 1016 l 1
 1095 1144 1060 1242 996 1308 c 0
 933 1375 838 1413 703 1413 c 0
 554 1413 451 1356 377 1247 c 0
 304 1139 263 975 263 771 c 0
 263 598 304 434 380 317 c 0
 456 200 561 130 707 130 c 0
 831 130 925 166 992 237 c 0
 1058 308 1099 418 1099 575 c 1
 1159 575 l 1
 1199 575 l 1
 1259 575 l 1
 1259 408 1215 260 1122 153 c 0
 1029 46 887 -16 707 -16 c 0
 518 -16 366 68 267 210 c 0
 169 351 122 545 122 772 c 0
 122 977 154 1167 239 1312 c 0
 323 1456 466 1552 661 1552 c 2
EndSplineSet
EndChar

StartChar: D
Encoding: 68 68 39
Width: 1328
Flags: MW
HStem: 0 145<302 464 162 507> 1415 138<302 302 302 469 469 499>
VStem: 162 140<145 1415 145 1553 145 1553> 1047 158
LayerCount: 2
Fore
SplineSet
162 1553 m 1
 469 1553 l 2
 626 1553 810 1526 956 1413 c 0
 1103 1300 1204 1101 1204 784 c 2
 1204 783 l 1
 1204 783 l 1
 1204 475 1107 274 963 155 c 0
 819 36 634 0 464 0 c 2
 162 0 l 1
 162 1553 l 1
302 1415 m 1
 302 145 l 1
 507 145 l 2
 691 145 821 209 910 322 c 0
 999 434 1047 600 1047 805 c 1
 1047 805 l 1
 1047 806 l 2
 1050 982 1010 1135 924 1242 c 0
 838 1349 705 1415 499 1415 c 2
 302 1415 l 1
EndSplineSet
EndChar

StartChar: E
Encoding: 69 69 40
Width: 1160
Flags: MW
HStem: 0 140<302 1000 302 1000> 774 100<302 324 302 306 324 567 567 920> 1415 138<302 1000 302 302>
VStem: 162 140<140 774 874 1415>
LayerCount: 2
Fore
SplineSet
162 1553 m 1
 1000 1553 l 1
 1000 1515 l 1
 1000 1453 l 1
 1000 1415 l 1
 302 1415 l 1
 302 874 l 1
 920 874 l 1
 920 824 l 1
 920 774 l 1
 920 774 744 774 567 774 c 0
 479 774 390 774 324 774 c 0
 315 774 310 774 302 774 c 1
 302 140 l 1
 1000 140 l 1
 1000 100 l 1
 1000 100 l 1
 1000 90 l 1
 1000 90 1000 40 1000 40 c 1
 1000 40 1000 40 1000 40 c 1
 1000 0 l 1
 162 0 l 1
 162 1553 l 1
EndSplineSet
EndChar

StartChar: F
Encoding: 70 70 41
Width: 1128
Flags: MW
HStem: 0 21G<162 202 162 162 202 262 262 302> 774 100<302 889 302 889 302 889> 1415 138<302 1000 302 302>
VStem: 162 140<0 774 874 1415>
LayerCount: 2
Fore
SplineSet
162 1553 m 1
 1000 1553 l 1
 1000 1515 l 1
 1000 1453 l 1
 1000 1415 l 1
 302 1415 l 1
 302 874 l 1
 889 874 l 1
 889 774 l 1
 889 774 l 1
 302 774 l 1
 302 0 l 1
 262 0 l 1
 202 0 l 1
 162 0 l 1
 162 1553 l 1
EndSplineSet
EndChar

StartChar: G
Encoding: 71 71 42
Width: 1392
Flags: MW
HStem: -16 146<634 796> 675 100<785 1093 785 1193> 1431 121<661 769 769 836.5>
VStem: 122 141<684.5 873 684.5 874.5> 1093 140<276 675 675 675>
LayerCount: 2
Fore
SplineSet
661 1552 m 2
 769 1552 l 2
 1047 1552 1238 1351 1238 1130 c 1
 1181 1130 l 2
 1181 1129 1181 1129 1181 1129 c 1
 1081 1129 l 1
 1081 1255 970 1431 703 1431 c 0
 555 1431 452 1370 378 1257 c 0
 304 1143 263 975 263 771 c 0
 263 598 304 434 380 317 c 0
 456 200 561 130 707 130 c 0
 895 130 1031 211 1079 258 c 0
 1084 263 1088 268 1091 271 c 0
 1092 273 1093 274 1093 276 c 2
 1093 675 l 1
 785 675 l 1
 785 775 l 1
 1193 775 l 1
 1233 775 l 1
 1233 0 l 1
 1133 0 l 2
 1133 -2 1133 -2 1133 -3 c 2
 1133 -3 1133 -2 1133 -2 c 2
 1133 0 1133 3 1132 7 c 0
 1131 15 1129 25 1128 38 c 0
 1124 63 1119 96 1114 128 c 0
 1114 130 1114 130 1113 132 c 1
 1111 129 1109 127 1107 125 c 0
 1019 36 885 -16 707 -16 c 0
 518 -16 366 68 267 210 c 0
 169 351 122 545 122 772 c 0
 122 977 154 1167 239 1312 c 0
 323 1456 466 1552 661 1552 c 2
1133 -3 m 1
 1133 -6 1133 -5 1133 -3 c 1
EndSplineSet
EndChar

StartChar: H
Encoding: 72 72 43
Width: 1312
Flags: MW
HStem: 0 21G<162 202 162 162 202 262 262 302 1004 1104 1004 1004 1104 1144> 791 100<302 1004 302 1004>
VStem: 162 140<0 791 891 1550> 1004 140<0 791 791 791 891 1550 0 1550>
LayerCount: 2
Fore
SplineSet
162 1550 m 1
 202 1550 l 1
 262 1550 l 1
 302 1550 l 1
 302 891 l 1
 1004 891 l 1
 1004 1550 l 1
 1104 1550 l 1
 1144 1550 l 1
 1144 0 l 1
 1104 0 l 1
 1004 0 l 1
 1004 791 l 1
 302 791 l 1
 302 0 l 1
 262 0 l 1
 202 0 l 1
 162 0 l 1
 162 1550 l 1
EndSplineSet
EndChar

StartChar: I
Encoding: 73 73 44
Width: 504
Flags: W
HStem: 0 145<41 178 314 455 41 178> 1415 135<41 178 41 455 314 455 314 314>
VStem: 41 413 178 136<145 1415 145 1415>
LayerCount: 2
Fore
SplineSet
41 1550 m 1xe0
 455 1550 l 1
 455 1515 l 1
 455 1415 l 1xe0
 314 1415 l 1
 314 145 l 1xd0
 455 145 l 1
 455 100 l 1
 455 0 l 1
 41 0 l 1
 41 45 l 1
 41 145 l 1xe0
 178 145 l 1
 178 1415 l 1xd0
 41 1415 l 1
 41 1450 l 1
 41 1550 l 1xe0
EndSplineSet
EndChar

StartChar: J
Encoding: 74 74 45
Width: 1112
Flags: MW
HStem: -20 145
VStem: 807 136<544 546 546 1550>
LayerCount: 2
Fore
SplineSet
807 1550 m 1
 843 1550 l 1
 907 1550 l 1
 943 1550 l 1
 943 545 l 1
 943 545 943 546 943 546 c 1
 943 544 l 1
 943 545 l 1
 952 310 875 163 767 82 c 0
 659 0 530 -16 438 -20 c 1
 437 -20 l 1
 436 -20 l 2
 346 -20 264 -1 204 18 c 0
 173 27 148 36 130 43 c 0
 122 46 114 49 110 51 c 1
 110 51 110 51 110 51 c 1
 112 51 114 51 118 51 c 1
 118 104 l 1
 114 105 110 107 107 108 c 1
 110 108 113 108 118 108 c 1
 118 151 l 1
 118 208 l 1
 138 208 134 205 136 205 c 0
 137 204 138 204 140 203 c 0
 142 202 144 201 147 200 c 0
 153 198 160 194 169 191 c 0
 187 183 213 173 243 163 c 0
 302 143 379 124 446 125 c 0
 544 127 634 148 697 203 c 0
 761 258 807 350 807 519 c 2
 807 1550 l 1
102 111 m 2
 102 111 102 110 102 110 c 1
 102 110 102 110 102 110 c 1
 101 111 101 111 102 111 c 2
EndSplineSet
EndChar

StartChar: K
Encoding: 75 75 46
Width: 1224
Flags: MW
HStem: 0 21G<165 202 165 165 202 265 265 302 956 998 956 956 1005 1056 1005 1005 1056 1105>
VStem: 165 138
LayerCount: 2
Fore
SplineSet
1016 1582 m 1
 1016 1582 1016 1582 1015 1581 c 0
 1015 1580 1014 1580 1013 1577 c 0
 1012 1577 1012 1577 1011 1577 c 1
 1013 1579 1015 1580 1015 1581 c 0
 1016 1582 1016 1582 1016 1582 c 1
967 1581 m 1
 967 1581 967 1581 967 1580 c 1
 966 1580 966 1579 965 1578 c 0
 964 1577 963 1576 962 1573 c 0
 961 1570 956 1568 956 1550 c 1
 986 1550 l 1
 994 1559 1001 1566 1006 1572 c 1
 1005 1568 1004 1562 1004 1550 c 1
 1056 1550 l 1
 1104 1550 l 1
 1104 1516 1098 1524 1096 1522 c 0
 1095 1520 1094 1519 1094 1519 c 2
 1092 1517 1092 1517 1091 1516 c 0
 1090 1515 1090 1514 1089 1513 c 0
 1087 1511 1084 1509 1081 1505 c 0
 1075 1499 1066 1489 1055 1478 c 0
 1032 1454 999 1420 960 1380 c 0
 882 1299 777 1192 672 1085 c 0
 633 1045 594 1005 556 966 c 1
 582 922 692 732 817 516 c 0
 887 395 958 273 1010 181 c 0
 1037 136 1059 97 1074 69 c 0
 1082 56 1088 45 1092 36 c 0
 1095 32 1096 29 1098 26 c 0
 1099 24 1099 23 1100 21 c 0
 1101 20 1101 19 1102 17 c 0
 1103 14 1105 14 1105 0 c 1
 1056 0 l 1
 1005 0 l 1
 1005 -14 1007 -14 1007 -16 c 0
 1008 -18 1008 -18 1008 -19 c 1
 1009 -20 1009 -19 1008 -19 c 1
 1008 -17 1006 -15 1004 -11 c 0
 1003 -8 1001 -4 998 0 c 1
 956 0 l 1
 956 -12 958 -12 958 -13 c 0
 959 -15 959 -15 958 -14 c 0
 958 -13 957 -10 955 -7 c 0
 951 1 946 12 938 26 c 0
 924 54 903 93 877 139 c 0
 827 232 759 354 691 475 c 0
 602 634 516 785 466 874 c 1
 437 845 409 816 384 791 c 0
 352 759 324 731 302 709 c 1
 302 0 l 1
 265 0 l 1
 202 0 l 1
 165 0 l 1
 165 1550 l 1
 202 1550 l 1
 265 1550 l 1
 302 1550 l 1
 302 886 l 1
 314 898 321 905 334 918 c 0
 405 992 499 1090 593 1188 c 0
 687 1287 782 1385 852 1459 c 0
 888 1496 917 1527 938 1549 c 0
 948 1560 956 1568 961 1574 c 0
 964 1577 966 1579 967 1580 c 2
 967 1580 967 1581 967 1581 c 1
EndSplineSet
EndChar

StartChar: L
Encoding: 76 76 47
Width: 1104
Flags: MW
HStem: 0 145<302 945 302 945 162 945>
VStem: 162 140<145 1550 145 1550 145 1550>
LayerCount: 2
Fore
SplineSet
162 1550 m 1
 202 1550 l 1
 262 1550 l 1
 302 1550 l 1
 302 145 l 1
 945 145 l 1
 945 100 l 1
 945 45 l 1
 945 0 l 1
 162 0 l 1
 162 1550 l 1
EndSplineSet
EndChar

StartChar: M
Encoding: 77 77 48
Width: 1520
Flags: MW
HStem: 0 21G<162 202 162 162 202 262 262 302 1187 1227 1187 1187 1227 1287 1287 1327>
VStem: 162 140<0 1365 0 1550> 1187 140<0 1365 1365 1365>
LayerCount: 2
Fore
SplineSet
162 1550 m 1
 376 1550 l 1
 745 578 l 1
 1113 1550 l 1
 1327 1550 l 1
 1327 0 l 1
 1287 0 l 1
 1227 0 l 1
 1187 0 l 1
 1187 1365 l 1
 806 448 l 1
 802 448 l 1
 802 448 l 1
 688 447 l 1
 688 448 l 1
 683 448 l 1
 302 1365 l 1
 302 0 l 1
 262 0 l 1
 202 0 l 1
 162 0 l 1
 162 1550 l 1
EndSplineSet
EndChar

StartChar: N
Encoding: 78 78 49
Width: 1312
Flags: MW
HStem: 0 21G<162 202 162 162 202 262 262 302 917 1145 917 917>
VStem: 162 140<0 1386 0 1550> 1004 141<150 1550 0 1550>
LayerCount: 2
Fore
SplineSet
162 1550 m 1
 377 1550 l 1
 686 813 l 1
 1001 150 l 1
 1004 150 l 1
 1004 1550 l 1
 1045 1550 l 1
 1104 1550 l 1
 1145 1550 l 1
 1145 0 l 1
 917 0 l 1
 594 772 l 1
 302 1386 l 1
 302 0 l 1
 262 0 l 1
 202 0 l 1
 162 0 l 1
 162 1550 l 1
EndSplineSet
EndChar

StartChar: O
Encoding: 79 79 50
Width: 1448
Flags: MW
HStem: -16 138<711 720 711 712.5> 1405 147<677 764 764 800>
VStem: 130 141<662.5 851 662.5 875.5> 1169 142<668 851.5>
LayerCount: 2
Fore
SplineSet
677 1552 m 2
 764 1552 l 2
 934 1552 1075 1457 1168 1314 c 0
 1261 1171 1311 979 1311 772 c 0
 1311 545 1261 350 1161 209 c 0
 1061 68 908 -16 720 -16 c 0
 717 -16 714 -16 711 -16 c 0
 526 -14 375 72 277 213 c 0
 179 354 130 547 130 772 c 0
 130 979 180 1171 273 1314 c 0
 366 1457 507 1552 677 1552 c 2
721 1405 m 0
 563 1405 457 1334 383 1218 c 0
 309 1102 271 938 271 764 c 0
 271 561 313 398 389 289 c 0
 464 180 570 122 720 122 c 0
 733 122 746 123 758 123 c 0
 894 134 991 196 1061 304 c 0
 1130 413 1169 571 1169 765 c 0
 1169 938 1131 1102 1058 1218 c 0
 984 1334 879 1405 721 1405 c 0
EndSplineSet
EndChar

StartChar: P
Encoding: 80 80 51
Width: 1264
Flags: MW
HStem: 0 21G<162 202 162 162 202 262 262 302> 770 120<302 623 302 635> 1415 138<302 302 302 719>
VStem: 162 140<0 770 0 890 890 1415> 992 153<1180 1180 1180 1181 1181 1207>
LayerCount: 2
Fore
SplineSet
162 1553 m 1
 721 1553 l 2
 859 1553 967 1514 1040 1443 c 0
 1112 1373 1145 1274 1145 1167 c 0
 1145 1016 1071 908 969 848 c 0
 868 788 742 770 623 770 c 2
 302 770 l 1
 302 0 l 1
 262 0 l 1
 202 0 l 1
 162 0 l 1
 162 1553 l 1
302 1415 m 1
 302 890 l 1
 635 890 l 1
 635 890 l 1
 722 890 816 911 884 956 c 0
 951 1001 994 1067 992 1180 c 1
 992 1180 l 1
 992 1181 l 2
 992 1233 972 1292 929 1337 c 0
 887 1382 821 1415 719 1415 c 2
 302 1415 l 1
EndSplineSet
EndChar

StartChar: Q
Encoding: 81 81 52
Width: 1448
Flags: MW
HStem: -300 128<1143.5 1205 1143.5 1205> -16 139 1405 147<677 764 764 800>
VStem: 130 141<662.5 851 662.5 875.5> 670 100<359 360 360 371 369 371> 1169 142<668 851.5>
LayerCount: 2
Fore
SplineSet
677 1552 m 2
 764 1552 l 2
 934 1552 1075 1457 1168 1314 c 0
 1261 1171 1311 979 1311 772 c 0
 1311 545 1261 350 1161 209 c 0
 1085 102 979 28 850 -2 c 1
 865 -27 882 -49 900 -67 c 0
 977 -144 1082 -172 1205 -172 c 1
 1205 -272 l 1
 1205 -300 l 1
 1065 -300 927 -258 828 -150 c 0
 794 -113 764 -68 741 -16 c 1
 734 -16 727 -16 720 -16 c 0
 717 -16 714 -16 711 -16 c 0
 526 -14 375 72 277 213 c 0
 179 354 130 547 130 772 c 0
 130 979 180 1171 273 1314 c 0
 366 1457 507 1552 677 1552 c 2
721 1405 m 0
 563 1405 457 1334 383 1218 c 0
 309 1102 271 938 271 764 c 0
 271 561 313 398 389 289 c 0
 460 187 558 129 695 123 c 1
 680 189 672 264 671 348 c 0
 670 352 670 356 670 359 c 0
 670 363 670 367 670 371 c 1
 770 371 l 1
 770 367 770 364 770 360 c 1
 770 360 l 1
 770 357 770 353 771 350 c 0
 771 348 771 347 771 346 c 0
 771 344 771 342 771 339 c 1
 771 339 771 339 771 339 c 1
 773 256 782 186 797 128 c 1
 913 146 998 206 1061 304 c 0
 1130 413 1169 571 1169 765 c 0
 1169 938 1131 1102 1058 1218 c 0
 984 1334 879 1405 721 1405 c 0
EndSplineSet
EndChar

StartChar: R
Encoding: 82 82 53
Width: 1280
Flags: W
HStem: 0 21G<162 202 162 162 202 262 262 302 1012 1064 1012 1012 1071 1112 1071 1071 1112 1171 1112 1112> 770 120<302 585 302 607> 1415 138<302 302 302 719>
VStem: 162 140<0 770 0 890 890 1415> 992 152 1012 1
LayerCount: 2
Fore
SplineSet
162 1553 m 1xf4
 721 1553 l 2
 859 1553 967 1514 1040 1443 c 0
 1112 1373 1145 1274 1145 1167 c 0xf8
 1145 1016 1071 908 969 848 c 0
 895 804 808 783 720 774 c 1
 765 698 841 572 920 440 c 0
 981 338 1042 236 1088 158 c 0
 1110 119 1129 87 1143 63 c 0
 1150 52 1155 42 1159 35 c 0
 1161 32 1162 29 1164 26 c 0
 1165 24 1165 23 1166 21 c 0
 1167 20 1167 19 1168 16 c 0
 1169 14 1171 12 1171 0 c 1
 1112 0 l 1
 1112 0 1112 0 1112 0 c 1
 1071 0 l 1
 1071 -12 1072 -13 1073 -15 c 0
 1074 -17 1074 -18 1074 -18 c 2
 1075 -19 1075 -19 1074 -19 c 1
 1074 -18 1073 -16 1071 -13 c 0
 1069 -10 1067 -5 1064 0 c 1
 1012 0 l 1
 1012 -8 1013 -11 1013 -12 c 1
 1013 -11 1012 -10 1012 -9 c 0
 1009 -3 1004 6 998 18 c 0
 986 42 968 75 947 115 c 0
 904 194 846 299 789 403 c 0
 706 553 625 699 585 770 c 1
 302 770 l 1
 302 0 l 1
 262 0 l 1
 202 0 l 1
 162 0 l 1
 162 1553 l 1xf4
1013 -12 m 1xf4
 1014 -13 1014 -13 1014 -13 c 1
 1014 -13 1014 -13 1013 -12 c 1xf4
1014 -13 m 1
 1014 -14 1015 -15 1015 -15 c 2
 1015 -16 1015 -16 1014 -14 c 2
 1014 -14 1014 -14 1014 -13 c 1
302 1415 m 1
 302 890 l 1
 607 890 l 1
 635 890 l 1
 635 890 l 1
 722 890 816 911 884 956 c 0
 951 1001 994 1067 992 1180 c 1xf8
 992 1180 l 1
 992 1181 l 2
 992 1233 972 1292 929 1337 c 0
 887 1382 821 1415 719 1415 c 2
 302 1415 l 1
EndSplineSet
EndChar

StartChar: S
Encoding: 83 83 54
Width: 1232
Flags: W
HStem: -20 145<636 637 637 638 636 662.5> 1420 130<528 593>
VStem: 134 139<1166 1167 1167 1228.5 1095.5 1238> 934 163<1096 1096> 953 145
LayerCount: 2
Fore
SplineSet
644 1550 m 2xe8
 871 1550 1095 1365 1097 1096 c 1
 997 1096 l 1
 997 1096 997 1096 997 1096 c 1
 934 1096 l 1xf0
 934 1168 909 1249 856 1310 c 0
 803 1372 721 1418 593 1420 c 0
 411 1420 273 1306 273 1151 c 0
 273 1040 308 980 362 935 c 0
 415 890 491 863 569 840 c 2
 688 806 l 2
 707 801 726 795 743 789 c 0
 828 766 913 734 980 674 c 0
 1051 610 1097 513 1097 381 c 0
 1097 239 1041 131 947 67 c 0
 854 3 731 -20 594 -20 c 0
 435 -20 314 44 236 134 c 0
 158 224 121 337 121 440 c 1
 177 440 l 1
 221 440 l 1
 277 440 l 1
 277 405 294 320 346 252 c 0
 398 183 482 125 636 125 c 2
 637 125 l 1
 638 125 l 2
 751 122 829 150 878 194 c 0
 928 237 953 298 953 374 c 1
 953 374 l 1
 953 375 l 2
 954 468 932 535 887 588 c 0
 850 631 793 667 714 694 c 0
 711 695 707 696 703 697 c 2
 703 697 702 697 702 697 c 1
 536 746 l 2
 443 770 346 797 268 859 c 0
 190 921 138 1020 134 1166 c 1
 134 1166 134 1167 134 1167 c 2
 134 1309 205 1411 288 1469 c 0
 371 1528 463 1550 528 1550 c 2
 644 1550 l 2xe8
EndSplineSet
EndChar

StartChar: T
Encoding: 84 84 55
Width: 1208
Flags: MW
HStem: 0 21G<530 570 530 530 570 630 630 670> 1415 135<80 530 80 1120 670 1120 670 670>
VStem: 530 140<0 1415 0 1415>
LayerCount: 2
Fore
SplineSet
80 1550 m 1
 1120 1550 l 1
 1120 1515 l 1
 1120 1415 l 1
 670 1415 l 1
 670 0 l 1
 630 0 l 1
 570 0 l 1
 530 0 l 1
 530 1415 l 1
 80 1415 l 1
 80 1450 l 1
 80 1550 l 1
EndSplineSet
EndChar

StartChar: U
Encoding: 85 85 56
Width: 1312
Flags: MW
HStem: -20 145<613.5 704.5 613.5 704.5>
VStem: 169 136<544 1550> 1013 136<539 544 544 1550>
LayerCount: 2
Fore
SplineSet
169 1550 m 1
 205 1550 l 1
 269 1550 l 1
 305 1550 l 1
 305 539 l 2
 305 368 352 269 416 209 c 0
 481 148 568 125 659 125 c 0
 750 125 837 148 901 208 c 0
 966 268 1013 367 1013 539 c 2
 1013 1550 l 1
 1049 1550 l 1
 1113 1550 l 1
 1149 1550 l 1
 1149 544 l 2
 1149 308 1076 161 975 78 c 0
 873 -4 750 -20 659 -20 c 0
 567 -20 444 -3 343 80 c 0
 242 163 169 310 169 544 c 2
 169 1550 l 1
EndSplineSet
EndChar

StartChar: V
Encoding: 86 86 57
Width: 1296
Flags: W
HStem: 0 100<558 658 558 658 644 658 644 733 569 658 644 744 644 733>
VStem: 175 0<1550 1550 1557 1557> 175 2<1550 1557> 235 0<1550 1550 1555 1555 1556 1556> 1066 0<1550 1550 1555 1555> 1125 2 1126 0<1550 1550>
LayerCount: 2
Fore
SplineSet
175 1557 m 1xda
 175 1555 176 1553 177 1550 c 2
 235 1550 l 1
 235 1554 235 1555 235 1556 c 1
 235 1555 235 1555 235 1555 c 2
 236 1552 237 1548 238 1542 c 0
 241 1530 246 1513 251 1492 c 0
 263 1450 279 1390 299 1319 c 0
 339 1178 391 991 444 805 c 0
 541 462 629 152 644 100 c 1
 658 100 l 1
 672 152 761 462 858 805 c 0
 910 991 963 1178 1002 1319 c 0
 1022 1390 1039 1450 1050 1492 c 0
 1056 1513 1060 1530 1063 1542 c 0
 1065 1548 1066 1552 1066 1555 c 1
 1067 1555 1067 1555 1067 1556 c 1
 1067 1555 1066 1554 1066 1550 c 1
 1125 1550 l 2xbc
 1126 1553 1126 1555 1127 1557 c 1
 1127 1556 1126 1555 1126 1550 c 1
 1166 1550 l 1
 1226 1550 l 1
 1226 1536 1225 1539 1225 1537 c 0
 1224 1535 1224 1533 1223 1531 c 0
 1222 1527 1221 1522 1219 1516 c 0
 1216 1504 1211 1487 1204 1466 c 0
 1191 1423 1173 1364 1151 1293 c 0
 1107 1152 1048 965 990 778 c 0
 872 406 755 35 755 35 c 1
 744 0 l 1
 733 0 l 1
 733 0 l 1
 569 0 l 1
 569 0 l 1
 558 0 l 1
 547 35 l 1
 547 35 429 406 312 778 c 0
 253 965 195 1152 151 1293 c 0
 129 1364 110 1423 97 1466 c 0
 91 1487 86 1504 82 1516 c 0
 81 1522 79 1527 78 1531 c 0
 78 1533 77 1535 77 1537 c 0
 76 1539 75 1536 75 1550 c 1
 135 1550 l 1
 175 1550 l 1
 175 1555 175 1556 175 1557 c 1xda
EndSplineSet
EndChar

StartChar: W
Encoding: 87 87 58
Width: 1520
Flags: MW
HStem: 1533 20G<625 671 671 834 834 881 881 881>
VStem: 244 2 1261 159<1546 1555.5>
LayerCount: 2
Fore
SplineSet
244 1554 m 2
 245 1553 245 1543 246 1534 c 0
 248 1521 250 1504 253 1482 c 0
 259 1439 267 1379 276 1308 c 0
 296 1166 322 979 348 794 c 0
 397 447 440 147 446 104 c 1
 625 1553 l 1
 671 1553 l 1
 834 1553 l 1
 881 1553 l 1
 1059 104 l 1
 1065 147 1108 447 1157 794 c 0
 1183 979 1209 1166 1229 1308 c 0
 1239 1379 1247 1439 1253 1482 c 0
 1255 1504 1258 1521 1259 1534 c 0
 1261 1546 1261 1561 1261 1550 c 1
 1315 1550 l 1
 1315 1553 1315 1555 1315 1550 c 1
 1367 1550 l 1
 1420 1550 l 1
 1420 1542 1420 1541 1419 1536 c 0
 1419 1532 1418 1527 1417 1520 c 0
 1415 1507 1413 1489 1410 1468 c 0
 1403 1424 1394 1364 1383 1292 c 0
 1360 1150 1331 964 1301 778 c 0
 1241 408 1182 42 1182 42 c 1
 1175 -3 l 1
 1151 -3 l 1
 966 -3 l 1
 942 -3 l 1
 753 1372 l 1
 563 -3 l 1
 539 -3 l 1
 355 -3 l 1
 331 -3 l 1
 324 42 l 1
 324 42 264 408 205 778 c 0
 175 964 145 1150 123 1293 c 0
 112 1364 102 1424 96 1468 c 0
 93 1489 90 1507 88 1520 c 0
 87 1527 87 1532 86 1536 c 0
 86 1541 85 1542 85 1550 c 1
 139 1550 l 1
 190 1550 l 2
 190 1553 190 1554 190 1553 c 0
 191 1552 191 1551 191 1550 c 2
 244 1550 l 2
 244 1553 244 1554 244 1554 c 2
EndSplineSet
EndChar

StartChar: X
Encoding: 88 88 59
Width: 1232
Flags: W
VStem: 196 5 251 5 255 5 970 5 974 5 1028 5
LayerCount: 2
Fore
SplineSet
193 1570 m 2x84
 194 1570 194 1569 194 1568 c 0
 195 1567 195 1567 195 1567 c 1
 195 1567 195 1568 194 1568 c 1
 194 1569 193 1570 193 1570 c 2x84
1037 1570 m 2
 1037 1570 1036 1569 1036 1568 c 1
 1035 1568 1035 1567 1035 1567 c 1
 1035 1567 1035 1567 1036 1568 c 0
 1036 1569 1036 1570 1037 1570 c 2
1034 1565 m 1
 1033 1563 1032 1559 1032 1550 c 1
 1074 1550 l 1
 1132 1550 l 1
 1132 1532 1129 1533 1129 1531 c 0
 1128 1529 1127 1528 1127 1527 c 0
 1126 1524 1125 1523 1124 1521 c 0
 1121 1517 1119 1512 1115 1506 c 0
 1108 1493 1098 1476 1085 1455 c 0
 1059 1412 1023 1351 979 1279 c 0
 895 1141 785 959 674 776 c 1
 785 593 895 412 979 273 c 0
 1023 201 1059 140 1085 96 c 0
 1098 75 1108 57 1115 45 c 0
 1119 38 1122 33 1124 29 c 0
 1125 27 1126 25 1127 23 c 0
 1128 21 1128 20 1129 18 c 0
 1130 15 1132 15 1132 0 c 1
 1078 0 l 1
 1078 0 l 1
 1032 0 l 1
 1032 -14 1034 -15 1035 -16 c 0
 1036 -18 1036 -19 1036 -19 c 1
 1036 -19 1036 -19 1035 -17 c 0
 1034 -15 1032 -10 1028 -5 c 0
 1027 -3 1026 -2 1026 0 c 2
 978 0 l 1
 978 -8 979 -12 979 -13 c 1
 978 -11 976 -8 974 -3 c 0
 968 8 960 25 949 46 c 0
 926 89 894 149 856 221 c 0
 789 345 703 505 615 668 c 1
 527 505 441 345 374 221 c 0
 336 149 304 89 281 46 c 0
 270 25 261 8 256 -3 c 0
 254 -8 252 -11 251 -13 c 1xcc
 251 -12 252 -8 252 0 c 1
 204 0 l 2
 203 -2 203 -3 202 -5 c 0
 198 -10 196 -15 195 -17 c 0
 194 -19 194 -19 194 -19 c 1
 194 -19 194 -18 195 -16 c 0
 196 -15 198 -14 198 0 c 1
 152 0 l 1
 152 0 l 1
 98 0 l 1
 98 15 100 15 101 18 c 0
 102 20 102 21 103 23 c 0
 104 25 105 27 106 29 c 0
 108 33 111 38 115 45 c 0
 122 57 132 75 145 96 c 0
 171 140 207 201 251 273 c 0
 335 412 445 593 556 776 c 1
 445 959 335 1141 251 1279 c 0
 207 1351 171 1412 145 1455 c 0
 132 1476 122 1493 115 1506 c 0
 111 1512 109 1517 106 1521 c 0
 105 1523 104 1524 103 1527 c 0
 103 1528 102 1529 101 1531 c 0
 101 1533 98 1532 98 1550 c 1
 156 1550 l 1
 198 1550 l 1
 198 1559 197 1563 196 1565 c 1
 198 1562 199 1560 202 1556 c 0
 203 1554 204 1552 205 1550 c 2
 256 1550 l 1
 256 1556 256 1559 255 1561 c 1
 257 1558 258 1555 260 1550 c 0
 266 1538 275 1521 286 1499 c 0
 308 1455 340 1394 379 1322 c 0
 444 1198 528 1041 615 880 c 1
 702 1041 786 1198 851 1322 c 0
 890 1394 922 1455 944 1499 c 0
 955 1521 964 1538 970 1550 c 0
 972 1555 973 1558 975 1561 c 1xb4
 974 1559 974 1556 974 1550 c 1
 1025 1550 l 2
 1026 1552 1027 1554 1028 1556 c 0
 1031 1560 1032 1562 1034 1565 c 1
979 -13 m 1
 979 -14 980 -14 980 -14 c 1
 980 -14 979 -14 979 -13 c 1
980 -14 m 1
 980 -15 980 -15 981 -16 c 0
 981 -17 982 -18 981 -18 c 2
 981 -18 981 -17 981 -16 c 0
 980 -15 980 -15 980 -14 c 1
251 -13 m 1
 250 -14 250 -14 250 -14 c 1
 250 -14 250 -14 251 -13 c 1
250 -14 m 1
 250 -15 250 -15 249 -16 c 0
 249 -17 249 -18 249 -18 c 2
 248 -18 249 -17 249 -16 c 0
 250 -15 250 -15 250 -14 c 1
EndSplineSet
EndChar

StartChar: Y
Encoding: 89 89 60
Width: 1208
Flags: W
HStem: 0 21G<536 636 536 536 636 674>
VStem: 202 2 254 0<1557 1557> 254 2 537 138 954 2 955 0<1550 1550> 1006 1
LayerCount: 2
Fore
SplineSet
1008 1558 m 1xcb
 1008 1556 1008 1554 1008 1550 c 1
 1055 1550 l 1
 1108 1550 l 1
 1108 1535 1105 1533 1104 1529 c 0
 1102 1525 1101 1521 1099 1516 c 0
 1095 1507 1090 1496 1084 1483 c 0
 1072 1457 1055 1423 1034 1383 c 0
 993 1303 939 1199 885 1097 c 0
 785 909 690 732 674 703 c 1
 674 0 l 1
 636 0 l 1
 536 0 l 1
 536 702 l 1
 521 730 425 907 325 1096 c 0
 271 1199 217 1302 176 1382 c 0
 156 1423 138 1457 126 1483 c 0
 120 1496 115 1507 111 1516 c 0
 110 1521 108 1525 107 1529 c 0
 105 1534 103 1536 103 1550 c 1
 155 1550 l 1
 203 1550 l 1
 203 1554 203 1556 202 1558 c 1
 203 1557 203 1556 204 1554 c 0
 204 1553 205 1551 206 1550 c 2
 255 1550 l 1
 255 1555 255 1556 254 1557 c 1xeb
 255 1556 255 1555 256 1552 c 0
 258 1546 262 1536 267 1524 c 0
 278 1499 292 1466 310 1426 c 0
 346 1347 393 1243 441 1141 c 0
 515 982 576 854 605 792 c 1
 634 854 695 982 769 1141 c 0
 817 1243 865 1346 900 1426 c 0
 918 1465 933 1499 943 1524 c 0
 948 1536 952 1546 954 1552 c 0xdd
 955 1555 956 1556 956 1557 c 1
 956 1556 955 1555 955 1550 c 1
 1005 1550 l 2
 1005 1552 1006 1553 1006 1554 c 0
 1007 1556 1007 1557 1008 1558 c 1xcb
EndSplineSet
EndChar

StartChar: Z
Encoding: 90 90 61
Width: 1160
Flags: MW
HStem: 0 140<308 1000 308 1000> 1415 135<157 846 156 1004 157 1004>
LayerCount: 2
Fore
SplineSet
157 1550 m 1
 1004 1550 l 1
 1004 1415 l 1
 596 705 l 1
 308 140 l 1
 1000 140 l 1
 1000 100 l 1
 1000 100 l 1
 1000 0 l 1
 155 0 l 1
 155 138 l 1
 508 753 l 1
 846 1415 l 1
 156 1415 l 1
 156 1515 l 1
 157 1515 l 1
 157 1550 l 1
EndSplineSet
EndChar

StartChar: bracketleft
Encoding: 91 91 62
Width: 688
Flags: MW
HStem: -185 100<250 590 250 590> 1560 100<250 590 250 250>
VStem: 110 140<-85 1560 -85 1660 -85 1660>
LayerCount: 2
Fore
SplineSet
110 1660 m 1
 150 1660 l 1
 590 1660 l 1
 590 1560 l 1
 250 1560 l 1
 250 -85 l 1
 590 -85 l 1
 590 -185 l 1
 150 -185 l 1
 110 -185 l 1
 110 1660 l 1
EndSplineSet
EndChar

StartChar: backslash
Encoding: 92 92 63
Width: 1032
Flags: W
LayerCount: 2
Fore
SplineSet
104 1608 m 1
 248 1672 l 1
 920 -136 l 1
 784 -200 l 1
 104 1608 l 1
EndSplineSet
EndChar

StartChar: bracketright
Encoding: 93 93 64
Width: 688
Flags: MW
HStem: -185 100<110 450 110 550 110 450> 1560 100<110 450 110 550>
VStem: 450 140<-85 1560 1560 1560>
LayerCount: 2
Fore
SplineSet
110 1660 m 1
 550 1660 l 1
 590 1660 l 1
 590 -185 l 1
 550 -185 l 1
 110 -185 l 1
 110 -85 l 1
 450 -85 l 1
 450 1560 l 1
 110 1560 l 1
 110 1660 l 1
EndSplineSet
EndChar

StartChar: asciicircum
Encoding: 94 94 65
Width: 848
Flags: W
LayerCount: 2
Fore
SplineSet
104 1216 m 1
 104 1408 l 1
 424 1704 l 1
 752 1392 l 1
 752 1200 l 1
 424 1512 l 1
 104 1216 l 1
EndSplineSet
EndChar

StartChar: underscore
Encoding: 95 95 66
Width: 624
Flags: W
LayerCount: 2
Fore
SplineSet
0 -144 m 1
 624 -144 l 1
 624 -288 l 1
 0 -288 l 1
 0 -144 l 1
EndSplineSet
EndChar

StartChar: grave
Encoding: 96 96 67
Width: 848
Flags: W
LayerCount: 2
Fore
SplineSet
232 1600 m 1
 432 1600 l 1
 584 1264 l 1
 432 1264 l 1
 232 1600 l 1
EndSplineSet
EndChar

StartChar: a
Encoding: 97 97 68
Width: 976
Flags: W
HStem: -19 134<406.5 462 406.5 486> 635 104<678 678> 1045 121<439.5 518>
VStem: 116 146<319 330 330 379.5> 131 150<840 856 840 937> 678 139<245 635 635 635 739 836 836 845 0 880> 717 100<-5.5 845>
LayerCount: 2
Fore
SplineSet
431 1166 m 2xec
 543 1166 l 2
 620 1166 692 1138 741 1081 c 0
 791 1024 817 943 817 845 c 2xec
 817 0 l 1
 767 0 l 1
 717 -1 l 1
 717 -10 716 7 713 22 c 0
 711 37 707 58 703 80 c 0
 701 90 699 102 697 113 c 1
 697 113 696 113 696 112 c 0
 629 50 539 -19 433 -19 c 0
 295 -19 208 56 165 134 c 0
 123 212 117 290 116 319 c 0xf2
 116 326 116 330 116 330 c 2
 116 429 149 509 201 568 c 0
 253 627 322 664 393 689 c 0
 492 724 597 736 678 739 c 1
 678 836 l 2
 678 924 656 973 624 1002 c 0
 593 1031 548 1045 488 1045 c 0
 391 1045 347 1011 318 969 c 0
 290 927 281 872 281 840 c 1
 231 840 l 1
 181 840 l 1
 131 840 l 1
 131 1034 280 1166 431 1166 c 2xec
678 635 m 1
 615 629 523 611 445 574 c 0
 341 525 262 452 262 321 c 0xf4
 262 276 276 221 304 182 c 0
 332 142 371 115 442 115 c 0
 482 115 550 148 602 185 c 0
 635 208 662 231 678 245 c 1
 678 635 l 1
EndSplineSet
EndChar

StartChar: b
Encoding: 98 98 69
Width: 1016
Flags: MW
HStem: -20 135<493 519 469 605.5> 1045 120<515 515 515 543 543 544 543 543 544 550>
VStem: 169 138<207 209 209 936 1064 1324 1324 1625> 743 148<528.5 681 518.5 709>
LayerCount: 2
Fore
SplineSet
169 1625 m 1
 207 1625 l 1
 269 1625 l 1
 307 1625 l 1
 307 1324 l 1
 307 1064 l 1
 311 1066 315 1069 319 1071 c 0
 327 1077 336 1083 344 1089 c 0
 373 1109 403 1127 431 1141 c 0
 458 1155 484 1165 515 1165 c 1
 515 1165 l 1
 610 1165 l 1
 610 1165 l 1
 712 1165 792 1094 833 994 c 0
 875 894 891 761 891 601 c 0
 891 436 867 287 814 174 c 0
 760 61 666 -20 545 -20 c 0
 441 -20 352 36 288 89 c 1
 286 81 284 72 282 63 c 0
 278 45 275 28 272 15 c 0
 271 9 270 3 269 0 c 1
 269 -4 269 -10 269 0 c 1
 169 0 l 1
 169 209 l 1
 169 1324 l 1
 169 1625 l 1
550 1045 m 0
 548 1045 546 1045 544 1045 c 2
 543 1045 l 1
 543 1045 l 1
 454 1045 347 968 307 936 c 1
 307 936 307 936 307 936 c 1
 307 207 l 2
 309 205 311 203 313 201 c 0
 345 172 419 115 519 115 c 0
 604 116 651 156 688 241 c 0
 726 327 743 455 743 602 c 0
 743 816 715 931 681 985 c 0
 647 1037 612 1045 550 1045 c 0
EndSplineSet
EndChar

StartChar: c
Encoding: 99 99 70
Width: 1024
Flags: MW
HStem: -20 120<534 567.5 484 611.5> 1045 120<491 575 575 576.5>
VStem: 123 140<509 653.5>
LayerCount: 2
Fore
SplineSet
491 1165 m 2
 575 1165 l 2
 685 1165 776 1118 834 1045 c 0
 892 973 919 877 919 777 c 1
 871 777 l 1
 871 777 871 777 871 776 c 2
 771 776 l 1
 771 851 751 919 713 967 c 0
 674 1015 620 1045 533 1045 c 0
 442 1045 383 1010 336 934 c 0
 290 859 263 739 263 581 c 0
 263 437 286 312 331 228 c 0
 376 144 435 100 533 100 c 0
 602 100 659 130 702 183 c 0
 745 236 772 314 772 405 c 1
 872 405 l 1
 872 405 l 1
 920 405 l 1
 920 333 906 232 850 142 c 0
 793 53 689 -20 534 -20 c 0
 421 -22 314 35 240 136 c 0
 166 238 123 383 123 566 c 0
 123 741 155 886 217 992 c 0
 279 1098 377 1165 491 1165 c 2
EndSplineSet
EndChar

StartChar: d
Encoding: 100 100 71
Width: 1016
Flags: W
HStem: -20 135<499 548 450.5 551> 1046 121<451.5 518 518 543.5>
VStem: 117 140<509.5 662> 718 138<240 799 803 897 897 897 1070 1324 1324 1625> 756 100<0 209>
LayerCount: 2
Fore
SplineSet
718 1625 m 1xf0
 756 1625 l 1
 818 1625 l 1
 856 1625 l 1
 856 1324 l 1
 856 803 l 2
 857 801 857 800 857 799 c 2
 857 799 856 799 856 799 c 1
 856 209 l 1xf0
 856 0 l 1
 807 0 l 1
 756 0 l 2xe8
 757 -3 755 11 753 26 c 0
 750 42 747 62 743 83 c 0
 742 88 741 94 740 99 c 1
 683 38 603 -20 499 -20 c 0
 384 -22 283 42 217 147 c 0
 152 253 117 399 117 580 c 0
 117 744 141 885 192 989 c 0
 243 1094 328 1167 434 1167 c 2
 518 1167 l 2
 601 1167 667 1124 718 1070 c 1
 718 1324 l 1
 718 1625 l 1xf0
492 1046 m 0
 411 1046 362 1019 322 947 c 0
 281 875 257 754 257 581 c 0
 257 438 279 315 320 234 c 0
 361 154 411 115 490 115 c 0
 606 115 691 208 718 240 c 1
 718 897 l 1
 712 909 705 921 697 933 c 0
 663 979 595 1046 492 1046 c 0
EndSplineSet
EndChar

StartChar: e
Encoding: 101 101 72
Width: 1024
Flags: MW
HStem: -18 118<514 556> 540 100<264 762 263 862 264 264> 1045 120<475 514 514 514 514 514>
VStem: 130 135<451.5 522 522 523 447 533> 762 134<640 695 695 725 540 757.5>
LayerCount: 2
Fore
SplineSet
474 1165 m 1
 559 1165 l 2
 674 1165 763 1100 818 1015 c 0
 872 930 896 825 896 725 c 2
 896 540 l 1
 862 540 l 1
 264 540 l 1
 265 523 l 1
 265 522 l 2
 265 372 302 265 355 198 c 0
 408 131 476 100 552 100 c 0
 606 100 657 126 694 160 c 0
 731 194 749 240 749 248 c 1
 797 248 l 1
 797 248 797 248 797 248 c 1
 897 248 l 1
 897 222 889 199 876 172 c 0
 862 144 843 114 816 86 c 0
 761 29 674 -20 556 -18 c 0
 422 -18 310 38 238 136 c 0
 165 234 130 370 130 533 c 0
 129 569 128 633 128 633 c 1
 128 633 128 634 128 634 c 1
 128 634 128 634 128 634 c 1
 128 634 129 694 130 727 c 0
 130 837 162 943 220 1024 c 0
 279 1106 368 1163 474 1165 c 1
 474 1165 l 1
514 1045 m 1
 436 1045 378 1019 335 964 c 0
 291 909 263 821 263 696 c 2
 263 640 l 1
 762 640 l 1
 762 695 l 2
 762 820 736 909 694 964 c 0
 653 1019 597 1045 514 1045 c 1
 514 1045 l 1
 514 1045 l 1
EndSplineSet
EndChar

StartChar: f
Encoding: 102 102 73
Width: 624
Flags: MW
HStem: -1 21G<165 202 165 165 202 265 265 302> 1061 100<25 165 25 165 302 552 552 553> 1489 136<361 371 371 566>
VStem: 165 136
LayerCount: 2
Fore
SplineSet
361 1625 m 2
 566 1625 l 1
 566 1525 l 1
 566 1525 l 1
 566 1489 l 1
 371 1489 l 2
 335 1489 324 1482 316 1472 c 0
 309 1461 302 1438 302 1401 c 2
 302 1161 l 1
 552 1161 l 1
 553 1161 l 1
 553 1061 l 1
 552 1061 l 1
 302 1061 l 1
 302 -1 l 1
 265 -1 l 1
 202 -1 l 1
 165 -1 l 1
 165 1061 l 1
 25 1061 l 1
 25 1161 l 1
 165 1161 l 1
 165 1347 l 2
 165 1416 168 1479 196 1534 c 0
 224 1589 285 1625 361 1625 c 2
EndSplineSet
EndChar

StartChar: g
Encoding: 103 103 74
Width: 944
Flags: W
HStem: -278 145<368.5 427 427 428 428 429> 44 132<433 478> 1046 121<400 484 484 506.5>
VStem: 115 140<528 671.5 528 698> 647 136<115 1165 147 1165 320 928 928 928> 683 100<1162 1165>
LayerCount: 2
Fore
SplineSet
400 1167 m 2xf8
 484 1167 l 2
 564 1167 626 1128 671 1078 c 1
 678 1119 683 1159 683 1165 c 1
 783 1165 l 1
 783 162 l 1xf4
 790 -3 755 -115 686 -184 c 0
 617 -254 523 -275 429 -278 c 2
 428 -278 l 1
 427 -278 l 2
 258 -278 172 -262 172 -262 c 1
 189 -175 l 1
 201 -115 l 1
 201 -115 299 -133 438 -133 c 0
 514 -133 561 -114 594 -77 c 0
 626 -41 647 21 647 115 c 2
 647 147 l 1
 594 91 523 44 433 44 c 0
 321 42 230 99 181 198 c 0
 132 297 115 434 115 616 c 0
 115 780 131 910 173 1007 c 0
 216 1104 298 1167 400 1167 c 2xf8
440 1046 m 0
 360 1046 327 1020 297 947 c 0
 268 874 255 752 255 591 c 0
 255 465 264 353 292 280 c 0
 306 244 323 219 345 202 c 0
 366 186 392 176 432 176 c 0
 549 176 627 288 647 320 c 1
 647 928 l 1xf8
 631 957 573 1046 440 1046 c 0
EndSplineSet
EndChar

StartChar: h
Encoding: 104 104 75
Width: 1024
Flags: MW
HStem: 0 21G<165 265 165 165 265 302 718 754 718 718 754 854 754 754> 1045 120<521 521 521 556 556 579 579 587 587 590 592 601.5>
VStem: 165 138 718 136<0 798 798 828.5>
LayerCount: 2
Fore
SplineSet
165 1625 m 1
 265 1625 l 1
 302 1625 l 1
 302 1046 l 1
 360 1107 432 1165 521 1165 c 1
 521 1165 l 1
 521 1165 l 1
 521 1165 538 1165 556 1165 c 0
 564 1165 573 1165 579 1165 c 0
 583 1165 585 1165 587 1165 c 0
 589 1165 594 1165 590 1165 c 1
 703 1165 779 1107 815 1041 c 0
 851 975 854 905 854 863 c 2
 854 0 l 1
 754 0 l 1
 754 0 l 1
 718 0 l 1
 718 798 l 2
 718 859 713 927 692 972 c 0
 671 1017 643 1045 560 1045 c 0
 466 1045 393 992 348 948 c 0
 331 928 316 909 302 891 c 1
 302 0 l 1
 265 0 l 1
 165 0 l 1
 165 1625 l 1
EndSplineSet
EndChar

StartChar: i
Encoding: 105 105 76
Width: 432
Flags: MW
HStem: -1 21G<151 188 151 151 188 251 251 288> 1360 263
VStem: 151 138
LayerCount: 2
Fore
SplineSet
151 1624 m 1
 251 1624 l 1
 288 1624 l 1
 288 1360 l 1
 251 1360 l 1
 151 1360 l 1
 151 1624 l 1
151 1178 m 1
 188 1178 l 1
 251 1178 l 1
 288 1178 l 1
 288 -1 l 1
 251 -1 l 1
 188 -1 l 1
 151 -1 l 1
 151 1178 l 1
EndSplineSet
EndChar

StartChar: j
Encoding: 106 106 77
Width: 448
Flags: MW
HStem: -287 152<-10 35 35 47 -10 35> 1360 263
VStem: 154 136<-37 -23 -23 1165>
LayerCount: 2
Fore
SplineSet
155 1624 m 1
 255 1624 l 1
 290 1624 l 1
 290 1360 l 1
 255 1360 l 1
 155 1360 l 1
 155 1624 l 1
154 1165 m 1
 190 1165 l 1
 254 1165 l 1
 290 1165 l 1
 290 -23 l 2
 290 -119 268 -189 220 -233 c 0
 173 -277 109 -287 47 -287 c 2
 -10 -287 l 1
 -10 -187 l 1
 -10 -187 l 1
 -10 -135 l 1
 -10 -135 12 -135 35 -135 c 0
 47 -135 58 -135 67 -135 c 2
 77 -135 l 2
 79 -135 83 -135 83 -135 c 2
 82 -135 82 -135 82 -135 c 1
 82 -135 82 -135 81 -135 c 1
 81 -135 l 1
 81 -135 l 1
 81 -135 82 -135 82 -135 c 1
 82 -135 83 -135 83 -135 c 2
 118 -134 129 -125 138 -110 c 0
 148 -95 154 -68 154 -37 c 2
 154 1165 l 1
EndSplineSet
EndChar

StartChar: k
Encoding: 107 107 78
Width: 944
Flags: MW
HStem: 0 21G<165 202 165 165 202 265 265 302 710 754 710 710 759 810 759 759 810 859>
VStem: 165 138 710 1
LayerCount: 2
Fore
SplineSet
165 1625 m 1
 202 1625 l 1
 265 1625 l 1
 302 1625 l 1
 302 703 l 1
 346 757 400 824 456 893 c 0
 517 968 577 1043 623 1100 c 0
 645 1128 664 1152 677 1168 c 0
 683 1175 687 1180 690 1184 c 1
 689 1182 687 1177 687 1165 c 1
 721 1165 l 2
 721 1166 722 1167 723 1167 c 0
 730 1176 736 1184 740 1189 c 0
 742 1191 744 1193 745 1194 c 1
 745 1194 745 1194 745 1194 c 1
 745 1194 744 1193 743 1192 c 0
 743 1191 742 1190 741 1188 c 0
 740 1186 735 1188 735 1165 c 1
 787 1165 l 1
 835 1165 l 1
 835 1142 831 1144 830 1142 c 0
 829 1139 828 1138 827 1138 c 0
 826 1136 826 1135 825 1135 c 0
 824 1134 824 1133 823 1132 c 0
 822 1130 820 1128 818 1125 c 0
 814 1120 807 1113 800 1103 c 0
 784 1085 762 1058 735 1026 c 0
 682 963 611 879 540 795 c 0
 525 777 509 759 494 741 c 1
 513 703 585 562 667 400 c 0
 713 307 760 214 795 143 c 0
 813 108 827 78 838 57 c 0
 843 46 847 38 850 31 c 0
 851 28 853 25 854 22 c 0
 854 21 855 20 856 18 c 0
 856 15 859 19 859 0 c 1
 810 0 l 1
 759 0 l 1
 759 -6 759 -9 759 -11 c 1
 759 -11 759 -11 759 -11 c 1
 758 -8 756 -4 754 0 c 1
 710 0 l 1
 710 -4 710 -6 710 -8 c 1
 710 -7 710 -7 710 -6 c 0
 708 0 704 8 699 19 c 0
 690 40 676 70 660 105 c 0
 628 175 584 267 540 358 c 0
 489 466 439 568 406 637 c 1
 384 611 363 587 345 565 c 0
 329 547 315 530 302 516 c 1
 302 0 l 1
 265 0 l 1
 202 0 l 1
 165 0 l 1
 165 1625 l 1
690 1184 m 1
 690 1185 691 1186 691 1186 c 1
 691 1186 690 1185 690 1184 c 1
691 1186 m 1
 692 1187 692 1187 692 1188 c 0
 694 1190 695 1191 695 1192 c 1
 696 1192 696 1192 695 1191 c 2
 695 1191 694 1190 693 1188 c 0
 693 1187 692 1187 691 1186 c 1
761 -15 m 1
 761 -16 761 -16 761 -16 c 1
 761 -16 762 -17 761 -15 c 1
 761 -15 761 -15 761 -15 c 1
EndSplineSet
EndChar

StartChar: l
Encoding: 108 108 79
Width: 432
Flags: MW
HStem: 0 150<308.5 390 357 390 357 390>
VStem: 151 136<278 1625>
LayerCount: 2
Fore
SplineSet
151 1625 m 1
 187 1625 l 1
 251 1625 l 1
 287 1625 l 1
 287 224 l 2
 287 186 294 169 300 163 c 0
 305 157 318 150 357 150 c 2
 390 150 l 1
 390 100 l 1
 390 50 l 1
 390 0 l 1
 346 0 l 2
 271 0 209 36 182 91 c 0
 154 145 151 208 151 278 c 2
 151 1625 l 1
EndSplineSet
EndChar

StartChar: m
Encoding: 109 109 80
Width: 1504
Flags: MW
HStem: 0 21G<165 202 165 165 202 265 265 302 672 708 672 672 708 808 708 708 1205 1291 1205 1205 1291 1341> 1045 120<482 541 1017 1074.5>
VStem: 165 138 672 136<0 798 798 824.5> 1205 137<0 869 798 869>
LayerCount: 2
Fore
SplineSet
265 1171 m 1
 265 1172 265 1171 265 1169 c 1
 265 1170 265 1171 265 1171 c 1
 265 1171 265 1171 265 1171 c 1
265 1169 m 2
 265 1169 265 1168 265 1167 c 0
 266 1164 267 1159 268 1153 c 0
 270 1142 274 1126 278 1109 c 0
 279 1104 280 1098 281 1093 c 1
 332 1132 399 1165 482 1165 c 2
 541 1165 l 2
 654 1165 728 1106 765 1042 c 1
 816 1099 901 1165 1017 1165 c 2
 1076 1165 l 2
 1194 1165 1270 1099 1305 1031 c 0
 1340 963 1342 895 1342 869 c 1
 1342 869 l 1
 1341 0 l 1
 1291 0 l 1
 1205 0 l 1
 1205 798 l 2
 1205 851 1203 918 1180 965 c 0
 1158 1012 1124 1045 1025 1045 c 0
 930 1045 851 975 805 922 c 1
 807 900 808 883 808 873 c 2
 808 0 l 1
 708 0 l 1
 708 0 l 1
 672 0 l 1
 672 798 l 2
 672 851 669 918 647 965 c 0
 624 1012 591 1045 491 1045 c 0
 383 1045 324 992 302 968 c 1
 302 0 l 1
 265 0 l 1
 202 0 l 1
 165 0 l 1
 165 151 l 1
 165 960 l 1
 165 1165 l 1
 265 1165 l 2
 265 1167 265 1168 265 1169 c 2
EndSplineSet
EndChar

StartChar: n
Encoding: 110 110 81
Width: 1024
Flags: MW
HStem: 0 21G<165 202 165 165 202 265 265 302 718 754 718 718 754 854 754 754> 1045 120<521 556 556 579 579 587 587 590 592 601.5>
VStem: 165 138 718 136<0 798 798 828.5>
LayerCount: 2
Fore
SplineSet
265 1171 m 1
 265 1171 265 1170 265 1167 c 1
 265 1169 265 1171 265 1171 c 1
265 1167 m 1
 265 1167 265 1167 265 1167 c 1
 265 1165 265 1163 266 1159 c 0
 267 1152 268 1142 270 1130 c 0
 274 1106 278 1075 283 1044 c 0
 284 1038 285 1034 286 1028 c 1
 346 1095 423 1165 521 1165 c 1
 521 1165 l 1
 521 1165 l 1
 521 1165 538 1165 556 1165 c 0
 564 1165 573 1165 579 1165 c 0
 583 1165 585 1165 587 1165 c 0
 589 1165 594 1165 590 1165 c 1
 703 1165 779 1107 815 1041 c 0
 851 975 854 905 854 863 c 2
 854 0 l 1
 754 0 l 1
 754 0 l 1
 718 0 l 1
 718 798 l 2
 718 859 713 927 692 972 c 0
 671 1017 643 1045 560 1045 c 0
 466 1045 393 992 348 948 c 0
 331 928 316 909 302 891 c 1
 302 0 l 1
 265 0 l 1
 202 0 l 1
 165 0 l 1
 165 151 l 1
 165 960 l 1
 165 1162 l 1
 165 1165 l 1
 165 1165 l 1
 165 1165 165 1165 165 1165 c 1
 215 1165 l 1
 265 1165 l 1
 265 1165 l 1
 265 1165 l 1
 265 1166 265 1167 265 1167 c 1
EndSplineSet
EndChar

StartChar: o
Encoding: 111 111 82
Width: 1040
Flags: MW
HStem: -18 118 1046 120<514 514 514 514 514 514>
VStem: 130 133<493 662.5> 764 132<493 662.5 493 671.5>
LayerCount: 2
Fore
SplineSet
470 1166 m 1
 555 1166 l 2
 670 1166 763 1098 818 993 c 0
 872 888 896 747 896 578 c 0
 896 408 870 263 808 156 c 0
 746 49 642 -18 512 -18 c 0
 383 -17 280 50 218 157 c 0
 156 264 130 408 130 578 c 0
 130 747 154 888 209 992 c 0
 263 1097 356 1164 470 1166 c 1
 470 1166 l 1
514 1046 m 1
 436 1047 382 1023 337 954 c 0
 293 885 263 764 263 578 c 0
 263 391 291 268 335 197 c 0
 379 126 432 101 514 101 c 0
 595 101 648 126 692 197 c 0
 735 268 764 391 764 578 c 0
 764 765 736 886 693 954 c 0
 650 1023 597 1046 514 1046 c 1
 514 1046 l 1
 514 1046 l 1
EndSplineSet
EndChar

StartChar: p
Encoding: 112 112 83
Width: 1016
Flags: MW
HStem: -20 135<490 511 477.5 597.5> 1045 120<508.5 535 535 536 535 535 536 542>
VStem: 161 138<-285 70 209 868 868 934> 743 148<529 681.5 518.5 708.5>
LayerCount: 2
Fore
SplineSet
261 1169 m 1
 261 1169 261 1169 261 1169 c 1
 261 1168 262 1156 264 1145 c 0
 267 1131 270 1112 274 1091 c 0
 277 1078 280 1063 283 1049 c 1
 300 1062 318 1075 335 1087 c 0
 365 1108 394 1126 422 1140 c 0
 450 1154 476 1165 507 1165 c 1
 507 1165 l 1
 602 1165 l 1
 602 1165 l 1
 704 1165 785 1095 829 995 c 0
 873 895 891 762 891 601 c 0
 891 436 865 287 809 173 c 0
 753 60 658 -20 537 -20 c 0
 443 -20 361 22 299 70 c 1
 299 -285 l 1
 261 -285 l 1
 199 -285 l 1
 161 -285 l 1
 161 868 l 1
 161 1165 l 1
 261 1165 l 2
 261 1168 261 1169 261 1169 c 1
542 1045 m 0
 540 1045 538 1045 536 1045 c 2
 535 1045 l 1
 535 1045 l 1
 482 1045 417 1016 367 984 c 0
 349 972 334 961 321 951 c 0
 313 945 306 939 299 934 c 1
 299 868 l 1
 299 209 l 1
 315 194 334 177 355 160 c 0
 392 136 444 115 511 115 c 0
 596 116 645 157 685 242 c 0
 724 328 743 456 743 602 c 0
 743 815 713 930 677 984 c 0
 642 1036 604 1045 542 1045 c 0
EndSplineSet
EndChar

StartChar: q
Encoding: 113 113 84
Width: 1016
Flags: W
HStem: -20 135<499 544.5> 1046 121<451.5 518 518 558.5>
VStem: 117 140<509.5 662> 718 138<-285 -143 -143 77 77 77 240 799 803 896 896 896> 755 1
LayerCount: 2
Fore
SplineSet
434 1167 m 2xf0
 518 1167 l 2
 613 1167 686 1111 739 1046 c 1
 744 1074 748 1101 751 1124 c 0
 753 1136 754 1147 755 1154 c 0
 756 1160 756 1166 756 1167 c 2xe8
 756 1167 756 1166 756 1165 c 1
 756 1165 l 1
 806 1165 l 1
 856 1166 l 2
 856 1165 856 1165 856 1165 c 1
 856 1165 l 1
 856 972 l 1
 856 803 l 2
 857 801 857 800 857 799 c 2
 857 799 856 799 856 799 c 1
 856 -143 l 1
 856 -285 l 1
 818 -285 l 1
 756 -285 l 1
 718 -285 l 1
 718 -143 l 1
 718 77 l 1
 663 24 590 -20 499 -20 c 0
 384 -22 283 42 217 147 c 0
 152 253 117 399 117 580 c 0
 117 744 141 885 192 989 c 0
 243 1094 328 1167 434 1167 c 2xf0
492 1046 m 0
 411 1046 362 1019 322 947 c 0
 281 875 257 754 257 581 c 0
 257 438 279 315 320 234 c 0
 361 154 411 115 490 115 c 0
 606 115 691 208 718 240 c 1
 718 896 l 1xf0
 700 929 625 1046 492 1046 c 0
EndSplineSet
EndChar

StartChar: r
Encoding: 114 114 85
Width: 712
Flags: W
HStem: 0 21G<165 202 165 165 202 265 265 302> 1045 120<521 560 560 670>
VStem: 165 99<960 1172 1165 1172> 165 138
LayerCount: 2
Fore
SplineSet
264 1172 m 1xe0
 285 1034 l 1
 344 1099 422 1165 521 1165 c 2
 670 1165 l 1
 670 1145 l 1
 670 1045 l 1
 560 1045 l 2
 429 1045 337 941 306 901 c 0
 305 899 304 897 302 896 c 2
 302 0 l 1
 265 0 l 1
 202 0 l 1
 165 0 l 1
 165 151 l 1xd0
 165 960 l 1
 165 1165 l 1
 215 1165 l 1
 264 1172 l 1xe0
EndSplineSet
EndChar

StartChar: s
Encoding: 115 115 86
Width: 944
Flags: W
HStem: -20 141<435.5 481 481 483> 1045 120<404 450>
VStem: 131 128<826.5 914 826 925.5> 657 144<821 821> 682 128<271.5 359.5 261 364.5>
LayerCount: 2
Fore
SplineSet
487 1165 m 2xe8
 657 1165 800 1016 801 821 c 1
 701 821 l 1
 701 821 701 821 701 821 c 1
 657 821 l 1xf0
 656 872 643 929 613 971 c 0
 583 1013 537 1043 450 1045 c 0
 329 1045 259 968 259 860 c 0
 259 792 281 752 316 720 c 0
 350 689 398 668 447 653 c 0
 449 653 450 652 451 652 c 0
 452 652 452 652 452 652 c 1
 538 626 l 1
 539 626 l 1
 539 626 l 1
 539 626 l 1
 539 626 l 1
 545 624 550 623 555 621 c 2
 570 617 l 1
 570 617 570 617 569 617 c 2
 571 616 l 1
 570 617 l 1
 643 597 704 564 746 514 c 0
 788 463 810 397 810 322 c 0
 810 200 768 110 704 55 c 0
 640 0 559 -20 483 -20 c 0
 482 -20 481 -20 481 -20 c 2
 342 -20 245 39 191 116 c 0
 137 194 123 284 123 356 c 1
 169 356 l 1
 223 356 l 1
 269 356 l 1
 269 317 275 255 304 207 c 0
 333 159 380 121 491 121 c 0
 516 121 569 130 609 158 c 0
 649 186 682 228 682 315 c 0
 682 414 630 491 529 525 c 1
 510 530 l 1
 424 555 l 2
 423 556 421 556 420 557 c 0
 343 578 273 602 219 651 c 0
 163 701 131 777 131 876 c 0
 131 975 177 1051 233 1097 c 0
 289 1144 351 1165 404 1165 c 2
 487 1165 l 2xe8
EndSplineSet
EndChar

StartChar: t
Encoding: 116 116 87
Width: 720
Flags: MW
HStem: 0 150<323 580 371 580 371 580> 1061 100<25 165 25 165 302 552 552 553>
VStem: 165 136
LayerCount: 2
Fore
SplineSet
165 1625 m 1
 202 1625 l 1
 265 1625 l 1
 302 1625 l 1
 302 1161 l 1
 552 1161 l 1
 553 1161 l 1
 553 1061 l 1
 552 1061 l 1
 302 1061 l 1
 302 224 l 2
 302 186 308 169 314 163 c 0
 319 157 332 150 371 150 c 2
 580 150 l 1
 580 100 l 1
 580 50 l 1
 580 0 l 1
 361 0 l 2
 285 0 224 36 196 91 c 0
 168 145 165 208 165 278 c 2
 165 1061 l 1
 25 1061 l 1
 25 1161 l 1
 165 1161 l 1
 165 1625 l 1
EndSplineSet
EndChar

StartChar: u
Encoding: 117 117 88
Width: 1024
Flags: W
HStem: -20 135<421 508> 0 21G<758 858 758 758>
VStem: 169 136<334.5 365 365 1163> 720 138<296 1012 1012 1163> 758 100<-2.5 203>
LayerCount: 2
Fore
SplineSet
169 1163 m 1xa8
 269 1163 l 1
 269 1163 l 1
 305 1163 l 1
 305 365 l 2
 305 304 309 235 331 189 c 0
 352 143 379 115 463 115 c 0
 602 115 700 264 720 296 c 1
 720 1163 l 1xb0
 758 1163 l 1xa8
 820 1163 l 1
 858 1163 l 1
 858 1012 l 1xb0
 858 203 l 1
 858 0 l 1
 758 0 l 1x68
 758 -5 758 1 757 7 c 0
 756 13 755 21 754 31 c 0
 752 50 748 76 744 104 c 0
 742 118 740 133 738 147 c 1
 671 65 572 -20 444 -20 c 0
 325 -20 246 43 209 113 c 0
 173 183 169 257 169 300 c 2
 169 1163 l 1xa8
EndSplineSet
EndChar

StartChar: v
Encoding: 118 118 89
Width: 976
Flags: W
HStem: 0 21G<412 434 412 412 434 539 539 560>
VStem: 171 0<1172 1172> 171 2 220 0<1165 1165 1169 1169 1172 1172> 220 2 750 2 752 0<1165 1165 1170 1170> 799 2<1165 1172> 801 0<1165 1165 1172 1172>
LayerCount: 2
Fore
SplineSet
171 1172 m 1xc080
 172 1170 172 1168 173 1165 c 2
 220 1165 l 2
 220 1167 220 1168 220 1169 c 1xb0
 221 1167 221 1164 222 1159 c 0
 224 1151 227 1138 232 1122 c 0
 240 1090 251 1045 266 992 c 0
 294 887 332 748 369 611 c 0
 418 434 458 289 486 186 c 1
 515 289 555 436 603 613 c 0
 641 751 679 889 707 995 c 0
 721 1047 733 1092 741 1123 c 0
 745 1139 748 1152 750 1161 c 0x8c
 751 1165 752 1168 752 1170 c 1
 752 1169 752 1169 752 1165 c 1
 799 1165 l 2x83
 800 1168 801 1170 801 1172 c 1
 801 1171 801 1170 801 1165 c 1
 852 1165 l 1
 901 1165 l 1
 901 1152 900 1155 899 1153 c 0
 899 1151 899 1150 898 1148 c 0
 898 1145 897 1142 895 1137 c 0
 893 1128 889 1115 885 1100 c 0
 876 1068 863 1024 848 971 c 0
 817 866 776 727 735 588 c 0
 653 311 571 36 571 36 c 1
 560 0 l 1
 539 0 l 1
 434 0 l 1
 412 0 l 1
 402 36 l 1
 402 36 320 311 238 588 c 0
 197 727 156 866 125 971 c 0
 110 1024 97 1068 88 1100 c 0
 83 1115 80 1128 77 1137 c 0
 76 1142 75 1145 74 1148 c 0
 74 1150 73 1151 73 1153 c 0
 73 1155 72 1152 72 1165 c 1
 120 1165 l 1
 172 1165 l 1
 172 1170 172 1171 171 1172 c 1xc080
220 1169 m 1
 220 1169 220 1169 220 1169 c 1
 220 1170 220 1172 220 1172 c 1
 220 1172 220 1171 220 1169 c 1
EndSplineSet
EndChar

StartChar: w
Encoding: 119 119 90
Width: 1328
Flags: MW
HStem: 0 100<294 405 394 405 394 492 394 506 930 942>
VStem: 75 147 1162 1<1165 1166.5>
LayerCount: 2
Fore
SplineSet
1163 1170 m 1
 1163 1170 1163 1170 1163 1170 c 1
 1163 1169 1163 1168 1163 1165 c 2
 1214 1165 l 1
 1263 1165 l 1
 1263 1149 1261 1149 1260 1139 c 0
 1258 1129 1256 1115 1253 1099 c 0
 1247 1066 1239 1021 1228 968 c 0
 1208 861 1182 723 1155 586 c 0
 1101 311 1048 40 1048 40 c 1
 1040 0 l 1
 1027 0 l 1
 842 0 l 1
 829 0 l 1
 667 1011 l 1
 506 0 l 1
 492 0 l 1
 310 0 l 1
 294 0 l 1
 287 40 l 1
 287 40 233 313 180 588 c 0
 153 726 126 865 106 971 c 0
 96 1024 88 1068 82 1101 c 0
 79 1117 76 1130 75 1140 c 0
 74 1145 73 1149 73 1152 c 0
 72 1156 72 1156 72 1165 c 1
 120 1165 l 1
 172 1165 l 2
 172 1167 172 1167 172 1168 c 2
 172 1168 172 1167 172 1167 c 2
 172 1166 172 1166 172 1165 c 2
 220 1165 l 2
 220 1168 220 1169 220 1168 c 2
 220 1168 220 1167 220 1165 c 0
 221 1163 221 1160 222 1155 c 0
 223 1146 225 1133 227 1117 c 0
 232 1085 239 1040 248 987 c 0
 265 882 288 743 310 605 c 0
 352 351 388 137 394 100 c 1
 405 100 l 1
 551 1165 l 1
 591 1165 l 1
 744 1165 l 1
 784 1165 l 1
 930 100 l 1
 942 100 l 1
 948 137 984 351 1025 605 c 0
 1048 743 1070 882 1087 987 c 0
 1095 1040 1102 1085 1107 1117 c 0
 1110 1133 1112 1146 1113 1155 c 0
 1113 1159 1114 1163 1114 1165 c 1
 1114 1168 1114 1171 1114 1165 c 1
 1162 1165 l 2
 1162 1168 1163 1170 1163 1170 c 1
172 1168 m 1
 172 1170 172 1170 172 1168 c 1
EndSplineSet
EndChar

StartChar: x
Encoding: 120 120 91
Width: 944
Flags: W
LayerCount: 2
Fore
SplineSet
208 1183 m 1
 208 1183 209 1182 209 1182 c 2
 210 1180 211 1177 213 1173 c 0
 215 1170 216 1168 217 1165 c 2
 264 1165 l 1
 264 1169 264 1171 264 1173 c 1
 265 1171 265 1169 267 1166 c 0
 270 1157 276 1144 283 1128 c 0
 297 1095 318 1049 342 994 c 0
 380 911 427 807 477 700 c 1
 527 807 574 911 612 994 c 0
 636 1049 657 1095 671 1128 c 0
 678 1144 684 1157 687 1166 c 0
 689 1169 689 1171 690 1173 c 1
 690 1171 690 1169 690 1165 c 1
 737 1165 l 2
 738 1168 739 1170 741 1173 c 0
 743 1177 744 1180 745 1182 c 1
 746 1183 746 1183 745 1182 c 1
 745 1182 745 1181 744 1180 c 0
 744 1178 742 1177 742 1165 c 1
 790 1165 l 1
 842 1165 l 1
 842 1153 840 1152 840 1149 c 0
 839 1147 839 1146 838 1145 c 0
 837 1143 836 1141 836 1139 c 0
 834 1136 832 1132 830 1127 c 0
 825 1118 818 1105 809 1088 c 0
 792 1056 767 1010 738 956 c 0
 682 853 608 719 534 584 c 1
 608 448 682 314 738 211 c 0
 767 157 792 111 809 78 c 0
 818 61 825 48 830 38 c 0
 832 33 834 29 836 25 c 0
 837 24 838 22 839 19 c 0
 839 17 842 20 842 0 c 1
 792 0 l 1
 792 0 l 1
 742 0 l 1
 742 -6 743 -9 743 -12 c 1
 742 -10 742 -9 740 -7 c 0
 739 -5 738 -2 737 0 c 2
 692 0 l 1
 692 -5 692 -8 692 -10 c 1
 692 -8 691 -7 690 -5 c 0
 687 4 681 17 674 32 c 0
 659 64 639 109 614 163 c 0
 576 246 527 352 477 461 c 1
 427 352 378 246 340 163 c 0
 315 109 294 64 280 32 c 0
 273 17 267 4 264 -5 c 0
 263 -7 262 -8 262 -10 c 1
 262 -8 262 -5 262 0 c 1
 217 0 l 2
 216 -2 215 -5 214 -7 c 0
 212 -9 212 -10 211 -12 c 1
 211 -9 212 -6 212 0 c 1
 162 0 l 1
 162 0 l 1
 112 0 l 1
 112 20 115 17 115 19 c 0
 116 22 117 24 118 25 c 0
 120 29 122 33 124 38 c 0
 129 48 136 61 145 78 c 0
 162 111 187 157 216 211 c 0
 272 314 346 448 420 584 c 1
 346 719 272 853 216 956 c 0
 187 1010 162 1056 145 1088 c 0
 136 1105 129 1118 124 1127 c 0
 122 1132 120 1136 118 1139 c 0
 117 1141 117 1143 116 1145 c 0
 115 1146 115 1147 114 1149 c 0
 114 1152 112 1153 112 1165 c 1
 164 1165 l 1
 212 1165 l 1
 212 1177 210 1178 209 1180 c 0
 209 1181 209 1182 209 1182 c 2
 208 1183 208 1183 208 1183 c 1
EndSplineSet
EndChar

StartChar: y
Encoding: 121 121 92
Width: 976
Flags: W
VStem: 183 0<1165 1165 1172 1172> 236 0<1165 1165 1171 1171 1172 1172> 314 4 367 0<4.29497e+09 4.29497e+09 4.29497e+09 4.29497e+09> 367 3 721 2 722 0<1165 1165> 773 2<1165 1173> 775 0<1165 1165 1173 1173>
LayerCount: 2
Fore
SplineSet
775 1173 m 1xe080
 775 1171 775 1170 775 1165 c 1
 822 1165 l 1
 875 1165 l 1
 875 1152 874 1153 873 1151 c 0
 873 1149 872 1147 871 1145 c 0
 870 1141 869 1136 867 1130 c 0
 863 1118 857 1102 850 1081 c 0
 836 1040 817 983 793 916 c 0
 745 780 682 602 618 423 c 0
 555 244 491 66 444 -69 c 0
 420 -137 400 -194 386 -234 c 0
 380 -254 374 -270 371 -281 c 0xe880
 369 -286 368 -289 367 -292 c 1
 367 -290 367 -288 367 -285 c 2
 318 -285 l 1
 317 -289 315 -293 314 -295 c 1
 314 -294 315 -291 315 -285 c 1
 267 -285 l 1
 215 -285 l 1
 215 -271 216 -272 217 -270 c 0
 217 -268 218 -267 218 -266 c 0
 219 -264 220 -262 221 -259 c 0
 223 -254 226 -247 229 -239 c 0
 236 -223 245 -201 256 -175 c 0
 279 -122 309 -54 339 15 c 0
 393 138 440 245 450 269 c 1
 389 417 301 626 227 803 c 0
 188 895 153 978 128 1040 c 0
 115 1071 105 1097 98 1115 c 0
 94 1125 91 1132 89 1139 c 0
 88 1142 87 1145 86 1148 c 0
 85 1151 83 1150 83 1165 c 1
 183 1165 l 2
 183 1168 183 1171 183 1172 c 1
 183 1172 183 1172 183 1172 c 1
 184 1170 185 1168 186 1165 c 2
 236 1165 l 2
 236 1168 236 1170 236 1172 c 1
 236 1171 236 1171 236 1171 c 2
 238 1166 240 1160 243 1151 c 0
 248 1134 257 1109 267 1078 c 0
 289 1017 318 933 351 841 c 0
 398 707 452 556 500 425 c 1
 525 508 558 616 591 726 c 0
 624 838 658 949 683 1034 c 0
 695 1076 706 1112 713 1137 c 0
 717 1149 719 1159 721 1166 c 0xf4
 722 1169 722 1171 723 1172 c 1
 723 1171 722 1170 722 1165 c 1
 773 1165 l 2xe3
 774 1168 775 1171 775 1173 c 1xe080
313 -297 m 1
 313 -298 313 -298 313 -298 c 2
 313 -299 313 -299 313 -299 c 1
 313 -299 313 -298 313 -297 c 1
EndSplineSet
EndChar

StartChar: z
Encoding: 122 122 93
Width: 936
Flags: MW
HStem: 0 130<226 226 226 846> 1045 120<77 696 76 846 696 696>
LayerCount: 2
Fore
SplineSet
77 1165 m 1
 846 1165 l 1
 846 1024 l 1
 472 512 l 1
 226 130 l 1
 226 130 l 1
 846 130 l 1
 846 100 l 1
 846 100 l 1
 846 0 l 1
 77 0 l 1
 77 141 l 1
 389 568 l 1
 696 1045 l 1
 696 1045 l 1
 76 1045 l 1
 76 1145 l 1
 77 1145 l 1
 77 1165 l 1
EndSplineSet
EndChar

StartChar: braceleft
Encoding: 123 123 94
Width: 480
Flags: W
LayerCount: 2
Fore
SplineSet
32 704 m 1
 32 784 l 1
 117 795 152 859 136 976 c 1
 136 1384 l 2
 136 1576 237 1672 440 1672 c 1
 440 1568 l 1
 333 1568 280 1507 280 1384 c 2
 280 976 l 2
 280 864 240 787 160 744 c 1
 240 696 280 619 280 512 c 2
 280 64 l 2
 280 -59 333 -120 440 -120 c 1
 440 -216 l 1
 237 -216 136 -123 136 64 c 2
 136 512 l 1
 147 624 112 688 32 704 c 1
EndSplineSet
EndChar

StartChar: bar
Encoding: 124 124 95
Width: 480
Flags: W
LayerCount: 2
Fore
SplineSet
168 -176 m 1
 168 1664 l 1
 312 1664 l 1
 312 -176 l 1
 168 -176 l 1
EndSplineSet
EndChar

StartChar: braceright
Encoding: 125 125 96
Width: 480
Flags: W
LayerCount: 2
Fore
SplineSet
40 -112 m 1
 147 -112 200 -51 200 72 c 2
 200 480 l 2
 200 592 243 669 328 712 c 1
 243 760 200 837 200 944 c 2
 200 1392 l 2
 200 1515 147 1576 40 1576 c 1
 40 1672 l 1
 248 1672 352 1579 352 1392 c 2
 352 944 l 1
 336 832 368 768 448 752 c 1
 448 672 l 1
 368 661 336 597 352 480 c 1
 352 72 l 2
 352 -120 248 -216 40 -216 c 1
 40 -112 l 1
EndSplineSet
EndChar

StartChar: asciitilde
Encoding: 126 126 97
Width: 848
Flags: W
LayerCount: 2
Fore
SplineSet
80 1408 m 1
 155 1568 264 1603 408 1512 c 1
 499 1437 576 1448 640 1544 c 1
 736 1440 l 1
 661 1296 547 1267 392 1352 c 1
 301 1416 229 1405 176 1320 c 1
 80 1408 l 1
EndSplineSet
EndChar

StartChar: exclamdown
Encoding: 258 161 99
Width: 448
Flags: W
LayerCount: 2
Fore
SplineSet
136 -152 m 1
 160 1096 l 1
 288 1096 l 1
 312 -152 l 1
 136 -152 l 1
152 1360 m 1
 152 1624 l 1
 304 1624 l 1
 304 1360 l 1
 152 1360 l 1
EndSplineSet
EndChar

StartChar: cent
Encoding: 259 162 100
Width: 1024
Flags: W
LayerCount: 2
Fore
SplineSet
104 816 m 0
 104 987 143 1119 220 1212 c 0
 297 1305 392 1352 504 1352 c 0
 536 1352 565 1349 592 1344 c 1
 624 1496 l 1
 696 1480 l 1
 656 1328 l 1
 736 1301 797 1257 840 1196 c 0
 883 1135 909 1056 920 960 c 1
 760 960 l 1
 749 1019 733 1068 712 1108 c 0
 691 1148 661 1173 624 1184 c 1
 448 432 l 1
 475 427 499 424 520 424 c 0
 579 424 631 441 676 476 c 0
 721 511 749 560 760 624 c 1
 912 624 l 1
 901 528 860 447 788 380 c 0
 716 313 627 280 520 280 c 0
 483 280 448 283 416 288 c 1
 360 40 l 1
 288 56 l 1
 352 320 l 1
 283 347 224 403 176 488 c 0
 128 573 104 683 104 816 c 0
248 808 m 0
 248 723 259 653 280 600 c 0
 301 547 336 504 384 472 c 1
 560 1200 l 1
 504 1200 l 2
 435 1200 375 1169 324 1108 c 0
 273 1047 248 947 248 808 c 0
EndSplineSet
EndChar

StartChar: sterling
Encoding: 260 163 101
Width: 1368
Flags: W
LayerCount: 2
Fore
SplineSet
72 216 m 0
 72 307 99 368 152 400 c 0
 205 432 267 448 336 448 c 0
 421 448 515 413 616 344 c 1
 621 365 624 387 624 408 c 0
 624 536 592 659 528 776 c 1
 208 776 l 1
 208 896 l 1
 472 896 l 1
 435 971 416 1051 416 1136 c 0
 416 1264 447 1365 508 1440 c 0
 569 1515 661 1552 784 1552 c 0
 901 1552 993 1521 1060 1460 c 0
 1127 1399 1160 1328 1160 1248 c 1
 960 1248 l 1
 960 1285 947 1321 920 1356 c 0
 893 1391 848 1408 784 1408 c 0
 720 1408 673 1381 644 1328 c 0
 615 1275 600 1211 600 1136 c 0
 600 1061 621 981 664 896 c 1
 1064 896 l 1
 1064 776 l 1
 736 776 l 1
 800 643 832 523 832 416 c 0
 832 357 816 296 784 232 c 1
 848 184 901 160 944 160 c 0
 997 160 1041 179 1076 216 c 0
 1111 253 1128 344 1128 488 c 1
 1296 440 l 1
 1296 259 1265 140 1204 84 c 0
 1143 28 1061 0 960 0 c 0
 880 0 789 32 688 96 c 1
 624 32 515 0 360 0 c 0
 285 0 219 19 160 56 c 0
 101 93 72 147 72 216 c 0
240 216 m 0
 240 163 280 133 360 128 c 1
 440 128 504 157 552 216 c 1
 477 275 405 304 336 304 c 0
 272 304 240 275 240 216 c 0
EndSplineSet
EndChar

StartChar: currency
Encoding: 261 164 102
Width: 1048
Flags: W
LayerCount: 2
Fore
SplineSet
120 64 m 1
 256 328 l 1
 213 435 189 571 184 736 c 1
 184 880 208 1016 256 1144 c 1
 120 1400 l 1
 192 1536 l 1
 328 1272 l 1
 387 1357 453 1400 528 1400 c 0
 608 1400 677 1355 736 1264 c 1
 872 1528 l 1
 944 1408 l 1
 808 1136 l 1
 851 1019 869 885 864 736 c 1
 864 587 843 453 800 336 c 1
 944 56 l 1
 880 -64 l 1
 736 208 l 1
 677 123 608 80 528 80 c 0
 453 80 384 120 320 200 c 1
 192 -64 l 1
 120 64 l 1
280 736 m 0
 280 571 304 448 352 368 c 0
 400 288 459 248 528 248 c 0
 613 248 676 300 716 404 c 0
 756 508 776 619 776 736 c 0
 776 880 753 996 708 1084 c 0
 663 1172 603 1216 528 1216 c 0
 448 1216 387 1169 344 1076 c 0
 301 983 280 869 280 736 c 0
EndSplineSet
EndChar

StartChar: yen
Encoding: 262 165 103
Width: 1208
Flags: W
LayerCount: 2
Fore
SplineSet
104 1552 m 1
 296 1552 l 1
 608 976 l 1
 920 1552 l 1
 1104 1552 l 1
 736 864 l 1
 1080 864 l 1
 1080 736 l 1
 696 736 l 1
 696 448 l 1
 1080 448 l 1
 1080 320 l 1
 696 320 l 1
 696 0 l 1
 520 0 l 1
 520 320 l 1
 128 320 l 1
 128 448 l 1
 520 448 l 1
 520 736 l 1
 128 736 l 1
 128 864 l 1
 480 864 l 1
 104 1552 l 1
EndSplineSet
EndChar

StartChar: brokenbar
Encoding: 263 166 104
Width: 464
Flags: W
LayerCount: 2
Fore
SplineSet
192 -152 m 1
 192 1624 l 1
 272 1624 l 1
 272 -152 l 1
 192 -152 l 1
EndSplineSet
EndChar

StartChar: section
Encoding: 167 167 105
Width: 2048
Flags: W
LayerCount: 2
Fore
SplineSet
328 232 m 1
 544 232 l 1
 565 67 728 -16 1032 -16 c 0
 1341 -16 1496 45 1496 168 c 0
 1496 227 1440 276 1328 316 c 0
 1216 356 1072 397 896 440 c 0
 672 493 521 544 444 592 c 0
 367 640 328 707 328 792 c 0
 328 872 424 952 616 1032 c 1
 472 1101 400 1187 400 1288 c 0
 400 1395 452 1477 556 1536 c 0
 660 1595 819 1624 1032 1624 c 0
 1459 1624 1685 1496 1712 1240 c 1
 1512 1240 l 1
 1507 1400 1347 1480 1032 1480 c 0
 755 1480 616 1416 616 1288 c 0
 616 1219 669 1165 776 1128 c 0
 883 1091 997 1059 1120 1032 c 1
 1328 973 1479 919 1572 868 c 0
 1665 817 1712 752 1712 672 c 0
 1712 576 1624 496 1448 432 c 1
 1619 368 1704 280 1704 168 c 0
 1704 72 1640 -5 1512 -64 c 0
 1384 -123 1224 -152 1032 -152 c 0
 600 -152 365 -24 328 232 c 1
536 792 m 0
 536 717 691 643 1000 568 c 2
 1256 504 l 1
 1416 547 1496 605 1496 680 c 0
 1496 755 1360 827 1088 896 c 2
 816 968 l 1
 629 915 536 856 536 792 c 0
EndSplineSet
EndChar

StartChar: dieresis
Encoding: 264 168 106
Width: 1024
Flags: W
LayerCount: 2
Fore
SplineSet
144 1312 m 1
 144 1552 l 1
 392 1552 l 1
 392 1312 l 1
 144 1312 l 1
640 1312 m 1
 640 1552 l 1
 888 1552 l 1
 888 1312 l 1
 640 1312 l 1
EndSplineSet
EndChar

StartChar: copyright
Encoding: 169 169 107
Width: 1368
Flags: W
LayerCount: 2
Fore
SplineSet
120 736 m 0
 120 928 177 1081 292 1196 c 0
 407 1311 536 1368 680 1368 c 0
 845 1368 980 1311 1084 1196 c 0
 1188 1081 1240 928 1240 736 c 0
 1240 560 1188 411 1084 288 c 0
 980 165 845 104 680 104 c 0
 515 104 380 165 276 288 c 0
 172 411 120 560 120 736 c 0
208 736 m 1
 213 576 260 447 348 348 c 0
 436 249 547 200 680 200 c 0
 813 200 927 251 1020 352 c 0
 1113 453 1160 581 1160 736 c 0
 1160 891 1113 1019 1020 1120 c 0
 927 1221 813 1272 680 1272 c 0
 547 1272 435 1220 344 1116 c 0
 253 1012 208 885 208 736 c 1
384 728 m 0
 384 813 413 889 472 956 c 0
 531 1023 600 1056 680 1056 c 0
 749 1056 808 1035 856 992 c 0
 904 949 936 888 952 808 c 1
 848 808 l 1
 837 861 819 900 792 924 c 0
 765 948 728 960 680 960 c 0
 632 960 588 940 548 900 c 0
 508 860 488 803 488 728 c 0
 488 653 507 595 544 552 c 0
 581 509 627 488 680 488 c 0
 728 488 767 503 796 532 c 0
 825 561 845 603 856 656 c 1
 960 656 l 1
 955 581 927 520 876 472 c 0
 825 424 760 400 680 400 c 0
 600 400 531 432 472 496 c 0
 413 560 384 637 384 728 c 0
EndSplineSet
EndChar

StartChar: ordfeminine
Encoding: 265 170 108
Width: 728
Flags: W
LayerCount: 2
Fore
SplineSet
216 1200 m 0
 216 1275 240 1329 288 1364 c 0
 336 1399 392 1419 456 1424 c 1
 456 1464 l 2
 456 1485 449 1507 436 1528 c 0
 423 1549 403 1560 376 1560 c 0
 349 1560 329 1551 316 1532 c 0
 303 1513 296 1491 296 1464 c 1
 232 1464 l 1
 232 1512 243 1551 264 1580 c 0
 285 1609 312 1624 344 1624 c 2
 400 1624 l 2
 437 1624 468 1607 492 1572 c 0
 516 1537 528 1491 528 1432 c 2
 528 1176 l 1
 544 1056 l 1
 472 1056 l 1
 464 1120 l 1
 448 1099 432 1083 416 1072 c 0
 400 1061 376 1056 344 1056 c 0
 301 1056 269 1069 248 1096 c 0
 227 1123 216 1157 216 1200 c 0
288 1208 m 0
 288 1181 293 1161 304 1148 c 0
 315 1135 328 1128 344 1128 c 0
 371 1128 392 1133 408 1144 c 0
 424 1155 440 1179 456 1216 c 1
 456 1352 l 1
 403 1347 361 1333 332 1312 c 0
 303 1291 288 1256 288 1208 c 0
EndSplineSet
EndChar

StartChar: guillemotleft
Encoding: 171 171 109
Width: 1368
Flags: W
LayerCount: 2
Fore
SplineSet
112 736 m 1
 856 1392 l 1
 928 1328 l 1
 256 736 l 1
 928 144 l 1
 856 72 l 1
 112 736 l 1
432 736 m 1
 1184 1392 l 1
 1256 1328 l 1
 584 736 l 1
 1256 144 l 1
 1184 72 l 1
 432 736 l 1
EndSplineSet
EndChar

StartChar: logicalnot
Encoding: 266 172 110
Width: 1312
Flags: W
LayerCount: 2
Fore
SplineSet
112 896 m 1
 112 1024 l 1
 1152 1024 l 1
 1152 520 l 1
 1000 520 l 1
 1000 896 l 1
 112 896 l 1
EndSplineSet
EndChar

StartChar: uni00AD
Encoding: 173 173 111
Width: 1032
Flags: W
LayerCount: 2
Fore
SplineSet
64 672 m 1
 64 808 l 1
 960 808 l 1
 960 672 l 1
 64 672 l 1
EndSplineSet
EndChar

StartChar: registered
Encoding: 267 174 112
Width: 1368
Flags: W
LayerCount: 2
Fore
SplineSet
120 736 m 0
 120 928 177 1081 292 1196 c 0
 407 1311 536 1368 680 1368 c 0
 845 1368 980 1311 1084 1196 c 0
 1188 1081 1240 928 1240 736 c 0
 1240 560 1188 411 1084 288 c 0
 980 165 845 104 680 104 c 0
 515 104 380 165 276 288 c 0
 172 411 120 560 120 736 c 0
208 736 m 1
 213 576 260 447 348 348 c 0
 436 249 547 200 680 200 c 0
 813 200 927 251 1020 352 c 0
 1113 453 1160 581 1160 736 c 0
 1160 891 1113 1019 1020 1120 c 0
 927 1221 813 1272 680 1272 c 0
 547 1272 435 1220 344 1116 c 0
 253 1012 208 885 208 736 c 1
480 376 m 1
 480 1104 l 1
 728 1104 l 2
 792 1104 841 1085 876 1048 c 0
 911 1011 928 968 928 920 c 0
 928 872 916 831 892 796 c 0
 868 761 824 741 760 736 c 1
 960 376 l 1
 864 376 l 1
 680 736 l 1
 552 736 l 1
 552 376 l 1
 480 376 l 1
552 800 m 1
 728 800 l 2
 760 800 787 809 808 828 c 0
 829 847 840 877 840 920 c 0
 840 957 829 985 808 1004 c 0
 787 1023 760 1032 728 1032 c 2
 552 1032 l 1
 552 800 l 1
EndSplineSet
EndChar

StartChar: macron
Encoding: 268 175 113
Width: 1368
Flags: W
LayerCount: 2
Fore
SplineSet
0 1624 m 1
 0 1760 l 1
 1368 1760 l 1
 1368 1624 l 1
 0 1624 l 1
EndSplineSet
EndChar

StartChar: degree
Encoding: 176 176 114
Width: 2048
Flags: W
LayerCount: 2
Fore
SplineSet
112 1304 m 0
 112 1411 143 1496 204 1560 c 0
 265 1624 349 1656 456 1656 c 0
 547 1656 627 1624 696 1560 c 0
 765 1496 800 1411 800 1304 c 0
 800 1192 767 1105 700 1044 c 0
 633 983 552 952 456 952 c 0
 360 952 279 983 212 1044 c 0
 145 1105 112 1192 112 1304 c 0
256 1304 m 0
 256 1240 275 1191 312 1156 c 0
 349 1121 397 1104 456 1104 c 0
 509 1104 555 1121 592 1156 c 0
 629 1191 648 1240 648 1304 c 0
 648 1357 631 1405 596 1448 c 0
 561 1491 515 1512 456 1512 c 0
 392 1512 343 1493 308 1456 c 0
 273 1419 256 1368 256 1304 c 0
EndSplineSet
EndChar

StartChar: plusminus
Encoding: 177 177 115
Width: 2048
Flags: W
LayerCount: 2
Fore
SplineSet
320 -8 m 1
 1728 -8 l 1
 1728 -152 l 1
 320 -152 l 1
 320 -8 l 1
320 864 m 1
 320 1024 l 1
 952 1024 l 1
 952 1624 l 1
 1096 1624 l 1
 1096 1024 l 1
 1728 1024 l 1
 1728 864 l 1
 1096 864 l 1
 1096 256 l 1
 952 256 l 1
 952 864 l 1
 320 864 l 1
EndSplineSet
EndChar

StartChar: uni00B2
Encoding: 269 178 116
Width: 488
Flags: W
LayerCount: 2
Fore
SplineSet
32 1032 m 1
 32 1120 l 1
 152 1344 l 2
 189 1408 208 1469 208 1528 c 0
 208 1571 201 1599 188 1612 c 0
 175 1625 157 1632 136 1632 c 0
 120 1632 105 1625 92 1612 c 0
 79 1599 72 1568 72 1520 c 1
 32 1520 l 1
 32 1579 43 1625 64 1660 c 0
 85 1695 109 1712 136 1712 c 0
 168 1712 195 1696 216 1664 c 0
 237 1632 248 1587 248 1528 c 0
 248 1459 232 1389 200 1320 c 1
 88 1112 l 1
 248 1112 l 1
 248 1032 l 1
 32 1032 l 1
EndSplineSet
EndChar

StartChar: uni00B3
Encoding: 270 179 117
Width: 488
Flags: W
LayerCount: 2
Fore
SplineSet
32 1032 m 1
 32 1104 l 1
 120 1104 l 2
 168 1104 192 1149 192 1240 c 0
 192 1341 168 1392 120 1392 c 2
 64 1392 l 1
 64 1448 l 1
 176 1640 l 1
 32 1640 l 1
 32 1712 l 1
 248 1712 l 1
 248 1640 l 1
 144 1456 l 1
 213 1456 248 1384 248 1240 c 0
 248 1101 205 1032 120 1032 c 2
 32 1032 l 1
EndSplineSet
EndChar

StartChar: acute
Encoding: 271 180 118
Width: 1024
Flags: W
LayerCount: 2
Fore
SplineSet
615 1667 m 1
 461 1496 l 1
 290 1342 l 1
 306 1324 l 1
 304 1321 l 1
 332 1296 l 1
 357 1268 l 1
 360 1270 l 1
 378 1254 l 1
 532 1425 l 1
 703 1579 l 1
 686 1597 l 1
 689 1600 l 1
 661 1625 l 1
 636 1653 l 1
 633 1650 l 1
 615 1667 l 1
EndSplineSet
EndChar

StartChar: mu
Encoding: 272 181 119
Width: 1032
Flags: W
LayerCount: 2
Fore
SplineSet
152 -288 m 1
 152 960 l 1
 344 960 l 1
 344 272 l 1
 387 187 435 144 488 144 c 0
 557 144 624 192 688 288 c 1
 688 960 l 1
 872 960 l 1
 872 0 l 1
 688 0 l 1
 688 104 l 1
 624 35 557 0 488 0 c 0
 424 0 376 29 344 88 c 1
 344 -288 l 1
 152 -288 l 1
EndSplineSet
EndChar

StartChar: paragraph
Encoding: 182 182 120
Width: 1024
Flags: W
LayerCount: 2
Fore
SplineSet
40 1296 m 0
 40 1392 56 1471 88 1532 c 0
 120 1593 163 1624 216 1624 c 2
 488 1624 l 1
 488 1496 l 1
 464 1496 l 1
 464 -152 l 1
 384 -152 l 1
 384 1496 l 1
 288 1496 l 1
 288 -152 l 1
 208 -152 l 1
 208 960 l 1
 160 955 120 984 88 1048 c 0
 56 1112 40 1195 40 1296 c 0
EndSplineSet
EndChar

StartChar: periodcentered
Encoding: 183 183 121
Width: 416
Flags: W
LayerCount: 2
Fore
SplineSet
160 640 m 1
 160 888 l 1
 256 888 l 1
 256 640 l 1
 160 640 l 1
EndSplineSet
EndChar

StartChar: cedilla
Encoding: 273 184 122
Width: 416
Flags: W
LayerCount: 2
Fore
SplineSet
128 144 m 0
 128 187 135 227 148 264 c 0
 161 301 179 320 200 320 c 0
 221 320 239 303 252 268 c 0
 265 233 272 192 272 144 c 0
 277 16 268 -84 244 -156 c 0
 220 -228 184 -272 136 -288 c 1
 128 -200 l 1
 155 -195 173 -181 184 -160 c 0
 195 -139 203 -112 208 -80 c 0
 213 -48 211 -32 200 -32 c 0
 179 -32 161 -16 148 16 c 0
 135 48 128 91 128 144 c 0
EndSplineSet
EndChar

StartChar: uni00B9
Encoding: 274 185 123
Width: 488
Flags: W
LayerCount: 2
Fore
SplineSet
32 1520 m 1
 32 1616 l 1
 75 1616 101 1648 112 1712 c 1
 160 1712 l 1
 160 1032 l 1
 88 1032 l 1
 88 1520 l 1
 32 1520 l 1
EndSplineSet
EndChar

StartChar: ordmasculine
Encoding: 275 186 124
Width: 488
Flags: W
LayerCount: 2
Fore
SplineSet
32 1376 m 0
 32 1461 43 1539 64 1608 c 0
 85 1677 115 1712 152 1712 c 0
 189 1712 219 1680 240 1616 c 0
 261 1552 272 1472 272 1376 c 0
 272 1275 261 1192 240 1128 c 0
 219 1064 189 1032 152 1032 c 0
 115 1032 85 1065 64 1132 c 0
 43 1199 32 1280 32 1376 c 0
80 1376 m 0
 80 1296 87 1236 100 1196 c 0
 113 1156 131 1136 152 1136 c 0
 173 1136 191 1156 204 1196 c 0
 217 1236 224 1296 224 1376 c 0
 224 1456 217 1515 204 1552 c 0
 191 1589 173 1608 152 1608 c 0
 131 1608 113 1589 100 1552 c 0
 87 1515 80 1456 80 1376 c 0
EndSplineSet
EndChar

StartChar: guillemotright
Encoding: 187 187 125
Width: 1368
Flags: W
LayerCount: 2
Fore
SplineSet
128 144 m 1
 792 736 l 1
 128 1328 l 1
 200 1400 l 1
 944 736 l 1
 200 80 l 1
 128 144 l 1
448 144 m 1
 1120 736 l 1
 448 1328 l 1
 528 1400 l 1
 1264 736 l 1
 528 80 l 1
 448 144 l 1
EndSplineSet
EndChar

StartChar: onequarter
Encoding: 276 188 126
Width: 1048
Flags: W
LayerCount: 2
Fore
SplineSet
72 1408 m 1
 72 1480 l 1
 147 1480 189 1504 200 1552 c 1
 272 1552 l 1
 272 816 l 1
 176 816 l 1
 176 1408 l 1
 72 1408 l 1
168 32 m 1
 808 1552 l 1
 872 1536 l 1
 232 8 l 1
 168 32 l 1
472 168 m 1
 472 208 l 1
 784 736 l 1
 872 736 l 1
 872 256 l 1
 992 256 l 1
 992 168 l 1
 872 168 l 1
 872 0 l 1
 768 0 l 1
 768 168 l 1
 472 168 l 1
584 256 m 1
 768 256 l 1
 768 560 l 1
 584 256 l 1
EndSplineSet
EndChar

StartChar: onehalf
Encoding: 277 189 127
Width: 1048
Flags: W
LayerCount: 2
Fore
SplineSet
72 1416 m 1
 72 1480 l 1
 147 1485 189 1509 200 1552 c 1
 272 1552 l 1
 272 816 l 1
 176 816 l 1
 176 1416 l 1
 72 1416 l 1
168 32 m 1
 808 1552 l 1
 872 1536 l 1
 232 8 l 1
 168 32 l 1
536 520 m 1
 536 584 557 636 600 676 c 0
 643 716 693 736 752 736 c 0
 816 736 869 717 912 680 c 0
 955 643 976 592 976 528 c 0
 976 459 941 387 872 312 c 1
 648 88 l 1
 976 88 l 1
 976 0 l 1
 544 0 l 1
 544 96 l 1
 784 336 l 2
 848 405 880 469 880 528 c 0
 880 576 868 608 844 624 c 0
 820 640 789 648 752 648 c 0
 720 648 692 640 668 624 c 0
 644 608 632 573 632 520 c 1
 536 520 l 1
EndSplineSet
EndChar

StartChar: threequarters
Encoding: 278 190 128
Width: 1048
Flags: W
LayerCount: 2
Fore
SplineSet
72 816 m 1
 72 896 l 1
 232 896 l 2
 323 896 368 947 368 1048 c 0
 368 1155 323 1208 232 1208 c 2
 128 1208 l 1
 128 1272 l 1
 336 1472 l 1
 72 1472 l 1
 72 1552 l 1
 488 1552 l 1
 488 1472 l 1
 280 1272 l 1
 419 1272 488 1197 488 1048 c 0
 488 893 403 816 232 816 c 2
 72 816 l 1
168 32 m 1
 808 1552 l 1
 872 1536 l 1
 232 8 l 1
 168 32 l 1
504 168 m 1
 504 272 l 1
 800 736 l 1
 904 736 l 1
 904 256 l 1
 1032 256 l 1
 1032 168 l 1
 904 168 l 1
 904 0 l 1
 808 0 l 1
 808 168 l 1
 504 168 l 1
608 256 m 1
 808 256 l 1
 808 568 l 1
 608 256 l 1
EndSplineSet
EndChar

StartChar: questiondown
Encoding: 279 191 129
Width: 928
Flags: W
LayerCount: 2
Fore
SplineSet
56 280 m 0
 56 392 80 477 128 536 c 0
 176 595 229 645 288 688 c 0
 347 736 380 787 388 840 c 0
 396 893 400 944 400 992 c 2
 400 1112 l 1
 552 1112 l 1
 552 992 l 2
 552 939 547 881 536 820 c 0
 525 759 485 693 416 624 c 1
 347 571 293 521 256 476 c 0
 219 431 200 368 200 288 c 0
 200 224 220 169 260 124 c 0
 300 79 363 56 448 56 c 0
 539 56 605 83 648 136 c 0
 691 189 712 256 712 336 c 2
 712 424 l 1
 848 424 l 1
 848 336 l 2
 848 213 811 113 736 36 c 0
 661 -41 565 -80 448 -80 c 1
 331 -85 236 -52 164 20 c 0
 92 92 56 179 56 280 c 0
376 1360 m 1
 376 1584 l 1
 568 1584 l 1
 568 1360 l 1
 376 1360 l 1
EndSplineSet
EndChar

StartChar: Agrave
Encoding: 192 192 130
Width: 1296
Flags: W
LayerCount: 2
Fore
SplineSet
240 0 m 1
 552 1176 l 1
 704 1176 l 1
 1016 0 l 1
 880 0 l 1
 784 336 l 1
 464 336 l 1
 376 0 l 1
 240 0 l 1
424 1760 m 1
 640 1760 l 1
 824 1360 l 1
 704 1360 l 1
 424 1760 l 1
504 480 m 1
 752 480 l 1
 624 952 l 1
 504 480 l 1
EndSplineSet
EndChar

StartChar: Aacute
Encoding: 193 193 131
Width: 1296
Flags: W
LayerCount: 2
Fore
SplineSet
240 0 m 1
 552 1176 l 1
 704 1176 l 1
 1016 0 l 1
 880 0 l 1
 784 336 l 1
 464 336 l 1
 376 0 l 1
 240 0 l 1
432 1360 m 1
 616 1760 l 1
 832 1760 l 1
 560 1360 l 1
 432 1360 l 1
504 480 m 1
 752 480 l 1
 624 952 l 1
 504 480 l 1
EndSplineSet
EndChar

StartChar: Acircumflex
Encoding: 194 194 132
Width: 1296
Flags: W
LayerCount: 2
Fore
SplineSet
272 0 m 1
 584 1176 l 1
 736 1176 l 1
 1048 0 l 1
 912 0 l 1
 816 336 l 1
 496 336 l 1
 408 0 l 1
 272 0 l 1
408 1416 m 1
 624 1760 l 1
 688 1760 l 1
 904 1416 l 1
 824 1336 l 1
 656 1608 l 1
 488 1336 l 1
 408 1416 l 1
536 480 m 1
 784 480 l 1
 664 952 l 1
 536 480 l 1
EndSplineSet
EndChar

StartChar: Atilde
Encoding: 280 195 133
Width: 1296
Flags: W
LayerCount: 2
Fore
SplineSet
232 0 m 1
 544 1176 l 1
 696 1176 l 1
 1008 0 l 1
 872 0 l 1
 776 336 l 1
 456 336 l 1
 368 0 l 1
 232 0 l 1
272 1400 m 1
 272 1600 l 1
 352 1707 416 1760 464 1760 c 0
 512 1760 552 1733 584 1680 c 1
 680 1560 l 2
 712 1523 747 1504 784 1504 c 0
 821 1504 883 1563 968 1680 c 1
 968 1480 l 1
 893 1379 832 1328 784 1328 c 0
 736 1328 693 1352 656 1400 c 2
 560 1520 l 2
 533 1557 501 1576 464 1576 c 0
 421 1576 357 1517 272 1400 c 1
496 480 m 1
 744 480 l 1
 616 952 l 1
 496 480 l 1
EndSplineSet
EndChar

StartChar: Adieresis
Encoding: 196 196 134
Width: 1296
Flags: W
LayerCount: 2
Fore
SplineSet
248 0 m 1
 560 1176 l 1
 720 1176 l 1
 1032 0 l 1
 888 0 l 1
 800 336 l 1
 480 336 l 1
 392 0 l 1
 248 0 l 1
320 1360 m 1
 320 1760 l 1
 520 1760 l 1
 520 1360 l 1
 320 1360 l 1
512 480 m 1
 768 480 l 1
 640 952 l 1
 512 480 l 1
736 1360 m 1
 736 1760 l 1
 944 1760 l 1
 944 1360 l 1
 736 1360 l 1
EndSplineSet
EndChar

StartChar: Aring
Encoding: 281 197 135
Width: 1296
Flags: W
LayerCount: 2
Fore
SplineSet
232 0 m 1
 544 1176 l 1
 696 1176 l 1
 1008 0 l 1
 872 0 l 1
 776 336 l 1
 456 336 l 1
 368 0 l 1
 232 0 l 1
416 1552 m 0
 416 1605 437 1653 480 1696 c 1
 517 1739 565 1760 624 1760 c 0
 677 1760 725 1739 768 1696 c 0
 811 1653 832 1605 832 1552 c 0
 832 1493 811 1445 768 1408 c 1
 725 1365 677 1344 624 1344 c 0
 565 1344 517 1365 480 1408 c 1
 437 1445 416 1493 416 1552 c 0
488 1552 m 0
 488 1509 500 1475 524 1448 c 0
 548 1421 581 1408 624 1408 c 0
 661 1408 693 1424 720 1456 c 1
 747 1477 760 1509 760 1552 c 0
 760 1589 747 1621 720 1648 c 0
 693 1675 661 1688 624 1688 c 0
 581 1688 549 1675 528 1648 c 1
 501 1621 488 1589 488 1552 c 0
496 480 m 1
 744 480 l 1
 616 952 l 1
 496 480 l 1
EndSplineSet
EndChar

StartChar: AE
Encoding: 198 198 136
Width: 1368
Flags: W
LayerCount: 2
Fore
SplineSet
128 0 m 1
 672 1176 l 1
 1248 1176 l 1
 1248 1040 l 1
 784 1040 l 1
 784 688 l 1
 1160 688 l 1
 1160 544 l 1
 784 544 l 1
 784 136 l 1
 1248 136 l 1
 1248 0 l 1
 680 0 l 1
 680 344 l 1
 416 344 l 1
 264 0 l 1
 128 0 l 1
480 480 m 1
 680 480 l 1
 680 920 l 1
 480 480 l 1
EndSplineSet
EndChar

StartChar: Ccedilla
Encoding: 199 199 137
Width: 1360
Flags: W
LayerCount: 2
Fore
SplineSet
40 592 m 0
 40 747 100 883 220 1000 c 0
 340 1117 504 1179 712 1184 c 1
 925 1179 1076 1141 1164 1072 c 0
 1252 1003 1304 904 1320 776 c 1
 1088 776 l 1
 1061 867 1020 933 964 976 c 0
 908 1019 824 1040 712 1040 c 0
 589 1040 487 1003 404 928 c 0
 321 853 280 741 280 592 c 0
 280 453 321 341 404 256 c 0
 487 171 581 128 688 128 c 0
 795 128 884 149 956 192 c 0
 1028 235 1072 309 1088 416 c 1
 1320 416 l 1
 1315 283 1260 183 1156 116 c 0
 1052 49 925 11 776 0 c 1
 803 -11 827 -16 848 -16 c 0
 923 -27 968 -44 984 -68 c 0
 1000 -92 1008 -117 1008 -144 c 0
 1008 -197 977 -235 916 -256 c 0
 855 -277 789 -288 720 -288 c 1
 656 -293 596 -285 540 -264 c 0
 484 -243 445 -221 424 -200 c 1
 568 -144 l 1
 624 -172 l 2
 661 -191 693 -200 720 -200 c 0
 757 -200 784 -199 800 -196 c 0
 816 -193 827 -176 832 -144 c 0
 837 -112 819 -91 776 -80 c 0
 691 -64 635 -37 608 0 c 1
 453 16 320 81 208 196 c 0
 96 311 40 443 40 592 c 0
EndSplineSet
EndChar

StartChar: Igrave
Encoding: 204 204 142
Width: 688
Flags: W
LayerCount: 2
Fore
SplineSet
176 1768 m 1
 360 1768 l 1
 512 1360 l 1
 408 1360 l 1
 176 1768 l 1
288 0 m 1
 288 1176 l 1
 408 1176 l 1
 408 0 l 1
 288 0 l 1
EndSplineSet
EndChar

StartChar: Iacute
Encoding: 205 205 143
Width: 592
Flags: W
LayerCount: 2
Fore
SplineSet
152 1416 m 1
 288 1768 l 1
 440 1768 l 1
 240 1416 l 1
 152 1416 l 1
248 0 m 1
 248 1176 l 1
 352 1176 l 1
 352 0 l 1
 248 0 l 1
EndSplineSet
EndChar

StartChar: Icircumflex
Encoding: 206 206 144
Width: 888
Flags: W
LayerCount: 2
Fore
SplineSet
168 1480 m 1
 408 1760 l 1
 480 1760 l 1
 720 1480 l 1
 632 1408 l 1
 448 1632 l 1
 256 1408 l 1
 168 1480 l 1
376 0 m 1
 376 1176 l 1
 520 1176 l 1
 520 0 l 1
 376 0 l 1
EndSplineSet
EndChar

StartChar: Idieresis
Encoding: 207 207 145
Width: 688
Flags: W
LayerCount: 2
Fore
SplineSet
80 1528 m 1
 80 1768 l 1
 240 1768 l 1
 240 1528 l 1
 80 1528 l 1
288 0 m 1
 288 1176 l 1
 408 1176 l 1
 408 0 l 1
 288 0 l 1
416 1528 m 1
 416 1768 l 1
 576 1768 l 1
 576 1528 l 1
 416 1528 l 1
EndSplineSet
EndChar

StartChar: Eth
Encoding: 282 208 146
Width: 1328
Flags: W
LayerCount: 2
Fore
SplineSet
176 736 m 1
 176 872 l 1
 376 872 l 1
 376 1552 l 1
 656 1552 l 2
 843 1552 973 1481 1048 1340 c 0
 1123 1199 1160 1011 1160 776 c 0
 1160 541 1123 353 1048 212 c 0
 973 71 843 0 656 0 c 2
 376 0 l 1
 376 736 l 1
 176 736 l 1
496 152 m 1
 656 152 l 2
 789 152 883 209 936 324 c 0
 989 439 1016 588 1016 772 c 0
 1016 956 989 1109 936 1232 c 0
 883 1355 789 1416 656 1416 c 2
 496 1416 l 1
 496 872 l 1
 728 872 l 1
 728 736 l 1
 496 736 l 1
 496 152 l 1
EndSplineSet
EndChar

StartChar: Ntilde
Encoding: 283 209 147
Width: 1312
Flags: W
LayerCount: 2
Fore
SplineSet
112 0 m 1
 112 1176 l 1
 400 1176 l 1
 984 288 l 1
 984 1176 l 1
 1208 1176 l 1
 1208 0 l 1
 928 0 l 1
 336 912 l 1
 336 0 l 1
 112 0 l 1
128 1488 m 1
 128 1640 l 1
 245 1720 341 1760 416 1760 c 0
 491 1760 552 1741 600 1704 c 1
 744 1608 l 2
 787 1581 837 1568 896 1568 c 0
 960 1568 1056 1613 1184 1704 c 1
 1184 1552 l 1
 1067 1472 971 1432 896 1432 c 0
 827 1432 765 1451 712 1488 c 2
 568 1584 l 2
 525 1611 475 1624 416 1624 c 0
 357 1624 261 1579 128 1488 c 1
EndSplineSet
EndChar

StartChar: Ograve
Encoding: 210 210 148
Width: 1368
Flags: W
LayerCount: 2
Fore
SplineSet
152 584 m 0
 152 739 195 876 280 996 c 0
 365 1116 477 1176 616 1176 c 2
 736 1176 l 2
 869 1176 981 1116 1072 996 c 0
 1163 876 1208 739 1208 584 c 0
 1208 419 1159 279 1060 164 c 0
 961 49 833 -8 676 -8 c 0
 519 -8 392 49 296 164 c 0
 200 279 152 419 152 584 c 0
320 584 m 0
 320 429 357 315 432 240 c 0
 507 165 588 128 676 128 c 0
 764 128 847 165 924 240 c 0
 1001 315 1040 429 1040 584 c 0
 1040 733 1003 848 928 928 c 0
 853 1008 779 1048 704 1048 c 2
 648 1048 l 2
 579 1048 507 1005 432 920 c 0
 357 835 320 723 320 584 c 0
392 1760 m 1
 688 1760 l 1
 944 1432 l 1
 768 1432 l 1
 392 1760 l 1
EndSplineSet
EndChar

StartChar: Oacute
Encoding: 211 211 149
Width: 1368
Flags: W
LayerCount: 2
Fore
SplineSet
152 584 m 0
 152 739 195 876 280 996 c 0
 365 1116 477 1176 616 1176 c 2
 736 1176 l 2
 869 1176 981 1116 1072 996 c 0
 1163 876 1208 739 1208 584 c 0
 1208 419 1159 279 1060 164 c 0
 961 49 833 -8 676 -8 c 0
 519 -8 392 49 296 164 c 0
 200 279 152 419 152 584 c 0
320 584 m 0
 320 429 357 315 432 240 c 0
 507 165 588 128 676 128 c 0
 764 128 847 165 924 240 c 0
 1001 315 1040 429 1040 584 c 0
 1040 733 1003 848 928 928 c 0
 853 1008 779 1048 704 1048 c 2
 648 1048 l 2
 579 1048 507 1005 432 920 c 0
 357 835 320 723 320 584 c 0
472 1408 m 1
 680 1760 l 1
 928 1760 l 1
 616 1408 l 1
 472 1408 l 1
EndSplineSet
EndChar

StartChar: Ocircumflex
Encoding: 212 212 150
Width: 1368
Flags: W
LayerCount: 2
Fore
SplineSet
152 584 m 0
 152 739 195 876 280 996 c 0
 365 1116 477 1176 616 1176 c 2
 736 1176 l 2
 869 1176 981 1116 1072 996 c 0
 1163 876 1208 739 1208 584 c 0
 1208 419 1159 279 1060 164 c 0
 961 49 833 -8 676 -8 c 0
 519 -8 392 49 296 164 c 0
 200 279 152 419 152 584 c 0
320 584 m 0
 320 429 357 315 432 240 c 0
 507 165 588 128 676 128 c 0
 764 128 847 165 924 240 c 0
 1001 315 1040 429 1040 584 c 0
 1040 733 1003 848 928 928 c 0
 853 1008 779 1048 704 1048 c 2
 648 1048 l 2
 579 1048 507 1005 432 920 c 0
 357 835 320 723 320 584 c 0
392 1480 m 1
 640 1760 l 1
 712 1760 l 1
 960 1480 l 1
 872 1408 l 1
 680 1640 l 1
 488 1408 l 1
 392 1480 l 1
EndSplineSet
EndChar

StartChar: Otilde
Encoding: 284 213 151
Width: 1368
Flags: W
LayerCount: 2
Fore
SplineSet
152 584 m 0
 152 739 195 876 280 996 c 0
 365 1116 477 1176 616 1176 c 2
 736 1176 l 2
 869 1176 981 1116 1072 996 c 0
 1163 876 1208 739 1208 584 c 0
 1208 419 1159 279 1060 164 c 0
 961 49 833 -8 676 -8 c 0
 519 -8 392 49 296 164 c 0
 200 279 152 419 152 584 c 0
312 1488 m 1
 312 1648 l 1
 392 1728 459 1768 512 1768 c 0
 560 1768 603 1749 640 1712 c 2
 736 1616 l 2
 768 1589 805 1576 848 1576 c 0
 891 1576 955 1621 1040 1712 c 1
 1040 1552 l 1
 965 1472 901 1432 848 1432 c 0
 795 1432 749 1451 712 1488 c 2
 616 1584 l 2
 584 1611 549 1624 512 1624 c 0
 469 1624 403 1579 312 1488 c 1
320 584 m 0
 320 429 357 315 432 240 c 0
 507 165 588 128 676 128 c 0
 764 128 847 165 924 240 c 0
 1001 315 1040 429 1040 584 c 0
 1040 733 1003 848 928 928 c 0
 853 1008 779 1048 704 1048 c 2
 648 1048 l 2
 579 1048 507 1005 432 920 c 0
 357 835 320 723 320 584 c 0
EndSplineSet
EndChar

StartChar: Odieresis
Encoding: 214 214 152
Width: 1368
Flags: W
LayerCount: 2
Fore
SplineSet
152 584 m 0
 152 739 192 876 272 996 c 0
 352 1116 467 1176 616 1176 c 2
 736 1176 l 2
 885 1176 1001 1116 1084 996 c 0
 1167 876 1208 739 1208 584 c 0
 1208 419 1164 280 1076 168 c 0
 988 56 872 0 728 0 c 2
 624 0 l 2
 485 0 372 56 284 168 c 0
 196 280 152 419 152 584 c 0
320 584 m 0
 320 429 353 317 420 248 c 0
 487 179 563 144 648 144 c 2
 704 144 l 2
 779 144 853 179 928 248 c 0
 1003 317 1040 429 1040 584 c 0
 1040 733 1008 845 944 920 c 0
 880 995 800 1032 704 1032 c 2
 648 1032 l 2
 552 1032 473 992 412 912 c 0
 351 832 320 723 320 584 c 0
352 1360 m 1
 352 1760 l 1
 568 1760 l 1
 568 1360 l 1
 352 1360 l 1
792 1360 m 1
 792 1760 l 1
 1008 1760 l 1
 1008 1360 l 1
 792 1360 l 1
EndSplineSet
EndChar

StartChar: multiply
Encoding: 285 215 153
Width: 2048
Flags: W
LayerCount: 2
Fore
SplineSet
384 248 m 1
 920 784 l 1
 392 1312 l 1
 496 1416 l 1
 1024 888 l 1
 1552 1416 l 1
 1656 1312 l 1
 1128 784 l 1
 1672 248 l 1
 1568 136 l 1
 1024 680 l 1
 488 136 l 1
 384 248 l 1
EndSplineSet
EndChar

StartChar: Oslash
Encoding: 286 216 154
Width: 1368
Flags: W
LayerCount: 2
Fore
SplineSet
280 -80 m 1
 424 224 l 1
 344 379 304 565 304 784 c 0
 304 987 344 1165 424 1320 c 0
 504 1475 608 1552 736 1552 c 0
 832 1552 912 1512 976 1432 c 1
 1096 1688 l 1
 1192 1632 l 1
 1048 1328 l 1
 1133 1168 1176 987 1176 784 c 0
 1176 565 1135 380 1052 228 c 0
 969 76 864 0 736 0 c 0
 645 0 565 40 496 120 c 1
 376 -144 l 1
 280 -80 l 1
472 784 m 0
 472 635 485 512 512 416 c 1
 904 1280 l 1
 856 1349 800 1384 736 1384 c 0
 667 1384 605 1332 552 1228 c 0
 499 1124 472 976 472 784 c 0
568 280 m 1
 616 195 672 152 736 152 c 0
 811 152 876 207 932 316 c 0
 988 425 1016 581 1016 784 c 0
 1016 928 1000 1051 968 1152 c 1
 568 280 l 1
EndSplineSet
EndChar

StartChar: Ugrave
Encoding: 217 217 155
Width: 1312
Flags: W
LayerCount: 2
Fore
SplineSet
128 520 m 2
 128 1176 l 1
 352 1176 l 1
 352 520 l 2
 352 387 379 293 432 240 c 0
 485 187 560 160 656 160 c 0
 752 160 828 187 884 240 c 0
 940 293 968 387 968 520 c 2
 968 1176 l 1
 1192 1176 l 1
 1192 520 l 2
 1192 323 1140 185 1036 108 c 0
 932 31 803 -8 648 -8 c 0
 493 -8 368 31 272 108 c 0
 176 185 128 323 128 520 c 2
384 1768 m 1
 728 1768 l 1
 1032 1416 l 1
 824 1416 l 1
 384 1768 l 1
EndSplineSet
EndChar

StartChar: Uacute
Encoding: 218 218 156
Width: 1312
Flags: W
LayerCount: 2
Fore
SplineSet
128 520 m 2
 128 1176 l 1
 352 1176 l 1
 352 520 l 2
 352 387 379 293 432 240 c 0
 485 187 560 160 656 160 c 0
 752 160 828 187 884 240 c 0
 940 293 968 387 968 520 c 2
 968 1176 l 1
 1192 1176 l 1
 1192 520 l 2
 1192 323 1140 185 1036 108 c 0
 932 31 803 -8 648 -8 c 0
 493 -8 368 31 272 108 c 0
 176 185 128 323 128 520 c 2
312 1416 m 1
 608 1768 l 1
 960 1768 l 1
 512 1416 l 1
 312 1416 l 1
EndSplineSet
EndChar

StartChar: Ucircumflex
Encoding: 219 219 157
Width: 1312
Flags: W
LayerCount: 2
Fore
SplineSet
128 520 m 2
 128 1176 l 1
 352 1176 l 1
 352 520 l 2
 352 387 379 293 432 240 c 0
 485 187 560 160 656 160 c 0
 752 160 828 187 884 240 c 0
 940 293 968 387 968 520 c 2
 968 1176 l 1
 1192 1176 l 1
 1192 520 l 2
 1192 323 1140 185 1036 108 c 0
 932 31 803 -8 648 -8 c 0
 493 -8 368 31 272 108 c 0
 176 185 128 323 128 520 c 2
248 1480 m 1
 608 1760 l 1
 712 1760 l 1
 1064 1480 l 1
 936 1408 l 1
 656 1632 l 1
 384 1408 l 1
 248 1480 l 1
EndSplineSet
EndChar

StartChar: Udieresis
Encoding: 220 220 158
Width: 1312
Flags: W
LayerCount: 2
Fore
SplineSet
128 520 m 2
 128 1176 l 1
 352 1176 l 1
 352 520 l 2
 352 387 379 293 432 240 c 0
 485 187 560 160 656 160 c 0
 752 160 828 187 884 240 c 0
 940 293 968 387 968 520 c 2
 968 1176 l 1
 1192 1176 l 1
 1192 520 l 2
 1192 323 1140 185 1036 108 c 0
 932 31 803 -8 648 -8 c 0
 493 -8 368 31 272 108 c 0
 176 185 128 323 128 520 c 2
152 1528 m 1
 152 1768 l 1
 464 1768 l 1
 464 1528 l 1
 152 1528 l 1
792 1528 m 1
 792 1768 l 1
 1096 1768 l 1
 1096 1528 l 1
 792 1528 l 1
EndSplineSet
EndChar

StartChar: Yacute
Encoding: 287 221 159
Width: 1208
Flags: W
LayerCount: 2
Fore
SplineSet
112 1176 m 1
 320 1176 l 1
 608 704 l 1
 896 1176 l 1
 1104 1176 l 1
 712 552 l 1
 712 0 l 1
 504 0 l 1
 504 552 l 1
 112 1176 l 1
320 1408 m 1
 600 1760 l 1
 920 1760 l 1
 512 1408 l 1
 320 1408 l 1
EndSplineSet
EndChar

StartChar: Thorn
Encoding: 288 222 160
Width: 1112
Flags: W
LayerCount: 2
Fore
SplineSet
152 0 m 1
 152 1624 l 1
 336 1624 l 1
 336 1192 l 1
 608 1192 l 2
 869 1192 1003 1067 1008 816 c 0
 1013 565 880 437 608 432 c 1
 336 432 l 1
 336 0 l 1
 152 0 l 1
336 560 m 1
 608 560 l 2
 763 560 843 645 848 816 c 1
 848 971 768 1051 608 1056 c 1
 336 1056 l 1
 336 560 l 1
EndSplineSet
EndChar

StartChar: germandbls
Encoding: 223 223 161
Width: 1112
Flags: W
LayerCount: 2
Fore
SplineSet
88 0 m 1
 88 1088 l 2
 88 1264 127 1385 204 1452 c 0
 281 1519 363 1552 448 1552 c 2
 544 1552 l 2
 645 1552 733 1513 808 1436 c 0
 883 1359 920 1264 920 1152 c 0
 920 1056 895 980 844 924 c 0
 793 868 749 835 712 824 c 1
 792 808 864 763 928 688 c 0
 992 613 1024 525 1024 424 c 0
 1024 136 888 -5 616 0 c 1
 384 0 l 1
 384 144 l 1
 584 144 l 2
 760 144 848 235 848 416 c 0
 848 528 804 613 716 672 c 0
 628 731 536 760 440 760 c 1
 440 888 l 1
 531 888 603 912 656 960 c 0
 709 1008 736 1072 736 1152 c 0
 736 1243 713 1308 668 1348 c 0
 623 1388 560 1408 480 1408 c 0
 421 1408 372 1383 332 1332 c 0
 292 1281 272 1200 272 1088 c 2
 272 0 l 1
 88 0 l 1
EndSplineSet
EndChar

StartChar: agrave
Encoding: 224 224 162
Width: 976
Flags: W
HStem: -16 112<308.52 581.428> 0 21G<710.503 812> 518.995 93.7275<463.419 682> 854 112<329.699 629.533>
VStem: 120 138<152.507 376.675> 135 142<693 801.32> 682 130<171.187 518.995 612.722 812.125>
LayerCount: 2
Fore
SplineSet
431 966 m 6xb6
 543 966 l 6
 616 966 685 945 735 898 c 4
 785 852 812 782 812 697 c 6
 812 0 l 5
 774 0 l 5
 721 0 l 5
 720 0 l 5x76
 682 80.0254107835 l 5
 615.856871217 33.412360557 529.556133402 -16 433 -16 c 4
 300 -16 216 41 172 104 c 4
 128 168 121 232 120 258 c 4
 120 264 120 268 120 268 c 6xba
 120 353 155 422 207 472 c 4
 259 521 327 551 397 572 c 4
 495.522039842 600.852883097 600.977359922 609.896394082 682 612.72244906 c 5
 682 690 l 6
 682 761 662 796 631 819 c 4
 600 842 550 854 488 854 c 4
 388 854 339 824 312 792 c 4
 284 759 277 717 277 693 c 5
 227 693 l 5
 185 693 l 5
 135 693 l 5
 135 777 175 848 232 894 c 4
 288 941 360 966 431 966 c 6xb6
359.778725431 1650.50235951 m 1
 378 1667 l 1
 531.843226788 1495.84322679 l 1
 703 1342 l 1
 686.502359512 1323.77872543 l 1
 689 1321 l 1
 661.184397163 1295.81560284 l 1
 636 1268 l 1
 633.221274569 1270.49764049 l 1
 615 1254 l 1
 461.156773212 1425.15677321 l 1
 290 1579 l 1
 306.497640488 1597.22127457 l 1
 304 1600 l 1
 331.815602837 1625.18439716 l 1
 357 1653 l 1
 359.778725431 1650.50235951 l 1
682 518.994989812 m 5
 617.241032237 513.982275361 522.18740264 498.874961056 440 466 c 4
 387 445 341 418 308 384 c 4
 276 350 258 312 258 260 c 4
 258 225 270 183 298 151 c 4
 325 120 367 96 442 96 c 4xba
 488 96 555 124 608 154 c 4
 639.234837089 171.680096466 665.607228229 189.360192931 682 200.899681294 c 5
 682 518.994989812 l 5
EndSplineSet
EndChar

StartChar: aacute
Encoding: 225 225 163
Width: 976
Flags: W
HStem: -16 112<308.52 581.428> 0 21G<710.503 812> 518.995 93.7275<463.419 682> 854 112<329.699 629.533>
VStem: 120 138<152.507 376.675> 135 142<693 801.32> 682 130<171.187 518.995 612.722 812.125>
LayerCount: 2
Fore
SplineSet
431 966 m 2xb6
 543 966 l 2
 616 966 685 945 735 898 c 0
 785 852 812 782 812 697 c 2
 812 0 l 1
 774 0 l 1
 721 0 l 1
 720 0 l 1x76
 682 80.0254107835 l 1
 615.856871217 33.412360557 529.556133402 -16 433 -16 c 0
 300 -16 216 41 172 104 c 0
 128 168 121 232 120 258 c 0
 120 264 120 268 120 268 c 2xba
 120 353 155 422 207 472 c 0
 259 521 327 551 397 572 c 0
 495.522039842 600.852883097 600.977359922 609.896394082 682 612.72244906 c 1
 682 690 l 2
 682 761 662 796 631 819 c 0
 600 842 550 854 488 854 c 0
 388 854 339 824 312 792 c 0
 284 759 277 717 277 693 c 1
 227 693 l 1
 185 693 l 1
 135 693 l 1
 135 777 175 848 232 894 c 0
 288 941 360 966 431 966 c 2xb6
682 518.994989812 m 1
 617.241032237 513.982275361 522.18740264 498.874961056 440 466 c 0
 387 445 341 418 308 384 c 0
 276 350 258 312 258 260 c 0
 258 225 270 183 298 151 c 0
 325 120 367 96 442 96 c 0xba
 488 96 555 124 608 154 c 0
 639.234837089 171.680096466 665.607228229 189.360192931 682 200.899681294 c 1
 682 518.994989812 l 1
EndSplineSet
Refer: 118 180 N 1 0 0 1 -24.5 6 2
EndChar

StartChar: acircumflex
Encoding: 226 226 164
Width: 976
Flags: W
HStem: -16 112<308.52 581.428> 0 21G<710.503 812> 518.995 93.7275<463.419 682> 854 112<329.699 629.533>
VStem: 120 138<152.507 376.675> 135 142<693 801.32> 682 130<171.187 518.995 612.722 812.125>
LayerCount: 2
Fore
SplineSet
431 966 m 2xb6
 543 966 l 2
 616 966 685 945 735 898 c 0
 785 852 812 782 812 697 c 2
 812 0 l 1
 774 0 l 1
 721 0 l 1
 720 0 l 1x76
 682 80.0254107835 l 1
 615.856871217 33.412360557 529.556133402 -16 433 -16 c 0
 300 -16 216 41 172 104 c 0
 128 168 121 232 120 258 c 0
 120 264 120 268 120 268 c 2xba
 120 353 155 422 207 472 c 0
 259 521 327 551 397 572 c 0
 495.522039842 600.852883097 600.977359922 609.896394082 682 612.72244906 c 1
 682 690 l 2
 682 761 662 796 631 819 c 0
 600 842 550 854 488 854 c 0
 388 854 339 824 312 792 c 0
 284 759 277 717 277 693 c 1
 227 693 l 1
 185 693 l 1
 135 693 l 1
 135 777 175 848 232 894 c 0
 288 941 360 966 431 966 c 2xb6
682 518.994989812 m 1
 617.241032237 513.982275361 522.18740264 498.874961056 440 466 c 0
 387 445 341 418 308 384 c 0
 276 350 258 312 258 260 c 0
 258 225 270 183 298 151 c 0
 325 120 367 96 442 96 c 0xba
 488 96 555 124 608 154 c 0
 639.234837089 171.680096466 665.607228229 189.360192931 682 200.899681294 c 1
 682 518.994989812 l 1
184 1336 m 1
 448 1624 l 1
 528 1624 l 1
 792 1336 l 1
 696 1272 l 1
 488 1496 l 1
 288 1272 l 1
 184 1336 l 1
EndSplineSet
EndChar

StartChar: atilde
Encoding: 289 227 165
Width: 976
Flags: W
LayerCount: 2
Fore
SplineSet
96 304 m 0
 96 528 237 640 520 640 c 2
 680 640 l 1
 680 696 l 2
 680 749 665 787 636 808 c 0
 607 829 568 840 520 840 c 2
 384 840 l 2
 293 840 221 821 168 784 c 1
 104 872 l 1
 189 931 280 960 376 960 c 2
 552 960 l 2
 621 960 685 940 744 900 c 0
 803 860 832 792 832 696 c 2
 832 208 l 1
 872 0 l 1
 728 0 l 1
 696 88 l 1
 616 29 512 0 384 0 c 0
 192 0 96 101 96 304 c 0
96 1272 m 1
 96 1424 l 1
 181 1504 253 1544 312 1544 c 0
 365 1544 411 1525 448 1488 c 2
 552 1392 l 1
 589 1365 629 1352 672 1352 c 0
 715 1352 784 1397 880 1488 c 1
 880 1336 l 1
 795 1256 725 1216 672 1216 c 0
 619 1216 571 1235 528 1272 c 2
 424 1368 l 2
 392 1395 355 1408 312 1408 c 0
 264 1408 192 1363 96 1272 c 1
264 296 m 1
 264 173 317 112 424 112 c 0
 509 112 595 147 680 216 c 1
 680 520 l 1
 520 520 l 2
 355 520 269 445 264 296 c 1
EndSplineSet
EndChar

StartChar: adieresis
Encoding: 228 228 166
Width: 976
Flags: W
LayerCount: 2
Fore
SplineSet
96 304 m 0
 96 528 237 640 520 640 c 2
 680 640 l 1
 680 696 l 2
 680 749 665 787 636 808 c 0
 607 829 568 840 520 840 c 2
 384 840 l 2
 293 840 221 821 168 784 c 1
 104 872 l 1
 189 931 280 960 376 960 c 2
 552 960 l 2
 621 960 685 940 744 900 c 0
 803 860 832 792 832 696 c 2
 832 208 l 1
 872 0 l 1
 728 0 l 1
 696 88 l 1
 616 29 512 0 384 0 c 0
 192 0 96 101 96 304 c 0
120 1176 m 1
 120 1552 l 1
 344 1552 l 1
 344 1176 l 1
 120 1176 l 1
264 296 m 1
 264 173 317 112 424 112 c 0
 509 112 595 147 680 216 c 1
 680 520 l 1
 520 520 l 2
 355 520 269 445 264 296 c 1
592 1176 m 1
 592 1552 l 1
 816 1552 l 1
 816 1176 l 1
 592 1176 l 1
EndSplineSet
EndChar

StartChar: aring
Encoding: 290 229 167
Width: 976
Flags: W
LayerCount: 2
Fore
SplineSet
96 304 m 0
 96 528 237 640 520 640 c 2
 680 640 l 1
 680 696 l 2
 680 749 665 787 636 808 c 0
 607 829 568 840 520 840 c 2
 384 840 l 2
 293 840 221 821 168 784 c 1
 104 872 l 1
 189 931 280 960 376 960 c 2
 552 960 l 2
 621 960 685 940 744 900 c 0
 803 860 832 792 832 696 c 2
 832 208 l 1
 872 0 l 1
 728 0 l 1
 696 88 l 1
 616 29 512 0 384 0 c 0
 192 0 96 101 96 304 c 0
256 1400 m 0
 256 1464 280 1520 328 1568 c 0
 371 1616 424 1640 488 1640 c 0
 552 1640 608 1616 656 1568 c 0
 699 1520 720 1464 720 1400 c 0
 720 1331 699 1272 656 1224 c 0
 608 1176 552 1152 488 1152 c 0
 424 1152 371 1176 328 1224 c 0
 280 1272 256 1331 256 1400 c 0
264 296 m 1
 264 173 317 112 424 112 c 0
 509 112 595 147 680 216 c 1
 680 520 l 1
 520 520 l 2
 355 520 269 445 264 296 c 1
336 1392 m 0
 336 1349 351 1312 380 1280 c 0
 409 1248 445 1232 488 1232 c 0
 531 1232 568 1248 600 1280 c 0
 627 1312 640 1349 640 1392 c 0
 640 1440 625 1480 596 1512 c 0
 567 1544 531 1560 488 1560 c 0
 445 1560 408 1544 376 1512 c 0
 349 1480 336 1440 336 1392 c 0
EndSplineSet
EndChar

StartChar: ae
Encoding: 230 230 168
Width: 1368
Flags: W
LayerCount: 2
Fore
SplineSet
96 240 m 0
 96 379 137 475 220 528 c 0
 303 581 419 616 568 632 c 1
 568 765 515 837 408 848 c 1
 317 848 267 797 256 696 c 1
 112 696 l 1
 128 803 160 873 208 908 c 0
 256 943 307 960 360 960 c 2
 464 960 l 2
 549 960 613 915 656 824 c 1
 704 915 776 960 872 960 c 2
 952 960 l 2
 1027 960 1097 917 1164 832 c 0
 1231 747 1264 629 1264 480 c 1
 704 480 l 1
 704 373 727 289 772 228 c 0
 817 167 872 136 936 136 c 0
 984 136 1023 151 1052 180 c 0
 1081 209 1104 251 1120 304 c 1
 1256 304 l 1
 1213 96 1107 -8 936 -8 c 0
 808 -8 715 43 656 144 c 1
 549 48 437 -3 320 -8 c 0
 240 -8 183 15 148 60 c 0
 113 105 96 165 96 240 c 0
232 240 m 0
 232 176 261 144 320 144 c 0
 416 144 499 181 568 256 c 1
 568 504 l 1
 456 483 372 455 316 420 c 0
 260 385 232 325 232 240 c 0
712 608 m 1
 1104 608 l 1
 1083 747 1019 819 912 824 c 1
 800 819 733 747 712 608 c 1
EndSplineSet
EndChar

StartChar: ccedilla
Encoding: 231 231 169
Width: 1024
Flags: MW
HStem: -259 58 -82 54<554 562 554 563 554 562> -19 119<504 504> 850 120<491 575 575 577.5>
VStem: 123 140<432 552 432 555.5> 594 56
LayerCount: 2
Fore
SplineSet
491 970 m 2
 575 970 l 2
 684 970 772 931 831 868 c 0
 890 806 919 722 919 637 c 1
 871 637 l 1
 871 637 871 637 871 637 c 1
 771 637 l 1
 771 693 753 746 716 784 c 0
 679 823 622 850 533 850 c 0
 439 850 377 821 333 764 c 0
 289 707 263 615 263 489 c 0
 263 375 285 274 329 206 c 0
 372 138 432 100 533 100 c 0
 678 100 772 193 772 334 c 1
 872 334 l 1
 872 334 l 1
 920 334 l 1
 920 273 905 187 847 112 c 0
 791 41 696 -15 554 -20 c 1
 554 -28 l 2
 557 -27 561 -27 565 -27 c 0
 590 -27 612 -42 627 -62 c 0
 641 -82 649 -108 649 -137 c 0
 649 -165 644 -193 632 -216 c 0
 620 -240 596 -259 567 -259 c 0
 549 -259 534 -255 524 -251 c 0
 518 -249 514 -248 511 -246 c 1
 511 -246 511 -246 511 -246 c 1
 512 -246 514 -247 518 -247 c 1
 518 -240 l 2
 515 -239 513 -237 511 -236 c 0
 509 -236 508 -235 508 -235 c 1
 508 -235 508 -235 509 -236 c 0
 510 -236 511 -237 518 -237 c 1
 518 -187 l 1
 526 -187 527 -189 528 -189 c 0
 530 -190 530 -190 531 -191 c 0
 532 -191 533 -192 534 -192 c 0
 536 -193 538 -194 541 -195 c 0
 547 -198 555 -200 566 -200 c 0
 573 -200 577 -198 583 -186 c 0
 589 -175 594 -156 594 -137 c 0
 594 -95 565 -81 563 -82 c 2
 562 -82 l 1
 562 -82 l 1
 557 -82 549 -86 549 -86 c 1
 530 -100 l 1
 509 -73 l 1
 501 -67 l 1
 502 -64 l 1
 501 -64 l 1
 502 -55 l 1
 504 -19 l 1
 294 -4 123 193 123 483 c 0
 123 628 156 748 220 835 c 0
 285 921 382 970 491 970 c 2
511 -246 m 1
 511 -246 510 -246 510 -245 c 1
 510 -246 511 -246 511 -246 c 1
510 -245 m 1
 510 -245 510 -245 510 -245 c 1
 509 -245 509 -245 509 -245 c 1
 509 -245 510 -245 510 -245 c 1
EndSplineSet
EndChar

StartChar: egrave
Encoding: 232 232 170
Width: 1024
Flags: MW
HStem: -20 115<512.5 556> 436 100<265 762 263 896 265 265> 850 120<474 475 475 514 514 514 514 514>
VStem: 130 135<372 431 431 436 371.5 440> 762 134<536 572 572 596 436 621.5>
LayerCount: 2
Fore
SplineSet
378 1667 m 1
 532 1496 l 1
 703 1342 l 1
 687 1324 l 1
 689 1321 l 1
 661 1296 l 1
 636 1268 l 1
 633 1270 l 1
 615 1254 l 1
 461 1425 l 1
 290 1579 l 1
 307 1597 l 1
 304 1600 l 1
 332 1625 l 1
 357 1653 l 1
 360 1650 l 1
 378 1667 l 1
475 970 m 5
 559 970 l 6
 671 970 760 917 815 844 c 4
 871 771 896 681 896 596 c 6
 896 436 l 5
 265 436 l 5
 265 431 l 5
 265 431 l 5
 265 312 300 230 351 176 c 4
 403 122 473 95 552 95 c 4
 609 95 661 117 698 145 c 4
 734 173 749 212 749 208 c 5
 796 208 l 6
 796 210 797 211 797 208 c 6
 897 208 l 5
 897 181 888 161 874 138 c 4
 860 114 840 89 812 65 c 4
 757 18 671 -21 556 -20 c 4
 425 -20 315 24 241 106 c 4
 167 188 130 304 130 440 c 4
 129 469 128 521 128 521 c 5
 128 522 l 5
 128 522 l 5
 128 522 129 570 130 598 c 4
 131 786 268 967 474 970 c 6
 475 970 l 5
514 850 m 5
 434 850 374 827 331 783 c 4
 289 739 263 671 263 573 c 6
 263 536 l 5
 762 536 l 5
 762 572 l 6
 762 671 738 739 697 783 c 4
 657 826 599 850 514 850 c 5
 514 850 l 5
 514 850 l 5
EndSplineSet
EndChar

StartChar: eacute
Encoding: 233 233 171
Width: 1024
Flags: W
HStem: -20 115<397.377 690.118> 436 100<265 762> 850 120<357.571 670.328>
VStem: 130 133<238.518 436 536 751.16> 762 134<163.137 208 536 755.673> 796 1<208 208.093>
LayerCount: 2
Fore
SplineSet
475 970 m 5xf4
 559 970 l 6
 671 970 760 917 815 844 c 4
 871 771 896 681 896 596 c 6
 896 436 l 5xf8
 265 436 l 5
 265 431 l 5
 265 312 300 230 351 176 c 4
 403 122 473 95 552 95 c 4
 609 95 661 117 698 145 c 4
 734 173 749 212 749 208 c 5
 796 208 l 6
 796 210 797 211 797 208 c 6
 897 208 l 5
 897 181 888 161 874 138 c 4
 860 114 840 89 812 65 c 4
 757 18 671 -21 556 -20 c 4
 425 -20 315 24 241 106 c 4
 167 188 130 304 130 440 c 4
 129 469 128 521 128 521 c 5
 128 522 l 5
 128 522 129 570 130 598 c 4
 131 786 268 967 474 970 c 6
 475 970 l 5xf4
514 850 m 5
 434 850 374 827 331 783 c 4
 289 739 263 671 263 573 c 6
 263 536 l 5
 762 536 l 5
 762 572 l 6
 762 671 738 739 697 783 c 4
 657 826 599 850 514 850 c 5
EndSplineSet
Refer: 118 180 N 1 0 0 1 16.5 -16 2
EndChar

StartChar: ecircumflex
Encoding: 234 234 172
Width: 1024
Flags: W
HStem: -20 115<397.377 690.118> 436 100<265 762> 850 120<357.571 670.328>
VStem: 130 133<238.518 436 536 751.16> 762 134<163.137 208 536 755.673> 796 1<208 208.093>
LayerCount: 2
Fore
SplineSet
475 970 m 1xf4
 559 970 l 2
 671 970 760 917 815 844 c 0
 871 771 896 681 896 596 c 2
 896 436 l 1xf8
 265 436 l 1
 265 431 l 1
 265 312 300 230 351 176 c 0
 403 122 473 95 552 95 c 0
 609 95 661 117 698 145 c 0
 734 173 749 212 749 208 c 1
 796 208 l 2
 796 210 797 211 797 208 c 2
 897 208 l 1
 897 181 888 161 874 138 c 0
 860 114 840 89 812 65 c 0
 757 18 671 -21 556 -20 c 0
 425 -20 315 24 241 106 c 0
 167 188 130 304 130 440 c 0
 129 469 128 521 128 521 c 1
 128 522 l 1
 128 522 129 570 130 598 c 0
 131 786 268 967 474 970 c 2
 475 970 l 1xf4
514 850 m 1
 434 850 374 827 331 783 c 0
 289 739 263 671 263 573 c 2
 263 536 l 1
 762 536 l 1
 762 572 l 2
 762 671 738 739 697 783 c 0
 657 826 599 850 514 850 c 1
192 1336 m 1
 472 1624 l 1
 552 1624 l 1
 832 1336 l 1
 728 1272 l 1
 512 1496 l 1
 296 1272 l 1
 192 1336 l 1
EndSplineSet
EndChar

StartChar: edieresis
Encoding: 235 235 173
Width: 1024
Flags: HW
LayerCount: 2
Fore
SplineSet
596 1561 m 5xf2
 696 1561 l 5
 733 1561 l 5
 733 1298 l 5
 696 1298 l 5
 596 1298 l 5
 596 1561 l 5xf2
276 1561 m 5xf6
 376 1561 l 5
 413 1561 l 5
 413 1298 l 5
 376 1298 l 5
 276 1298 l 5
 276 1561 l 5xf6
475 970 m 1
 559 970 l 2
 671 970 760 917 815 844 c 0
 871 771 896 681 896 596 c 2
 896 436 l 1xfb
 265 436 l 1
 265 431 l 1
 265 312 300 230 351 176 c 0
 403 122 473 95 552 95 c 0
 609 95 661 117 698 145 c 0
 734 173 749 212 749 208 c 1
 796 208 l 2
 796 210 797 211 797 208 c 2
 897 208 l 1
 897 181 888 161 874 138 c 0
 860 114 840 89 812 65 c 0
 757 18 671 -21 556 -20 c 0
 425 -20 315 24 241 106 c 0
 167 188 130 304 130 440 c 0
 129 469 128 521 128 521 c 1
 128 522 l 1
 128 522 129 570 130 598 c 0xfa80
 131 786 268 967 474 970 c 2
 475 970 l 1
514 850 m 1
 434 850 374 827 331 783 c 0
 289 739 263 671 263 573 c 2
 263 536 l 1
 762 536 l 1
 762 572 l 2
 762 671 738 739 697 783 c 0
 657 826 599 850 514 850 c 1
EndSplineSet
EndChar

StartChar: idieresis
Encoding: 239 239 177
Width: 736
Flags: W
LayerCount: 2
Fore
SplineSet
88 1272 m 1
 88 1512 l 1
 264 1512 l 1
 264 1272 l 1
 88 1272 l 1
304 0 m 1
 304 960 l 1
 432 960 l 1
 432 0 l 1
 304 0 l 1
448 1272 m 1
 448 1512 l 1
 616 1512 l 1
 616 1272 l 1
 448 1272 l 1
EndSplineSet
EndChar

StartChar: eth
Encoding: 291 240 178
Width: 1048
Flags: W
LayerCount: 2
Fore
SplineSet
80 472 m 0
 80 637 120 755 200 824 c 0
 280 893 379 928 496 928 c 0
 544 928 593 919 644 900 c 0
 695 881 733 856 760 824 c 1
 755 957 733 1061 696 1136 c 1
 224 976 l 1
 176 1104 l 1
 608 1248 l 1
 555 1301 485 1349 400 1392 c 1
 480 1512 l 1
 581 1464 677 1395 768 1304 c 1
 976 1376 l 1
 1024 1248 l 1
 848 1184 l 1
 912 1061 944 869 944 608 c 0
 944 400 904 247 824 148 c 0
 744 49 637 0 504 0 c 1
 365 -5 260 41 188 140 c 0
 116 239 80 349 80 472 c 0
232 472 m 0
 232 365 259 285 312 232 c 0
 365 179 424 152 488 152 c 0
 584 152 652 179 692 232 c 0
 732 285 752 365 752 472 c 0
 752 579 727 657 676 708 c 0
 625 759 563 784 488 784 c 0
 403 784 339 749 296 680 c 0
 253 611 232 541 232 472 c 0
EndSplineSet
EndChar

StartChar: ntilde
Encoding: 292 241 179
Width: 1024
Flags: W
LayerCount: 2
Fore
SplineSet
104 1272 m 1
 104 1424 l 1
 195 1504 269 1544 328 1544 c 0
 381 1544 429 1525 472 1488 c 2
 584 1392 l 2
 616 1365 656 1352 704 1352 c 0
 752 1352 824 1397 920 1488 c 1
 920 1336 l 1
 835 1256 763 1216 704 1216 c 0
 645 1216 595 1235 552 1272 c 2
 440 1368 l 2
 408 1395 371 1408 328 1408 c 0
 280 1408 205 1363 104 1272 c 1
160 0 m 1
 160 960 l 1
 328 960 l 1
 328 824 l 1
 355 867 384 900 416 924 c 0
 448 948 493 960 552 960 c 2
 648 960 l 2
 717 960 771 939 808 896 c 0
 845 853 864 792 864 712 c 2
 864 0 l 1
 696 0 l 1
 696 688 l 2
 696 736 687 769 668 788 c 0
 649 807 613 816 560 816 c 0
 517 816 480 805 448 784 c 0
 416 763 376 723 328 664 c 1
 328 0 l 1
 160 0 l 1
EndSplineSet
EndChar

StartChar: ograve
Encoding: 242 242 180
Width: 1040
Flags: W
LayerCount: 2
Fore
SplineSet
80 480 m 2
 80 504 l 2
 80 643 113 753 180 836 c 0
 247 919 339 960 456 960 c 2
 576 960 l 2
 709 960 808 917 872 832 c 0
 936 747 968 637 968 504 c 2
 968 480 l 2
 968 331 935 213 868 128 c 0
 801 43 704 0 576 0 c 2
 456 0 l 2
 328 0 233 40 172 120 c 0
 111 200 80 320 80 480 c 2
256 480 m 2
 256 352 273 263 308 212 c 0
 343 161 392 136 456 136 c 2
 576 136 l 2
 640 136 692 165 732 224 c 0
 772 283 792 368 792 480 c 2
 792 504 l 2
 792 611 773 691 736 744 c 0
 699 797 645 824 576 824 c 2
 456 824 l 2
 397 824 349 799 312 748 c 0
 275 697 256 616 256 504 c 2
 256 480 l 2
264 1624 m 1
 536 1624 l 1
 776 1272 l 1
 616 1272 l 1
 264 1624 l 1
EndSplineSet
EndChar

StartChar: oacute
Encoding: 243 243 181
Width: 1040
Flags: W
LayerCount: 2
Fore
SplineSet
80 480 m 2
 80 504 l 2
 80 643 113 753 180 836 c 0
 247 919 339 960 456 960 c 2
 576 960 l 2
 709 960 808 917 872 832 c 0
 936 747 968 637 968 504 c 2
 968 480 l 2
 968 331 935 213 868 128 c 0
 801 43 704 0 576 0 c 2
 456 0 l 2
 328 0 233 40 172 120 c 0
 111 200 80 320 80 480 c 2
256 480 m 2
 256 352 273 263 308 212 c 0
 343 161 392 136 456 136 c 2
 576 136 l 2
 640 136 692 165 732 224 c 0
 772 283 792 368 792 480 c 2
 792 504 l 2
 792 611 773 691 736 744 c 0
 699 797 645 824 576 824 c 2
 456 824 l 2
 397 824 349 799 312 748 c 0
 275 697 256 616 256 504 c 2
 256 480 l 2
264 1272 m 1
 504 1624 l 1
 776 1624 l 1
 424 1272 l 1
 264 1272 l 1
EndSplineSet
EndChar

StartChar: ocircumflex
Encoding: 244 244 182
Width: 1040
Flags: W
LayerCount: 2
Fore
SplineSet
80 480 m 2
 80 504 l 2
 80 643 113 753 180 836 c 0
 247 919 339 960 456 960 c 2
 576 960 l 2
 709 960 808 917 872 832 c 0
 936 747 968 637 968 504 c 2
 968 480 l 2
 968 331 935 213 868 128 c 0
 801 43 704 0 576 0 c 2
 456 0 l 2
 328 0 233 40 172 120 c 0
 111 200 80 320 80 480 c 2
200 1336 m 1
 480 1624 l 1
 560 1624 l 1
 840 1336 l 1
 744 1272 l 1
 520 1496 l 1
 304 1272 l 1
 200 1336 l 1
256 480 m 2
 256 352 273 263 308 212 c 0
 343 161 392 136 456 136 c 2
 576 136 l 2
 640 136 692 165 732 224 c 0
 772 283 792 368 792 480 c 2
 792 504 l 2
 792 611 773 691 736 744 c 0
 699 797 645 824 576 824 c 2
 456 824 l 2
 397 824 349 799 312 748 c 0
 275 697 256 616 256 504 c 2
 256 480 l 2
EndSplineSet
EndChar

StartChar: otilde
Encoding: 293 245 183
Width: 1040
Flags: W
LayerCount: 2
Fore
SplineSet
80 480 m 2
 80 504 l 2
 80 643 113 753 180 836 c 0
 247 919 339 960 456 960 c 2
 576 960 l 2
 709 960 808 917 872 832 c 0
 936 747 968 637 968 504 c 2
 968 480 l 2
 968 331 935 213 868 128 c 0
 801 43 704 0 576 0 c 2
 456 0 l 2
 328 0 233 40 172 120 c 0
 111 200 80 320 80 480 c 2
104 1272 m 1
 104 1424 l 1
 195 1504 269 1544 328 1544 c 0
 387 1544 437 1525 480 1488 c 2
 592 1392 l 2
 624 1365 664 1352 712 1352 c 0
 760 1352 835 1397 936 1488 c 1
 936 1336 l 1
 845 1256 771 1216 712 1216 c 0
 653 1216 603 1235 560 1272 c 2
 448 1368 l 2
 416 1395 376 1408 328 1408 c 0
 280 1408 205 1363 104 1272 c 1
256 480 m 2
 256 352 273 263 308 212 c 0
 343 161 392 136 456 136 c 2
 576 136 l 2
 640 136 692 165 732 224 c 0
 772 283 792 368 792 480 c 2
 792 504 l 2
 792 611 773 691 736 744 c 0
 699 797 645 824 576 824 c 2
 456 824 l 2
 397 824 349 799 312 748 c 0
 275 697 256 616 256 504 c 2
 256 480 l 2
EndSplineSet
EndChar

StartChar: odieresis
Encoding: 246 246 184
Width: 1040
Flags: W
LayerCount: 2
Fore
SplineSet
80 480 m 2
 80 504 l 2
 80 643 113 753 180 836 c 0
 247 919 339 960 456 960 c 2
 576 960 l 2
 709 960 808 917 872 832 c 0
 936 747 968 637 968 504 c 2
 968 480 l 2
 968 331 935 213 868 128 c 0
 801 43 704 0 576 0 c 2
 456 0 l 2
 328 0 233 40 172 120 c 0
 111 200 80 320 80 480 c 2
120 1272 m 1
 120 1512 l 1
 368 1512 l 1
 368 1272 l 1
 120 1272 l 1
256 480 m 2
 256 352 273 263 308 212 c 0
 343 161 392 136 456 136 c 2
 576 136 l 2
 640 136 692 165 732 224 c 0
 772 283 792 368 792 480 c 2
 792 504 l 2
 792 611 773 691 736 744 c 0
 699 797 645 824 576 824 c 2
 456 824 l 2
 397 824 349 799 312 748 c 0
 275 697 256 616 256 504 c 2
 256 480 l 2
624 1272 m 1
 624 1512 l 1
 872 1512 l 1
 872 1272 l 1
 624 1272 l 1
EndSplineSet
EndChar

StartChar: divide
Encoding: 294 247 185
Width: 2048
Flags: W
LayerCount: 2
Fore
SplineSet
312 712 m 1
 312 840 l 1
 1712 840 l 1
 1712 712 l 1
 312 712 l 1
904 344 m 0
 904 424 944 464 1024 464 c 0
 1104 464 1144 424 1144 344 c 0
 1144 264 1104 224 1024 224 c 0
 944 224 904 264 904 344 c 0
904 1216 m 0
 904 1296 944 1336 1024 1336 c 0
 1099 1336 1136 1296 1136 1216 c 0
 1136 1136 1099 1096 1024 1096 c 0
 944 1096 904 1136 904 1216 c 0
EndSplineSet
EndChar

StartChar: oslash
Encoding: 295 248 186
Width: 1040
Flags: W
LayerCount: 2
Fore
SplineSet
56 472 m 0
 56 595 99 707 184 808 c 0
 269 909 381 960 520 960 c 0
 595 960 661 947 720 920 c 1
 840 1128 l 1
 928 1072 l 1
 800 864 l 1
 928 763 992 629 992 464 c 0
 992 331 948 220 860 132 c 0
 772 44 659 0 520 0 c 0
 429 0 357 19 304 56 c 1
 176 -128 l 1
 96 -72 l 1
 224 112 l 1
 112 213 56 333 56 472 c 0
240 464 m 0
 240 373 259 301 296 248 c 1
 640 784 l 1
 603 805 563 816 520 816 c 0
 451 816 387 787 328 728 c 0
 269 669 240 581 240 464 c 0
360 168 m 1
 413 131 467 112 520 112 c 0
 589 112 653 141 712 200 c 0
 771 259 800 349 800 472 c 0
 800 584 771 672 712 736 c 1
 360 168 l 1
EndSplineSet
EndChar

StartChar: ugrave
Encoding: 249 249 187
Width: 1024
Flags: W
LayerCount: 2
Fore
SplineSet
152 264 m 2
 152 960 l 1
 336 960 l 1
 336 272 l 2
 336 187 379 144 464 144 c 0
 544 144 616 192 680 288 c 1
 680 960 l 1
 864 960 l 1
 864 0 l 1
 680 0 l 1
 680 104 l 1
 616 35 523 0 400 0 c 0
 320 0 259 23 216 68 c 0
 173 113 152 179 152 264 c 2
256 1624 m 1
 528 1624 l 1
 768 1272 l 1
 608 1272 l 1
 256 1624 l 1
EndSplineSet
EndChar

StartChar: uacute
Encoding: 250 250 188
Width: 1024
Flags: W
LayerCount: 2
Fore
SplineSet
152 264 m 2
 152 960 l 1
 336 960 l 1
 336 272 l 2
 336 187 379 144 464 144 c 0
 544 144 616 192 680 288 c 1
 680 960 l 1
 864 960 l 1
 864 0 l 1
 680 0 l 1
 680 104 l 1
 616 35 523 0 400 0 c 0
 320 0 259 23 216 68 c 0
 173 113 152 179 152 264 c 2
256 1272 m 1
 496 1624 l 1
 768 1624 l 1
 416 1272 l 1
 256 1272 l 1
EndSplineSet
EndChar

StartChar: ucircumflex
Encoding: 251 251 189
Width: 1024
Flags: W
LayerCount: 2
Fore
SplineSet
152 264 m 2
 152 960 l 1
 336 960 l 1
 336 272 l 2
 336 187 379 144 464 144 c 0
 544 144 616 192 680 288 c 1
 680 960 l 1
 864 960 l 1
 864 0 l 1
 680 0 l 1
 680 104 l 1
 616 35 523 0 400 0 c 0
 320 0 259 23 216 68 c 0
 173 113 152 179 152 264 c 2
192 1344 m 1
 472 1624 l 1
 552 1624 l 1
 832 1344 l 1
 728 1272 l 1
 512 1496 l 1
 296 1272 l 1
 192 1344 l 1
EndSplineSet
EndChar

StartChar: udieresis
Encoding: 252 252 190
Width: 1024
Flags: W
LayerCount: 2
Fore
SplineSet
120 1272 m 1
 120 1512 l 1
 360 1512 l 1
 360 1272 l 1
 120 1272 l 1
152 264 m 2
 152 960 l 1
 336 960 l 1
 336 272 l 2
 336 187 379 144 464 144 c 0
 544 144 616 192 680 288 c 1
 680 960 l 1
 864 960 l 1
 864 0 l 1
 680 0 l 1
 680 104 l 1
 616 35 523 0 400 0 c 0
 320 0 259 23 216 68 c 0
 173 113 152 179 152 264 c 2
616 1272 m 1
 616 1512 l 1
 856 1512 l 1
 856 1272 l 1
 616 1272 l 1
EndSplineSet
EndChar

StartChar: yacute
Encoding: 296 253 191
Width: 976
Flags: W
LayerCount: 2
Fore
SplineSet
96 960 m 1
 272 960 l 1
 472 304 l 1
 704 960 l 1
 888 960 l 1
 424 -288 l 1
 240 -288 l 1
 376 80 l 1
 96 960 l 1
248 1272 m 1
 472 1624 l 1
 728 1624 l 1
 400 1272 l 1
 248 1272 l 1
EndSplineSet
EndChar

StartChar: thorn
Encoding: 297 254 192
Width: 1016
Flags: W
LayerCount: 2
Fore
SplineSet
136 -232 m 1
 136 1360 l 1
 288 1360 l 1
 288 960 l 1
 384 1029 477 1064 568 1064 c 0
 680 1064 771 1021 840 936 c 0
 909 851 944 731 944 576 c 0
 944 411 907 289 832 212 c 0
 757 135 667 96 560 96 c 0
 464 96 373 125 288 184 c 1
 288 -232 l 1
 136 -232 l 1
288 344 m 1
 368 285 459 256 560 256 c 0
 699 256 768 363 768 576 c 0
 768 789 699 899 560 904 c 1
 448 904 357 859 288 768 c 1
 288 344 l 1
EndSplineSet
EndChar

StartChar: ydieresis
Encoding: 255 255 193
Width: 976
Flags: W
LayerCount: 2
Fore
SplineSet
96 960 m 1
 272 960 l 1
 472 304 l 1
 704 960 l 1
 888 960 l 1
 424 -288 l 1
 240 -288 l 1
 376 80 l 1
 96 960 l 1
120 1272 m 1
 120 1512 l 1
 344 1512 l 1
 344 1272 l 1
 120 1272 l 1
592 1272 m 1
 592 1512 l 1
 816 1512 l 1
 816 1272 l 1
 592 1272 l 1
EndSplineSet
EndChar

StartChar: OE
Encoding: 188 338 194
Width: 1368
Flags: W
LayerCount: 2
Fore
SplineSet
128 768 m 1
 123 1291 211 1552 392 1552 c 2
 456 1552 l 2
 568 1552 648 1451 696 1248 c 1
 696 1552 l 1
 1248 1552 l 1
 1248 1408 l 1
 832 1408 l 1
 832 904 l 1
 1176 904 l 1
 1176 768 l 1
 832 768 l 1
 832 152 l 1
 1240 152 l 1
 1240 0 l 1
 696 0 l 1
 696 288 l 1
 648 96 568 0 456 0 c 2
 392 0 l 2
 211 0 123 256 128 768 c 1
240 768 m 0
 240 363 291 157 392 152 c 1
 456 152 l 2
 563 152 616 357 616 768 c 0
 616 1195 565 1408 464 1408 c 2
 392 1408 l 2
 291 1408 240 1195 240 768 c 0
EndSplineSet
EndChar

StartChar: oe
Encoding: 189 339 195
Width: 1368
Flags: W
LayerCount: 2
Fore
SplineSet
120 472 m 2
 120 512 l 2
 120 651 144 760 192 840 c 0
 240 920 307 960 392 960 c 2
 480 960 l 2
 576 960 648 920 696 840 c 1
 712 872 l 1
 765 931 829 960 904 960 c 2
 976 960 l 2
 1051 960 1115 929 1168 868 c 0
 1221 807 1248 733 1248 648 c 2
 1248 536 l 1
 768 536 l 1
 768 368 l 1
 773 272 793 205 828 168 c 0
 863 131 901 112 944 112 c 0
 987 112 1023 121 1052 140 c 0
 1081 159 1109 197 1136 256 c 1
 1232 176 l 1
 1211 123 1179 80 1136 48 c 0
 1093 16 1040 0 976 0 c 2
 912 0 l 2
 832 0 765 35 712 104 c 1
 696 128 l 1
 643 43 571 0 480 0 c 2
 392 0 l 2
 301 0 233 39 188 116 c 0
 143 193 120 312 120 472 c 2
248 472 m 2
 248 344 260 252 284 196 c 0
 308 140 344 112 392 112 c 2
 480 112 l 2
 523 112 560 144 592 208 c 0
 613 256 627 317 632 392 c 1
 632 592 l 1
 627 661 613 717 592 760 c 0
 565 819 528 848 480 848 c 2
 392 848 l 2
 349 848 315 820 288 764 c 0
 261 708 248 624 248 512 c 2
 248 472 l 2
776 648 m 1
 1112 648 l 1
 1107 707 1091 753 1064 788 c 0
 1037 823 997 843 944 848 c 1
 880 848 836 828 812 788 c 0
 788 748 776 701 776 648 c 1
EndSplineSet
EndChar

StartChar: Ydieresis
Encoding: 190 376 196
Width: 1208
Flags: W
LayerCount: 2
Fore
SplineSet
240 1176 m 1
 384 1176 l 1
 600 640 l 1
 816 1176 l 1
 968 1176 l 1
 664 488 l 1
 664 0 l 1
 536 0 l 1
 536 488 l 1
 240 1176 l 1
312 1360 m 1
 312 1760 l 1
 496 1760 l 1
 496 1360 l 1
 312 1360 l 1
704 1360 m 1
 704 1760 l 1
 888 1760 l 1
 888 1360 l 1
 704 1360 l 1
EndSplineSet
EndChar

StartChar: circumflex
Encoding: 298 710 197
Width: 936
Flags: W
LayerCount: 2
Fore
SplineSet
192 1416 m 1
 432 1760 l 1
 496 1760 l 1
 728 1416 l 1
 648 1336 l 1
 464 1608 l 1
 280 1336 l 1
 192 1416 l 1
EndSplineSet
EndChar

StartChar: tilde
Encoding: 299 732 198
Width: 1016
Flags: W
LayerCount: 2
Fore
SplineSet
104 1456 m 1
 104 1608 l 1
 195 1688 267 1728 320 1728 c 0
 379 1728 427 1709 464 1672 c 1
 576 1576 l 2
 613 1549 653 1536 696 1536 c 0
 744 1536 816 1581 912 1672 c 1
 912 1520 l 1
 827 1440 755 1400 696 1400 c 0
 643 1400 595 1419 552 1456 c 2
 440 1552 l 2
 408 1579 368 1592 320 1592 c 0
 277 1592 205 1547 104 1456 c 1
EndSplineSet
EndChar

StartChar: uni2010
Encoding: 311 8208 210
Width: 1024
Flags: W
LayerCount: 2
Fore
SplineSet
152 544 m 1
 152 656 l 1
 864 656 l 1
 864 544 l 1
 152 544 l 1
EndSplineSet
EndChar

StartChar: uni2011
Encoding: 312 8209 211
Width: 1024
Flags: W
LayerCount: 2
Fore
SplineSet
152 544 m 1
 152 656 l 1
 864 656 l 1
 864 544 l 1
 152 544 l 1
EndSplineSet
EndChar

StartChar: figuredash
Encoding: 313 8210 212
Width: 1024
Flags: W
LayerCount: 2
Fore
SplineSet
152 544 m 1
 152 656 l 1
 864 656 l 1
 864 544 l 1
 152 544 l 1
EndSplineSet
EndChar

StartChar: endash
Encoding: 314 8211 213
Width: 1032
Flags: W
LayerCount: 2
Fore
SplineSet
80 712 m 1
 80 840 l 1
 952 840 l 1
 952 712 l 1
 80 712 l 1
EndSplineSet
EndChar

StartChar: emdash
Encoding: 315 8212 214
Width: 1368
Flags: W
LayerCount: 2
Fore
SplineSet
0 712 m 1
 0 840 l 1
 1368 840 l 1
 1368 712 l 1
 0 712 l 1
EndSplineSet
EndChar

StartChar: quoteleft
Encoding: 316 8216 215
Width: 1024
Flags: W
LayerCount: 2
Fore
SplineSet
544 1176 m 1
 544 1432 l 1
 736 1760 l 1
 840 1760 l 1
 680 1432 l 1
 832 1432 l 1
 832 1176 l 1
 544 1176 l 1
EndSplineSet
EndChar

StartChar: quoteright
Encoding: 317 8217 216
Width: 1024
Flags: W
LayerCount: 2
Fore
SplineSet
184 1448 m 1
 184 1760 l 1
 472 1760 l 1
 472 1448 l 1
 296 1176 l 1
 192 1176 l 1
 320 1448 l 1
 184 1448 l 1
EndSplineSet
EndChar

StartChar: quotesinglbase
Encoding: 318 8218 217
Width: 416
Flags: W
LayerCount: 2
Fore
SplineSet
48 -16 m 1
 48 296 l 1
 168 296 l 1
 168 -16 l 1
 96 -288 l 1
 56 -288 l 1
 104 -16 l 1
 48 -16 l 1
EndSplineSet
EndChar

StartChar: quotedblleft
Encoding: 319 8220 218
Width: 1024
Flags: W
LayerCount: 2
Fore
SplineSet
152 1176 m 1
 152 1456 l 1
 320 1760 l 1
 416 1760 l 1
 296 1456 l 1
 432 1456 l 1
 432 1176 l 1
 152 1176 l 1
576 1176 m 1
 576 1456 l 1
 744 1760 l 1
 840 1760 l 1
 720 1456 l 1
 856 1456 l 1
 856 1176 l 1
 576 1176 l 1
EndSplineSet
EndChar

StartChar: quotedblright
Encoding: 181 8221 219
Width: 1024
Flags: W
LayerCount: 2
Fore
SplineSet
176 1176 m 1
 296 1480 l 1
 176 1480 l 1
 176 1760 l 1
 456 1760 l 1
 456 1488 l 1
 272 1176 l 1
 176 1176 l 1
600 1176 m 1
 720 1480 l 1
 600 1480 l 1
 600 1760 l 1
 880 1760 l 1
 880 1488 l 1
 696 1176 l 1
 600 1176 l 1
EndSplineSet
EndChar

StartChar: quotedblbase
Encoding: 165 8222 220
Width: 712
Flags: W
LayerCount: 2
Fore
SplineSet
112 16 m 1
 112 296 l 1
 304 296 l 1
 304 24 l 1
 176 -288 l 1
 112 -288 l 1
 200 16 l 1
 112 16 l 1
408 16 m 1
 408 296 l 1
 600 296 l 1
 600 24 l 1
 472 -288 l 1
 408 -288 l 1
 488 16 l 1
 408 16 l 1
EndSplineSet
EndChar

StartChar: bullet
Encoding: 320 8226 221
Width: 416
Flags: W
LayerCount: 2
Fore
SplineSet
144 704 m 1
 144 960 l 1
 256 960 l 1
 256 704 l 1
 144 704 l 1
EndSplineSet
EndChar

StartChar: ellipsis
Encoding: 321 8230 222
Width: 2048
Flags: W
LayerCount: 2
Fore
SplineSet
224 584 m 1
 224 856 l 1
 496 856 l 1
 496 584 l 1
 224 584 l 1
872 584 m 1
 872 856 l 1
 1144 856 l 1
 1144 584 l 1
 872 584 l 1
1528 584 m 1
 1528 856 l 1
 1800 856 l 1
 1800 584 l 1
 1528 584 l 1
EndSplineSet
EndChar

StartChar: guilsinglleft
Encoding: 323 8249 224
Width: 1024
Flags: W
LayerCount: 2
Fore
SplineSet
96 752 m 1
 824 1496 l 1
 928 1376 l 1
 312 752 l 1
 928 120 l 1
 824 -8 l 1
 96 752 l 1
EndSplineSet
EndChar

StartChar: guilsinglright
Encoding: 324 8250 225
Width: 1024
Flags: W
LayerCount: 2
Fore
SplineSet
96 112 m 1
 712 736 l 1
 96 1368 l 1
 200 1496 l 1
 928 736 l 1
 200 -8 l 1
 96 112 l 1
EndSplineSet
EndChar

StartChar: Euro
Encoding: 164 8364 227
Width: 1349
Flags: W
LayerCount: 2
Fore
SplineSet
22 536 m 1
 147 536 l 1
 151 512 l 2
 175 379 221 266 289 175 c 0
 394 34 534 -36 711 -36 c 0
 860 -36 975 1 1054 76 c 0
 1134 150 1191 245 1224 361 c 1
 1116 419 l 1
 1072 303 1022 224 967 183 c 0
 912 142 826 121 710 121 c 0
 594 122 493 167 408 256 c 0
 349 317 309 403 286 512 c 2
 280 539 l 1
 942 538 l 1
 942 684 l 1
 462 684 l 1
 264 684 l 1
 264 850 l 1
 942 850 l 1
 942 994 l 1
 285 994 l 1
 292 1022 l 2
 316 1111 355 1189 409 1255 c 0
 494 1360 595 1412 710 1412 c 0
 826 1412 915 1386 976 1334 c 0
 1036 1281 1083 1205 1116 1106 c 1
 1224 1188 l 1
 1185 1304 1123 1397 1038 1466 c 0
 953 1535 844 1570 711 1570 c 0
 546 1570 408 1495 297 1346 c 0
 231 1256 185 1148 158 1022 c 2
 152 994 l 1
 24 995 l 1
 24 850 l 1
 134 850 l 1
 133 823 132 796 132 769 c 0
 132 734 132 705 133 684 c 1
 24 684 l 1
 22 536 l 1
EndSplineSet
EndChar

StartChar: trademark
Encoding: 326 8482 228
Width: 1144
Flags: W
LayerCount: 2
Fore
SplineSet
48 1432 m 1
 48 1552 l 1
 528 1552 l 1
 528 1432 l 1
 344 1432 l 1
 344 960 l 1
 216 960 l 1
 216 1432 l 1
 48 1432 l 1
552 960 m 1
 552 1552 l 1
 696 1552 l 1
 800 1288 l 1
 912 1552 l 1
 1064 1552 l 1
 1064 960 l 1
 944 960 l 1
 944 1328 l 1
 856 1112 l 1
 760 1112 l 1
 664 1312 l 1
 664 960 l 1
 552 960 l 1
EndSplineSet
EndChar

StartChar: uni25FC
Encoding: 327 9724 229
Width: 1175
Flags: W
LayerCount: 2
Fore
SplineSet
0 0 m 1
 0 1175 l 1
 1175 1175 l 1
 1175 0 l 1
 0 0 l 1
EndSplineSet
EndChar

StartChar: uniFB01
Encoding: 328 64257 230
Width: 888
Flags: W
LayerCount: 2
Fore
SplineSet
24 1040 m 1
 24 1176 l 1
 136 1176 l 1
 136 1440 l 2
 136 1531 156 1607 196 1668 c 0
 236 1729 301 1760 392 1760 c 2
 480 1760 l 1
 480 1600 l 1
 384 1600 l 2
 347 1600 319 1587 300 1560 c 0
 281 1533 272 1493 272 1440 c 2
 272 1176 l 1
 728 1176 l 1
 728 0 l 1
 592 0 l 1
 592 1040 l 1
 272 1040 l 1
 272 0 l 1
 136 0 l 1
 136 1040 l 1
 24 1040 l 1
EndSplineSet
EndChar

StartChar: uniFB02
Encoding: 329 64258 231
Width: 944
Flags: W
LayerCount: 2
Fore
SplineSet
24 1040 m 1
 24 1176 l 1
 144 1176 l 1
 144 1440 l 2
 144 1531 165 1607 208 1668 c 0
 251 1729 320 1760 416 1760 c 0
 491 1760 565 1733 640 1680 c 1
 640 1760 l 1
 784 1760 l 1
 784 0 l 1
 640 0 l 1
 640 1528 l 1
 560 1576 483 1600 408 1600 c 0
 371 1600 341 1587 320 1560 c 0
 299 1533 288 1493 288 1440 c 2
 288 1176 l 1
 512 1176 l 1
 512 1040 l 1
 288 1040 l 1
 288 0 l 1
 144 0 l 1
 144 1040 l 1
 24 1040 l 1
EndSplineSet
EndChar
